<svg width="50" height="50" viewBox="0 0 50 50" fill="none" xmlns="http://www.w3.org/2000/svg">
<path d="M21.211 19.2969C20.3321 19.2285 19.6387 19.4629 19.1309 19.8633C17.0216 18.7402 9.21882 14.5703 9.21882 14.5703C8.30085 14.1016 7.58796 15.459 8.4864 15.9473L18.2423 21.1524C17.8907 22.207 18.1446 23.457 19.0137 24.2188C17.7637 25.6055 14.8243 28.8477 14.8243 28.8477C14.1505 29.6094 15.2833 30.6543 15.9864 29.9024L20.5274 24.8828C24.2188 25.2832 24.9122 19.8242 21.211 19.2969ZM20.9278 23.3496C19.2579 23.3887 19.1798 20.8887 20.879 20.8399C22.5001 20.8887 22.5489 23.2324 20.9278 23.3496ZM20.088 8.99415V7.20704C20.1075 6.18165 21.6309 6.18165 21.6505 7.20704V8.99415C21.6407 10.0293 20.1075 10.0293 20.088 8.99415ZM7.69538 22.9492H5.90827C4.88288 22.9297 4.88288 21.4063 5.90827 21.3867H7.69538C8.73054 21.4063 8.73054 22.9395 7.69538 22.9492ZM42.4024 28.7109C43.6133 28.0371 43.8087 26.1035 42.5001 25.332C42.9981 24.4727 43.6915 23.2715 43.6915 23.2715C44.7169 21.4551 43.252 19.6387 41.6016 19.5899C40.3516 9.26759 31.4258 1.20118 20.8692 1.21095C-4.25774 1.92384 -7.49993 36.582 16.1524 42.4024C15.9962 43.1738 16.1817 44.0234 16.7286 44.6191C15.4786 45.9961 16.0841 48.7012 18.545 48.7793H31.2012C31.7286 48.7891 32.2071 48.6328 32.588 48.3594C34.043 48.6426 35.7911 48.7793 37.9298 48.7793C43.5059 48.7793 49.9024 47.9199 49.9024 41.1817C49.9024 37.5879 46.0352 32.6074 42.4024 28.7109ZM18.5352 40.4688C17.4122 40.4883 17.295 38.6914 18.5352 38.6621H31.1915C32.4122 38.6719 32.3341 40.4883 31.1915 40.4688H18.5352ZM18.5352 37.0899C17.3145 37.0606 17.3829 35.2832 18.5352 35.2832C18.8673 35.293 27.9395 35.2832 31.1915 35.2832C32.3829 35.293 32.3536 37.0801 31.1915 37.0899H18.5352ZM29.2676 33.7207H18.545C16.0841 33.7988 15.4786 36.5039 16.7286 37.8809C16.6895 37.9199 16.6602 37.9688 16.6212 38.0176C-1.53313 32.959 1.2696 6.18165 20.8692 5.61524C29.004 5.59571 35.8399 11.543 37.1485 19.4141C36.67 19.5606 36.2501 19.8438 35.9571 20.2637C33.8966 18.3692 30.7716 20.8496 32.1583 23.2813L33.3497 25.332C32.1778 26.0742 32.0997 28.0274 33.4571 28.7012C31.7969 30.4883 30.3907 32.168 29.2676 33.7207ZM38.6719 21.25C38.838 21.4844 38.8087 21.7969 38.8184 22.0703V25.0293H34.9805L33.5157 22.5C32.9493 21.4844 34.4532 20.6055 35.0489 21.6113L35.5762 22.5195C35.752 22.8223 36.1133 22.9785 36.4551 22.8809C37.002 22.7344 37.0704 22.2266 37.0313 21.7383C37.0216 20.8594 38.2032 20.5176 38.6719 21.25ZM34.4044 27.3926C33.8087 27.3633 33.9161 26.4844 34.5216 26.5918H41.4454C41.963 26.5918 41.9727 27.3926 41.4454 27.3926H34.4044ZM42.3341 22.4902L40.8692 25.0195H38.8087C38.877 24.9024 40.3126 22.4121 40.7911 21.6016C41.3184 20.6641 42.92 21.3965 42.3341 22.4902ZM20.8692 2.78321C30.7325 2.78321 39.0723 10.3516 40.0782 20.0977C40.0098 20.1465 39.9415 20.2051 39.8829 20.2637C39.5997 19.8438 39.1798 19.5801 38.7208 19.4141C37.4122 10.6152 29.8341 4.05274 20.8692 4.05274C-0.0780563 4.4629 -4.0136 33.6133 16.0645 39.502C16.045 40.0098 16.2012 40.4883 16.4649 40.918C-5.65423 35.1953 -2.06048 3.35938 20.8692 2.78321ZM18.5352 43.8477C17.2755 43.8184 17.4415 42.0117 18.5352 42.0313H31.1915C32.3829 42.041 32.3536 43.8379 31.1915 43.8477H18.5352ZM18.5352 47.2168C17.3438 47.1973 17.3536 45.4297 18.5352 45.4102H31.1915C31.9923 45.3906 32.3731 46.4258 31.8262 46.9727C31.6798 47.1191 31.4747 47.2168 31.1915 47.2266C31.2012 47.2168 18.5352 47.2168 18.5352 47.2168ZM33.5841 46.9531C33.7891 46.1328 33.6036 45.2734 32.9981 44.6289C33.8673 43.7305 33.877 42.1582 32.9981 41.25C33.8673 40.3516 33.877 38.7891 32.9981 37.8711C34.4727 36.4063 33.3301 33.6621 31.211 33.7207C32.3536 32.2363 33.7501 30.6445 35.3614 28.9649H40.4786C52.8419 41.4258 50.6055 48.8086 33.5841 46.9531ZM38.9161 37.9004C42.0508 37.9297 42.7149 42.3047 39.7755 43.2813V43.6426C39.7559 44.668 38.2325 44.668 38.213 43.6426V43.3203C37.0313 43.0078 36.1524 41.9336 36.1524 40.6543C36.1719 39.6289 37.6954 39.6289 37.7149 40.6543C37.7149 41.3184 38.252 41.8555 38.9161 41.8555C40.4981 41.8164 40.4981 39.4922 38.9161 39.4531C35.6055 39.3555 35.1954 34.7559 38.213 34.0332V33.7109C38.2325 32.6856 39.7559 32.6856 39.7755 33.7109V34.082C40.7911 34.3945 41.6407 35.2637 41.6798 36.6895C41.6602 37.7149 40.1368 37.7149 40.1173 36.6895C40.1173 36.0254 39.5801 35.4883 38.9161 35.4883C37.3341 35.5371 37.3341 37.8613 38.9161 37.9004Z" fill="#1D3362"/>
</svg>
