<svg width="24" height="24" viewBox="0 0 24 24" fill="none" xmlns="http://www.w3.org/2000/svg">
<g clip-path="url(#clip0_65_1473)">
<path d="M23.9956 12.0244C23.9956 15.9515 23.997 19.8786 23.9999 23.8057C23.9999 23.9613 23.9749 23.9994 23.8124 23.9994C15.942 23.9936 8.0714 23.9936 0.200566 23.9994C0.0211913 23.9994 0.00244141 23.9494 0.00244141 23.7913C0.00619141 15.9296 0.00619141 8.06752 0.00244141 0.205014C0.00244141 0.0418893 0.0293163 -0.000610352 0.203066 -0.000610352C8.0664 0.00480632 15.9293 0.00480632 23.7918 -0.000610352C23.9756 -0.000610352 24.0024 0.0506393 24.0024 0.218764C23.9954 4.15418 23.9931 8.08939 23.9956 12.0244Z" fill="#313131"/>
<path d="M16.3749 15.3431C16.2549 15.4681 16.0918 15.5306 15.9462 15.615C12.6904 17.5062 9.4339 19.3962 6.17681 21.285C5.40181 21.7343 4.71868 21.7025 4.09993 21.1862C4.07227 21.16 4.04678 21.1315 4.02368 21.1012C4.03889 21.0321 4.07948 20.9712 4.13743 20.9306C4.59743 20.5012 4.99743 20.0131 5.44556 19.5725C5.83931 19.1856 6.22681 18.7937 6.61618 18.4025C6.92868 18.0937 7.24119 17.7775 7.55369 17.465C7.92869 17.0937 8.30369 16.7181 8.67869 16.34C9.05056 15.9918 9.38619 15.6087 9.74744 15.25C10.0999 14.95 10.4062 14.6031 10.7374 14.2812C11.0818 13.9337 11.4437 13.6031 11.7543 13.2218C11.8097 13.1564 11.8741 13.0992 11.9456 13.0518C12.2581 12.7912 12.5268 12.4806 12.8206 12.2C12.8924 12.1312 12.9531 12.0493 13.0456 12.0037C13.0671 11.9981 13.0897 11.9981 13.1112 12.0037C13.166 12.0335 13.215 12.0732 13.2556 12.1206C14.2518 13.1193 15.2479 14.1175 16.2437 15.115C16.3056 15.1768 16.3999 15.2281 16.3749 15.3431Z" fill="#F53448"/>
<path d="M13.0836 12.03H13.0668L13.0505 12.0256C12.9368 12.0456 12.883 11.955 12.8211 11.8919C10.4524 9.43938 8.00863 7.06063 5.61551 4.6325C5.12988 4.14063 4.65238 3.63938 4.16738 3.14625C4.10488 3.08375 4.03551 3.03375 4.02051 2.94125C4.55113 2.38688 5.34738 2.28 6.05051 2.69125C7.65551 3.62875 9.25238 4.57688 10.858 5.51188C12.618 6.53625 14.3843 7.55063 16.1468 8.57C16.2274 8.61625 16.3011 8.67313 16.378 8.725C16.3743 8.83125 16.2905 8.88563 16.2261 8.95C15.2482 9.93 14.269 10.9092 13.2886 11.8875C13.2299 11.9444 13.1774 12.0188 13.0836 12.03Z" fill="#00EF76"/>
<path d="M13.0837 12.03C13.7462 11.3633 14.4092 10.6954 15.0725 10.0262C15.5062 9.58874 15.9431 9.15812 16.3781 8.72437C17.4844 9.36062 18.6075 9.96936 19.6906 10.6419C20.6906 11.2625 20.7256 12.7406 19.74 13.3875C18.6556 14.1 17.51 14.7181 16.3719 15.3431C15.3389 14.3073 14.306 13.2712 13.2731 12.235C13.2075 12.1694 13.1469 12.0987 13.0837 12.03Z" fill="#FECD00"/>
<path d="M4.0206 2.9444C4.36685 3.2794 4.7031 3.62315 5.0356 3.97252C5.6606 4.63065 6.31623 5.26253 6.9581 5.90628C8.60248 7.55378 10.2519 9.19628 11.885 10.8544C12.2725 11.2469 12.6481 11.6507 13.0506 12.0288C12.7012 12.3925 12.36 12.7644 11.975 13.0913C11.85 13.0638 11.7837 12.9613 11.7025 12.88C9.08039 10.2604 6.45977 7.63982 3.8406 5.01815C3.73185 4.90877 3.59685 4.82252 3.5181 4.6844C3.50498 4.26502 3.46748 3.84252 3.65623 3.44627C3.74998 3.2569 3.84373 3.0694 4.0206 2.9444Z" fill="#00C6FE"/>
<path d="M3.51807 4.6825C3.60239 4.72197 3.679 4.77615 3.74432 4.84249C6.46307 7.56249 9.18182 10.2817 11.9006 13C11.9269 13.0285 11.9517 13.0583 11.9749 13.0894C11.5624 13.4931 11.2012 13.9444 10.7624 14.3194C10.6518 14.2444 10.5749 14.1356 10.4806 14.0425C8.2689 11.8342 6.05765 9.62332 3.84682 7.40999C3.74244 7.30499 3.62994 7.20999 3.51807 7.11437V4.6825Z" fill="#00C9FE"/>
<path d="M3.51807 7.11313C3.62682 7.0975 3.68744 7.17188 3.75369 7.23813L10.6418 14.1263C10.6968 14.1806 10.7618 14.2294 10.7624 14.3181C10.4499 14.6556 10.1374 14.9956 9.77744 15.2906C9.68807 15.2706 9.63182 15.2044 9.57119 15.1444C7.58869 13.1631 5.60661 11.1819 3.62494 9.20063C3.58619 9.16188 3.55494 9.11688 3.51807 9.07563V7.11313Z" fill="#00CDFE"/>
<path d="M3.51807 9.0769C3.59744 9.0769 3.64307 9.1394 3.68994 9.18565C5.70077 11.1957 7.71119 13.2061 9.72119 15.2169C9.74166 15.2401 9.76046 15.2648 9.77744 15.2907C9.41619 15.6494 9.09869 16.0519 8.70682 16.3807C8.31619 16.0013 7.93494 15.6119 7.54994 15.2269C6.27619 13.9552 5.00327 12.683 3.73119 11.41C3.64191 11.3343 3.56934 11.2409 3.51807 11.1357V9.0769Z" fill="#00D0FE"/>
<path d="M3.51807 11.1356C3.57557 11.1875 3.63557 11.2362 3.69057 11.2906C5.30682 12.906 6.92286 14.5223 8.53869 16.1394C8.60807 16.2088 8.70182 16.2644 8.70682 16.3806C8.34807 16.7706 7.97369 17.1444 7.58619 17.5056C7.50494 17.4875 7.45557 17.4244 7.39869 17.37C6.14119 16.1125 4.88328 14.8546 3.62494 13.5963C3.58619 13.5575 3.55557 13.5125 3.51869 13.4713L3.51807 11.1356Z" fill="#00D4FE"/>
<path d="M3.51812 13.4731C3.5975 13.4731 3.64312 13.5356 3.69 13.5812C4.96125 14.8525 6.23208 16.1233 7.5025 17.3937C7.53282 17.4286 7.5606 17.4655 7.58562 17.5044C7.28812 17.8306 6.97812 18.1444 6.65187 18.4419C6.578 18.414 6.51315 18.3665 6.46437 18.3044C5.49625 17.3456 4.54562 16.3669 3.56625 15.4206C3.54534 15.3974 3.52825 15.371 3.51562 15.3425L3.51812 13.4731Z" fill="#00D7FE"/>
<path d="M3.51823 15.3444C3.59163 15.3871 3.66126 15.436 3.72636 15.4906C4.67552 16.436 5.62323 17.3831 6.56948 18.3318C6.59996 18.367 6.62775 18.4044 6.65261 18.4437C6.27761 18.845 5.89573 19.2337 5.49448 19.6062C5.36948 19.6387 5.31386 19.5356 5.24448 19.4687C4.80823 19.0383 4.37427 18.6052 3.94261 18.1693C3.80831 18.0297 3.66599 17.898 3.51636 17.775L3.51823 15.3444Z" fill="#00DAFE"/>
<path d="M3.51801 17.775C3.63739 17.7581 3.69864 17.8456 3.76801 17.9163C4.27801 18.4258 4.78801 18.9354 5.29801 19.445C5.36051 19.5075 5.40864 19.5756 5.49301 19.6063C5.00301 20.1063 4.5128 20.6046 4.02239 21.1013C3.86695 20.9708 3.74144 20.8083 3.65441 20.625C3.56737 20.4416 3.52085 20.2417 3.51801 20.0388C3.49989 19.2844 3.51614 18.5294 3.51801 17.775Z" fill="#00DEFE"/>
</g>
<defs>
<clipPath id="clip0_65_1473">
<rect width="24" height="24" fill="white"/>
</clipPath>
</defs>
</svg>
