<svg width="60" height="60" viewBox="0 0 60 60" fill="none" xmlns="http://www.w3.org/2000/svg">
<path d="M30 57.5213H29.9999C29.7907 57.5212 29.5854 57.4652 29.4052 57.359C29.225 57.2529 29.0765 57.1004 28.9751 56.9175C27.7923 54.7834 25.9731 51.8896 23.8667 48.5386C18.0091 39.2202 10.7192 27.6232 10.7192 22.1228C10.7192 11.4913 19.3685 2.84204 30 2.84204C40.6315 2.84204 49.2807 11.4913 49.2807 22.1228C49.2807 27.9088 42.4049 38.7258 36.3385 48.2694C34.2527 51.5508 32.2827 54.6501 31.0248 56.9179C30.9233 57.1007 30.7748 57.2531 30.5946 57.3592C30.4144 57.4653 30.2091 57.5212 30 57.5213ZM30 5.18579C20.6608 5.18579 13.063 12.7836 13.063 22.1228C13.063 26.9479 20.4541 38.7059 25.851 47.2913C27.4437 49.825 28.8735 52.0995 30.0012 54.0025C31.2143 51.962 32.7534 49.5407 34.3606 47.0122C39.6682 38.6624 46.9371 27.227 46.9371 22.1229C46.937 12.7836 39.339 5.18579 30 5.18579Z" fill="#1D3362"/>
<path d="M29.9999 30.7034C24.8923 30.7034 20.7368 26.5481 20.7368 21.4403C20.7368 16.3326 24.8922 12.1772 29.9999 12.1772C35.1093 12.1772 39.2659 16.3326 39.2659 21.4403C39.2659 26.5481 35.1093 30.7034 29.9999 30.7034ZM29.9999 14.521C26.1845 14.521 23.0806 17.6249 23.0806 21.4403C23.0806 25.2557 26.1845 28.3597 29.9999 28.3597C33.8168 28.3597 36.9222 25.2557 36.9222 21.4403C36.9222 17.6249 33.8168 14.521 29.9999 14.521Z" fill="#1D3362"/>
</svg>
