<svg width="45" height="45" viewBox="0 0 45 45" fill="none" xmlns="http://www.w3.org/2000/svg">
<path d="M6.41155 45C5.63737 44.6998 5.37522 44.1211 5.37795 43.3118C5.3957 38.8326 5.39024 34.3535 5.37932 29.8743C5.37932 29.514 5.45305 29.3202 5.81214 29.1441C6.2477 28.9298 6.64639 28.6009 6.9932 28.2543C12.0233 23.2428 17.0424 18.2205 22.063 13.1981C22.1858 13.0739 22.2828 12.9238 22.3647 12.8201C27.2104 17.665 32.0002 22.454 36.805 27.2566C35.6977 28.1301 35.3891 29.5481 34.7064 30.7436C34.5617 30.9975 34.3555 31.2418 34.1234 31.4178C33.5991 31.815 33.0393 32.1644 32.4972 32.5383C30.1965 34.1269 30.1843 37.315 32.4726 38.9214C32.5081 38.9459 32.5436 38.9746 32.5819 38.9937C34.0524 39.7279 34.989 40.8989 35.5461 42.4384C35.968 43.6052 36.7845 44.4419 37.9915 44.8527C38.0516 44.8731 38.0926 44.9482 38.1417 44.9987H27.5941C27.5873 44.8527 27.5736 44.708 27.5736 44.562C27.5736 41.1637 27.5846 37.7668 27.5695 34.3685C27.5545 30.9429 24.6217 28.4918 21.2819 29.0909C18.8079 29.5344 17.0233 31.7235 17.0138 34.3698C17.0001 37.7681 17.0097 41.165 17.0124 44.5633C17.0124 44.708 17.0356 44.854 17.0479 44.9987H6.41155V45Z" fill="#1D3362"/>
<path d="M44.9986 22.5918C44.8403 22.7979 44.7023 23.023 44.5221 23.2059C43.4312 24.31 42.3307 25.4046 41.2315 26.5018C40.7018 27.03 40.4355 27.0314 39.9098 26.5059C34.223 20.8217 28.5376 15.1374 22.8535 9.45037C22.7306 9.32754 22.6432 9.1665 22.4684 8.9263C22.2827 9.17332 22.1926 9.32891 22.0697 9.45174C16.428 15.0978 10.7821 20.7398 5.1376 26.3831C4.50679 27.0136 4.28833 27.0123 3.65752 26.3831C2.55976 25.2858 1.46062 24.1886 0.364217 23.0899C-0.120494 22.6041 -0.12186 22.3175 0.362852 21.833C1.84293 20.3508 3.32437 18.87 4.80581 17.3906C4.89729 17.2992 4.9956 17.2146 5.09118 17.1259C5.38474 17.3961 5.64143 17.6772 5.94181 17.9024C7.91479 19.3791 10.6988 18.7404 11.8348 16.5458C12.2786 15.6887 12.6595 14.8003 13.1033 13.9432C13.2371 13.6853 13.4528 13.4451 13.6876 13.2704C14.3103 12.8077 14.9656 12.3915 15.6019 11.9479C17.6227 10.5381 17.9872 8.00508 16.4512 6.06983C16.4157 6.02479 16.3815 5.97839 16.3242 5.90196C16.4211 5.79688 16.5126 5.68906 16.6123 5.58807C18.3409 3.85753 20.0708 2.12837 21.8008 0.399199C22.3319 -0.131698 22.5913 -0.133063 23.1211 0.395104C30.2689 7.53833 37.4153 14.6815 44.559 21.8289C44.7297 22.0008 44.8539 22.2192 45 22.4157V22.5918H44.9986Z" fill="#1D3362"/>
<path d="M44.9985 36.0361C44.6912 36.3541 44.3922 36.6803 44.0727 36.986C43.9266 37.1252 43.7478 37.2412 43.5675 37.3326C42.2281 38.0137 41.3461 39.0741 40.86 40.4921C40.7139 40.9179 40.4749 41.311 40.277 41.7177C40.0571 42.168 39.6885 42.4123 39.1942 42.411C38.6999 42.411 38.334 42.1626 38.1156 41.7108C37.6718 40.7896 37.2444 39.8602 36.7761 38.9513C36.6437 38.6933 36.4279 38.4504 36.1931 38.2784C35.4981 37.768 34.7717 37.2999 34.0617 36.8099C33.1824 36.204 33.1865 35.2773 34.0658 34.6645C34.2816 34.5144 34.4864 34.3411 34.7198 34.2237C36.1508 33.5072 37.0724 32.3676 37.5926 30.8691C37.7264 30.4856 37.9353 30.1266 38.1183 29.7609C38.3395 29.3173 38.6931 29.0703 39.1997 29.0703C39.7062 29.0703 40.0612 29.3187 40.2783 29.765C40.733 30.6971 41.1686 31.6388 41.6369 32.5641C41.7488 32.7866 41.9304 32.9995 42.1312 33.1455C42.8043 33.6368 43.5225 34.0681 44.1806 34.5772C44.5015 34.8256 44.7281 35.194 44.9971 35.5079V36.0348L44.9985 36.0361Z" fill="#1D3362"/>
<path d="M19.5969 44.9999C19.616 44.8129 19.6502 44.6259 19.6502 44.4389C19.6529 41.1021 19.6488 37.7652 19.6543 34.4297C19.657 33.1086 20.367 32.0959 21.5098 31.7493C23.0677 31.2757 24.7185 32.2856 24.8714 33.9097C24.9765 35.0234 24.8919 36.1561 24.8919 37.353C24.5178 37.353 24.1314 37.3503 23.7436 37.353C22.8834 37.3599 22.3018 37.888 22.2977 38.6632C22.2936 39.4411 22.8766 39.9829 23.7286 39.9911C24.1082 39.9952 24.4877 39.9911 24.9588 39.9911V44.9999H19.5969Z" fill="#1D3362"/>
<path d="M14.7595 8.62461C14.739 9.10092 14.5315 9.48032 14.126 9.75601C13.2548 10.3483 12.381 10.9365 11.5235 11.548C11.3324 11.6844 11.1644 11.8891 11.0593 12.098C10.5555 13.1038 10.0653 14.1178 9.59151 15.1387C9.33345 15.6941 8.94159 16.0531 8.31897 16.0558C7.69636 16.0599 7.29767 15.701 7.03961 15.1482C6.55626 14.1165 6.06336 13.0874 5.55544 12.0666C5.45713 11.8687 5.29601 11.6749 5.11578 11.548C4.28017 10.9556 3.4268 10.3893 2.58299 9.80787C1.61494 9.1405 1.6204 8.11282 2.59392 7.44272C3.34078 6.9282 4.08082 6.4014 4.84271 5.91008C5.23867 5.65487 5.51584 5.34233 5.70972 4.9097C6.13299 3.96255 6.60132 3.03587 7.04371 2.0969C7.30313 1.54826 7.69636 1.19752 8.3299 1.20571C8.94159 1.2139 9.3239 1.55236 9.57649 2.08871C10.0626 3.12048 10.5527 4.14952 11.0634 5.16901C11.1685 5.37918 11.3419 5.5798 11.5331 5.71492C12.3796 6.31815 13.2412 6.89681 14.1014 7.48093C14.5042 7.75389 14.7308 8.12238 14.7595 8.62188V8.62461Z" fill="#1D3362"/>
<path d="M30.0067 3.41399C30.1651 3.40444 30.3235 3.38669 30.4819 3.38669C32.063 3.38533 33.6441 3.3826 35.2252 3.38669C36.3094 3.38942 36.8104 3.89439 36.8118 4.97256C36.8132 6.71401 36.8118 8.4541 36.8118 10.0809C34.6108 7.87816 32.3593 5.62629 30.1064 3.37305C30.0723 3.38669 30.0395 3.40034 30.0054 3.41399H30.0067Z" fill="#1D3362"/>
</svg>
