<svg width="45" height="45" viewBox="0 0 45 45" fill="none" xmlns="http://www.w3.org/2000/svg">
<path d="M34.3642 0C34.3506 0.173445 34.3233 0.346889 34.3233 0.520334C34.3206 2.94992 34.3219 5.38088 34.3219 7.81047V8.36085H11.4248V0C14.7062 0 17.9875 0 21.2689 0C21.1337 0.181639 21 0.363278 20.9099 0.48346C22.9382 2.51153 24.957 4.53278 26.9607 6.53627C27.2665 6.23991 27.6104 5.90804 27.9749 5.55706C27.8548 5.43141 27.7483 5.31396 27.6364 5.20197C26.0244 3.58908 24.4124 1.97618 22.8017 0.361912C22.6911 0.25129 22.5997 0.121548 22.4987 0C26.4543 0 30.4086 0 34.3642 0V0ZM21.7834 5.60759C20.7993 4.62018 19.7933 3.61093 18.8188 2.63308C18.5076 2.92944 18.1622 3.25857 17.8524 3.55357C18.8597 4.56009 19.8589 5.55842 20.8621 6.56085C21.1651 6.24674 21.4982 5.90122 21.7821 5.60759H21.7834Z" fill="#1D3362"/>
<path d="M44.9997 19.4313C44.7117 20.0827 44.2967 20.5744 43.5133 20.5894C42.7161 20.6044 42.0855 20.0663 41.9627 19.2674C41.8562 18.5722 42.3121 17.8498 43.0014 17.6258C43.7276 17.3882 44.5029 17.7228 44.8468 18.4206C44.8973 18.5231 44.9492 18.6255 44.9997 18.7293V19.4326V19.4313Z" fill="#1D3362"/>
<path d="M35.8739 8.39086V3.84033H43.4494V15.9664C41.3365 16.5223 40.4233 17.4673 40.4274 19.0898C40.4315 20.6849 41.3488 21.6273 43.4549 22.1831V43.4663H25.1973C25.1973 38.3995 25.1973 33.3369 25.1973 28.2755C26.382 27.9532 26.7014 27.5271 26.7014 26.2734C26.7014 24.5595 26.7014 22.8441 26.7014 21.1302V20.5975C26.913 20.5975 27.0836 20.5975 27.2543 20.5975C29.5105 20.5975 31.7654 20.5975 34.0217 20.5975C35.287 20.5975 35.8494 20.0349 35.8507 18.7798C35.8507 18.3878 35.8507 17.9959 35.8507 17.5575C36.7721 17.5575 37.647 17.5575 38.522 17.5575C39.8705 17.5575 40.4247 17.0085 40.4247 15.6728C40.4247 13.8264 40.4261 11.9799 40.4247 10.1335C40.4247 8.99997 39.8268 8.39906 38.6912 8.3936C37.7685 8.38813 36.8472 8.3936 35.8726 8.3936L35.8739 8.39086ZM27.4726 29.7833C27.4631 29.9362 27.4522 30.0373 27.4522 30.1397C27.4522 32.7633 27.4508 35.3854 27.4535 38.0089C27.4535 38.2124 27.474 38.42 27.5109 38.6208C27.7361 39.8226 28.9823 40.6475 30.1794 40.3921C31.3259 40.1476 32.0207 39.2667 32.0261 38.0062C32.0357 36.1161 32.0289 34.2259 32.0289 32.3358C32.0289 29.771 32.0275 27.2076 32.0302 24.6428C32.0302 24.0104 32.3032 23.6636 32.7823 23.6567C33.2723 23.6499 33.559 24.0186 33.5617 24.6646C33.5631 25.2942 33.5562 25.9252 33.5644 26.5548C33.5699 27.0232 33.5317 27.5026 33.6218 27.9546C33.8565 29.1291 34.9171 29.8543 36.1278 29.73C37.2416 29.6153 38.1179 28.6552 38.1302 27.4793C38.148 25.8965 38.1357 24.3136 38.1357 22.7321C38.1357 22.5464 38.1357 22.3607 38.1357 22.1626H36.6097C36.6097 22.347 36.6097 22.5041 36.6097 22.6625C36.6097 24.1566 36.6124 25.652 36.6069 27.1461C36.6069 27.3496 36.6069 27.5667 36.5359 27.7511C36.4008 28.1062 36.1087 28.2619 35.7293 28.2155C35.3471 28.169 35.0836 27.8508 35.0782 27.4015C35.0659 26.3758 35.0891 25.3502 35.0659 24.3246C35.04 23.12 34.0654 22.1681 32.8656 22.1381C31.5156 22.1039 30.5028 23.1173 30.5015 24.528C30.496 28.9393 30.5001 33.3491 30.4987 37.7604C30.4987 37.9215 30.5083 38.084 30.4892 38.2438C30.4414 38.6331 30.1193 38.9103 29.7385 38.9089C29.3563 38.9076 29.041 38.6262 28.9959 38.237C28.9796 38.0922 28.9864 37.9447 28.9864 37.7972C28.9864 35.2912 28.9864 32.7865 28.9864 30.2804C28.9864 30.1233 28.9864 29.9677 28.9864 29.7846H27.4699L27.4726 29.7833ZM37.3713 31.3115C37.3713 32.6554 37.3317 33.946 37.3822 35.2311C37.4286 36.4193 38.4005 37.3343 39.5416 37.3739C40.8765 37.4203 41.9275 36.4548 41.933 35.1136C41.948 31.3771 41.9384 27.6405 41.9384 23.9039C41.9384 23.8343 41.9262 23.7646 41.918 23.684H40.4247V24.2453C40.4247 27.7771 40.4247 31.3088 40.4247 34.8391C40.4247 35.4878 40.1422 35.8593 39.6562 35.8579C39.1703 35.8552 38.9055 35.4974 38.9028 34.8309C38.9 34.215 38.9028 33.6004 38.9028 32.9845C38.9028 32.4314 38.9028 31.8783 38.9028 31.3101H37.3727L37.3713 31.3115Z" fill="#1D3362"/>
<path d="M20.5673 43.4799H2.35064C2.18685 42.7533 2.21005 42.7301 2.82701 42.4174C3.9763 41.8328 4.59463 40.8891 4.56187 39.5945C4.52911 38.3189 3.86984 37.4216 2.72055 36.8835C2.58814 36.8221 2.44892 36.7756 2.3015 36.7183V14.2415C3.31157 14.5747 4.31208 14.5843 5.34672 14.2319C5.34672 14.8233 5.34262 15.3627 5.34672 15.9022C5.35491 16.9278 5.95412 17.5369 6.98603 17.5533C7.79135 17.5656 8.59668 17.5561 9.40336 17.5561C9.56033 17.5561 9.71594 17.5561 9.92068 17.5561C9.92068 18.0149 9.92068 18.4219 9.92068 18.8289C9.92341 20.0335 10.4844 20.5948 11.7006 20.5961C13.9855 20.5989 16.2705 20.5961 18.5554 20.5961C18.7124 20.5961 18.8693 20.5961 19.07 20.5961C19.07 20.9075 19.07 21.167 19.07 21.4278C19.07 23.0544 19.07 24.681 19.07 26.3075C19.07 27.5325 19.3894 27.9573 20.5687 28.2823V43.4813L20.5673 43.4799ZM17.5467 29.7846C17.5467 30.0127 17.5467 30.1861 17.5467 30.3609C17.5467 32.8369 17.5467 35.313 17.5453 37.789C17.5453 37.9638 17.5453 38.1427 17.5085 38.3121C17.4279 38.6917 17.1686 38.8939 16.7905 38.9007C16.4124 38.9075 16.1449 38.7095 16.0534 38.3353C16.0084 38.1536 16.0111 37.9583 16.0111 37.7699C16.0084 33.4187 16.0111 29.0662 16.007 24.7151C16.007 24.4379 16.007 24.1524 15.9442 23.8861C15.6699 22.7321 14.6489 22.0342 13.445 22.1503C12.3421 22.2568 11.4631 23.2292 11.4385 24.401C11.4194 25.3679 11.4358 26.3348 11.4317 27.3017C11.429 27.889 11.145 28.2277 10.6687 28.2236C10.1937 28.2195 9.92205 27.8849 9.92068 27.2867C9.91795 25.7339 9.92068 24.1811 9.92068 22.6269C9.92068 22.4726 9.92068 22.3169 9.92068 22.164H8.38647C8.38647 22.6174 8.38511 23.0407 8.38647 23.4627C8.39466 24.8831 8.34143 26.3089 8.43015 27.7237C8.52024 29.1673 10.0039 30.0809 11.3785 29.6371C12.3612 29.3189 12.9495 28.4858 12.9645 27.355C12.9782 26.3731 12.9591 25.3911 12.9795 24.4105C12.9891 23.9503 13.3126 23.6539 13.7275 23.6526C14.1357 23.6526 14.4523 23.9626 14.4906 24.4064C14.5015 24.5376 14.4946 24.67 14.4946 24.8025C14.4946 29.1987 14.4974 33.5935 14.4906 37.9898C14.4906 38.6002 14.6339 39.1479 15.0311 39.6177C15.6603 40.3593 16.6322 40.6228 17.5358 40.3019C18.4503 39.9769 19.0604 39.1479 19.0631 38.1536C19.0741 35.4427 19.0672 32.7318 19.0659 30.0222C19.0659 29.9512 19.0522 29.8802 19.0427 29.7819H17.5453L17.5467 29.7846ZM4.57142 23.6676C4.57142 24.9773 4.57142 26.2488 4.57142 27.5203C4.57142 30.04 4.56323 32.5611 4.57552 35.0808C4.58234 36.3796 5.58968 37.3752 6.85636 37.3766C8.13123 37.3779 9.12218 36.3905 9.14402 35.0917C9.15221 34.5932 9.14539 34.0948 9.14539 33.5976C9.14539 32.841 9.14539 32.0831 9.14539 31.3155H7.63165C7.63165 32.4668 7.63165 33.5922 7.63165 34.7175C7.63165 35.485 7.36958 35.8674 6.8509 35.8593C6.34587 35.8511 6.09471 35.4823 6.09471 34.738C6.09471 31.2213 6.09471 27.7046 6.09471 24.1893V23.6662H4.57142V23.6676Z" fill="#1D3362"/>
<path d="M9.92062 15.9992H6.8877V9.95459H38.8768V15.9924H35.852C35.852 15.569 35.8534 15.1374 35.852 14.7045C35.8479 13.5887 35.2583 12.9769 34.154 12.9769C26.6413 12.9728 19.1272 12.9742 11.6145 12.9769C10.5035 12.9769 9.92472 13.5751 9.92062 14.6977C9.91926 15.1197 9.92062 15.5403 9.92062 15.9992Z" fill="#1D3362"/>
<path d="M34.2949 14.5378V19.0583H26.7016C26.7016 18.6199 26.703 18.187 26.7016 17.7554C26.6948 16.6315 26.0833 16.021 24.9586 16.0196C23.5677 16.0169 22.1768 16.0169 20.7859 16.0196C19.6803 16.021 19.0743 16.6274 19.0702 17.7295C19.0688 18.1542 19.0702 18.579 19.0702 19.0392H11.4619V14.5378H34.2949Z" fill="#1D3362"/>
<path d="M20.6191 17.5808H25.129V23.6309H20.6191V17.5808Z" fill="#1D3362"/>
<path d="M23.6071 44.9999H22.1548V28.2632H23.6071V44.9999Z" fill="#1D3362"/>
<path d="M6.43164 8.44954C5.48573 8.7937 5.28644 9.5462 5.33968 10.4558C5.37244 11.0239 5.32739 11.5975 5.35333 12.167C5.36698 12.4634 5.27006 12.6245 4.99844 12.7269C3.84642 13.164 2.7722 13.0301 1.83584 12.2285C0.899479 11.4268 0.570525 10.3779 0.86672 9.18156C1.16428 7.98247 1.95595 7.22724 3.15438 6.95C4.48658 6.64135 5.86791 7.28186 6.43028 8.44954H6.43164Z" fill="#1D3362"/>
<path d="M2.30127 5.55429V3.84033H9.89861V8.38813C9.3458 8.38813 8.81074 8.39769 8.27704 8.37857C8.19241 8.37584 8.08185 8.26658 8.03544 8.17918C6.7442 5.77554 5.05165 4.9807 2.42821 5.55429C2.40091 5.55976 2.37088 5.55429 2.30127 5.55429Z" fill="#1D3362"/>
<path d="M0.000160758 39.6548C0.0110804 38.808 0.712667 38.1388 1.56713 38.1566C2.39293 38.1743 3.06994 38.8763 3.05356 39.6971C3.03718 40.5206 2.34515 41.2021 1.52345 41.2035C0.681273 41.2035 -0.0121238 40.5001 0.000160758 39.6534V39.6548Z" fill="#1D3362"/>
<path d="M20.6123 25.1987H25.1385V26.6833H20.6123V25.1987Z" fill="#1D3362"/>
</svg>
