<svg width="91" height="76" viewBox="0 0 91 76" fill="none" xmlns="http://www.w3.org/2000/svg">
<g clip-path="url(#clip0_4188_14129)">
<path d="M64.9132 38.5934C64.5259 38.5964 64.1465 38.485 63.8234 38.2735C63.5003 38.062 63.2482 37.7599 63.0992 37.4059L51.1058 6.82781C50.9337 6.29899 50.8328 5.74996 50.806 5.19499C50.7834 4.25607 51.0613 3.33414 51.5998 2.561C52.1383 1.78786 52.9099 1.2031 53.8043 0.890308C54.3848 0.657546 55.0088 0.550373 55.6345 0.575974C56.2603 0.601576 56.8732 0.759323 57.4323 1.03871C57.9877 1.276 58.4891 1.62178 58.9064 2.05537C59.3237 2.48895 59.6484 3.00145 59.861 3.56216L71.9743 33.9919C72.124 34.448 72.098 34.9428 71.9016 35.3812C71.7051 35.8196 71.3519 36.1706 70.9099 36.3669C70.447 36.521 69.9428 36.5001 69.4944 36.3082C69.0461 36.1164 68.6852 35.7672 68.4812 35.3278L56.4878 4.74965C56.4315 4.63305 56.3476 4.5317 56.2432 4.45416C56.1388 4.37662 56.017 4.32522 55.8882 4.30435C55.6392 4.22781 55.3726 4.22781 55.1236 4.30435C54.9494 4.38221 54.8007 4.507 54.6947 4.66448C54.5887 4.82197 54.5295 5.0058 54.5239 5.19499V5.49183L66.5173 36.07C66.6704 36.526 66.6462 37.0222 66.4493 37.4614C66.2525 37.9007 65.8972 38.2514 65.4529 38.445C65.4079 38.445 65.1081 38.5934 64.9132 38.5934Z" fill="#0B93E2"/>
<path d="M58.7508 56.4063C58.4869 56.4289 58.2219 56.3775 57.9862 56.2578C57.533 56.0317 57.1652 55.6674 56.9368 55.2187C55.5364 51.5787 55.4652 47.5686 56.7355 43.8821C58.0058 40.1956 60.5376 37.0647 63.893 35.0313C64.7754 34.4386 65.7468 33.9877 66.7714 33.6953C67.8358 33.3984 68.7353 33.1016 69.7698 32.8047C70.7606 32.6338 71.7627 32.5346 72.7681 32.5078C76.1528 32.5294 79.4609 33.5079 82.3029 35.3281C85.2063 37.2215 87.431 39.9751 88.6594 43.1953C88.8135 43.6496 88.7914 44.1443 88.5974 44.5833C88.4035 45.0223 88.0515 45.3741 87.61 45.5703L59.4404 56.2578C59.2279 56.367 58.9899 56.4182 58.7508 56.4063ZM72.978 36.3672C72.2203 36.3427 71.462 36.3924 70.7142 36.5156C69.8884 36.6415 69.0756 36.8402 68.2856 37.1094C67.5036 37.394 66.7465 37.7415 66.0218 38.1484C63.6918 39.575 61.8701 41.6866 60.8111 44.1882C59.7521 46.6897 59.5088 49.4564 60.1151 52.1016L84.6416 42.8984C83.4195 40.917 81.7068 39.2772 79.6657 38.1343C77.6247 36.9914 75.3228 36.3831 72.978 36.3672Z" fill="#0B93E2"/>
<path d="M70.3996 76.0002C70.1396 76.0276 69.877 75.9872 69.6377 75.883C69.3984 75.7789 69.1907 75.6146 69.0353 75.4064C68.809 75.1148 68.6625 74.7704 68.61 74.4064C68.5575 74.0423 68.6007 73.671 68.7355 73.3283C72.9782 65.3127 61.2396 54.9221 61.0147 54.7736C60.8269 54.6085 60.6739 54.4081 60.5646 54.1842C60.4553 53.9602 60.3919 53.717 60.3779 53.4686C60.364 53.2202 60.3998 52.9716 60.4834 52.737C60.567 52.5024 60.6966 52.2865 60.8648 52.1018C61.207 51.7242 61.6865 51.4966 62.1981 51.4687C62.7096 51.4409 63.2114 51.6152 63.5933 51.9533C64.0431 52.3986 74.6423 61.6018 73.4279 71.1018L74.3424 70.8049C74.6423 70.6564 74.7922 70.6565 75.092 70.508C77.7856 69.3228 80.0948 67.4217 81.7633 65.0158C87.2053 56.8518 82.0632 46.3127 82.0632 46.3127C81.8595 45.8562 81.8408 45.3397 82.011 44.87C82.1812 44.4003 82.5273 44.0134 82.9777 43.7893C83.4396 43.5894 83.9607 43.5701 84.4364 43.7354C84.912 43.9006 85.3068 44.2381 85.5413 44.6799C85.8561 45.1252 91.538 57.1486 85.0915 67.0939C83.0547 70.129 80.1611 72.5036 76.7711 73.9221C76.4732 74.0409 76.1677 74.1401 75.8566 74.219L71.3591 76.0002C70.9093 75.8517 70.7144 76.0002 70.3996 76.0002Z" fill="#0B93E2"/>
<path d="M75.7063 73.9219C75.2587 73.9338 74.8237 73.7743 74.492 73.4766C74.1193 73.1455 73.8828 72.6901 73.8275 72.1973C73.7722 71.7045 73.902 71.2088 74.1921 70.8047C77.97 66.6485 72.9778 59.8204 72.8279 59.6719C72.6796 59.4808 72.5731 59.2612 72.5152 59.0271C72.4573 58.793 72.4492 58.5495 72.4915 58.3122C72.5338 58.0748 72.6256 57.8488 72.7609 57.6484C72.8962 57.4481 73.0722 57.2779 73.2776 57.1485C73.6643 56.8624 74.147 56.7337 74.6266 56.7889C75.1061 56.8441 75.5461 57.079 75.8562 57.4454C76.9552 59.0729 77.8702 60.8152 78.5847 62.6407C79.949 66.7969 79.4842 70.5079 76.9206 73.1798C76.7707 73.7735 76.3059 73.9219 75.7063 73.9219Z" fill="#0B93E2"/>
<path d="M25.9349 38.5939C25.7235 38.6161 25.5111 38.5635 25.3352 38.4455C25.1043 38.3634 24.8926 38.2359 24.7129 38.0705C24.5333 37.9052 24.3893 37.7055 24.2898 37.4834C24.1903 37.2614 24.1373 37.0218 24.134 36.7789C24.1308 36.536 24.1773 36.295 24.2708 36.0705L36.2642 5.49233V5.19549C36.2586 5.0063 36.1994 4.82246 36.0934 4.66498C35.9874 4.5075 35.8388 4.38271 35.6645 4.30485C35.4155 4.22831 35.1489 4.22831 34.8999 4.30485C34.75 4.30485 34.6001 4.45327 34.4502 4.75015L22.4568 35.3283C22.3675 35.5554 22.2336 35.7627 22.0628 35.9381C21.892 36.1135 21.6877 36.2537 21.4617 36.3503C21.2358 36.447 20.9928 36.4983 20.7467 36.5012C20.5005 36.5041 20.2563 36.4586 20.0281 36.3674C19.7985 36.2838 19.5884 36.1552 19.4103 35.9892C19.2323 35.8232 19.09 35.6232 18.9919 35.4014C18.8939 35.1795 18.8422 34.9404 18.8399 34.6982C18.8376 34.4561 18.8848 34.216 18.9787 33.9924L30.9721 3.41422C31.1847 2.85351 31.5094 2.34105 31.9267 1.90747C32.344 1.47388 32.8454 1.1281 33.4008 0.890808C34.55 0.399278 35.8424 0.346392 37.0288 0.742361C37.9072 1.07904 38.6629 1.66964 39.1976 2.43738C39.7324 3.20512 40.0214 4.11444 40.0271 5.04704C40.0139 5.60347 39.9127 6.15443 39.7273 6.67986L27.7339 37.258C27.5929 37.6267 27.3489 37.9481 27.0303 38.1846C26.7118 38.4212 26.3318 38.5631 25.9349 38.5939Z" fill="#0B93E2"/>
<path d="M32.0957 56.4059C31.7958 56.4059 31.6459 56.4058 31.496 56.2574L3.17656 45.7183C2.94701 45.6348 2.73688 45.5062 2.55881 45.3402C2.38074 45.1742 2.2384 44.9743 2.14037 44.7524C2.04234 44.5306 1.99064 44.2914 1.98836 44.0492C1.98608 43.8071 2.03328 43.567 2.12712 43.3433C3.35545 40.1231 5.58023 37.3696 8.48364 35.4762C11.3043 33.6105 14.6264 32.6278 18.0184 32.6559C19.0238 32.6826 20.0259 32.7818 21.0168 32.9527C22.0568 33.094 23.0683 33.3945 24.0151 33.8433C25.0148 34.1983 25.9785 34.6455 26.8935 35.1793C30.2576 37.2045 32.7968 40.3349 34.0681 44.0243C35.3394 47.7137 35.2621 51.728 33.8497 55.3668C33.7586 55.6034 33.6181 55.8184 33.4372 55.9974C33.2564 56.1765 33.0393 56.3157 32.8003 56.4059H32.0957ZM6.35481 43.0465L30.8813 52.2496C31.4868 49.606 31.2446 46.8413 30.1886 44.3403C29.1325 41.8394 27.3152 39.7267 24.9896 38.2965C24.2597 37.8894 23.4976 37.542 22.7108 37.2574C21.9306 36.9728 21.1212 36.7736 20.2972 36.6636C19.5443 36.5404 18.7811 36.4907 18.0184 36.5152C15.6547 36.4309 13.3136 36.9965 11.2547 38.1494C9.19593 39.3023 7.4999 40.9973 6.35481 43.0465Z" fill="#0B93E2"/>
<path d="M20.4481 76.0002C20.2321 76.0222 20.015 75.9698 19.8335 75.8518L15.1411 74.0705C14.8676 73.9059 14.5601 73.8044 14.2416 73.7736C10.8446 72.36 7.94491 69.9846 5.90614 66.9455C-0.600282 57.0002 5.15655 44.9768 5.45639 44.5315C5.69086 44.0897 6.08564 43.7522 6.56128 43.5869C7.03691 43.4217 7.55811 43.441 8.01999 43.6408C8.47842 43.8563 8.832 44.2427 9.00339 44.7156C9.17477 45.1885 9.15 45.7094 8.93449 46.1643C8.93449 46.3127 3.79231 56.7033 9.23432 64.8674C10.8308 67.3372 13.1617 69.2561 15.9056 70.3596C16.0556 70.508 16.3554 70.508 16.6552 70.6565L17.5697 70.9533C16.3554 61.6018 26.8047 52.2502 27.4043 51.8049C27.7879 51.4704 28.2889 51.2986 28.7993 51.3264C29.3096 51.3541 29.7886 51.5793 30.1328 51.9533C30.3011 52.1381 30.4307 52.354 30.5142 52.5886C30.5978 52.8232 30.6337 53.0718 30.6197 53.3202C30.6058 53.5685 30.5424 53.8117 30.4331 54.0357C30.3238 54.2597 30.1708 54.46 29.9829 54.6252C29.833 54.7736 17.9895 65.1643 22.2622 73.1799C22.4386 73.5137 22.5046 73.8939 22.4508 74.2669C22.397 74.6398 22.2261 74.9865 21.9623 75.258C21.562 75.6747 21.0256 75.9377 20.4481 76.0002Z" fill="#0B93E2"/>
<path d="M15.14 73.9217C14.8815 73.9357 14.6233 73.8892 14.3863 73.7861C14.1493 73.6829 13.9401 73.526 13.7758 73.3279C12.5622 71.8842 11.7666 70.1417 11.4736 68.2859C11.1806 66.4301 11.4011 64.5304 12.1117 62.7888C12.8262 60.9633 13.7412 59.2211 14.8402 57.5935C14.988 57.3812 15.1801 57.2028 15.4037 57.0706C15.6273 56.9383 15.877 56.8553 16.1359 56.8271C16.3947 56.799 16.6567 56.8264 16.9039 56.9074C17.1512 56.9884 17.3779 57.1212 17.5687 57.2967C17.7792 57.4246 17.9576 57.5981 18.0906 57.8042C18.2236 58.0103 18.3077 58.2435 18.3365 58.4864C18.3654 58.7293 18.3383 58.9755 18.2572 59.2065C18.1762 59.4375 18.0433 59.6473 17.8685 59.8201C17.7186 59.9685 12.7264 66.6482 16.5043 70.9529C16.81 71.3408 16.9633 71.8254 16.9357 72.3167C16.9082 72.808 16.7016 73.2728 16.3544 73.6248C15.9763 73.8102 15.5618 73.9115 15.14 73.9217Z" fill="#0B93E2"/>
<path d="M70.399 76.0005H20.4464C19.9227 76.0045 19.4184 75.8044 19.0425 75.4433C18.6666 75.0822 18.4493 74.5892 18.4375 74.0708C18.4492 73.5575 18.6624 73.069 19.0318 72.7087C19.4013 72.3484 19.8979 72.1449 20.4164 72.1411H70.369C70.6308 72.1352 70.8913 72.1804 71.1355 72.2742C71.3797 72.368 71.6028 72.5085 71.7922 72.6877C71.9815 72.8669 72.1334 73.0813 72.239 73.3186C72.3446 73.5559 72.402 73.8115 72.4078 74.0708C72.396 74.5892 72.1787 75.0822 71.8028 75.4433C71.4269 75.8044 70.9227 76.0045 70.399 76.0005Z" fill="#0B93E2"/>
<path d="M51.1798 63.2344H36.0382C35.5223 63.2268 35.0294 63.0216 34.6632 62.6617C34.2969 62.3019 34.0858 61.8154 34.0742 61.3047C34.0858 60.7939 34.2969 60.3075 34.6632 59.9477C35.0294 59.5878 35.5223 59.3826 36.0382 59.375H51.1798C51.6957 59.3826 52.1886 59.5878 52.5548 59.9477C52.9211 60.3075 53.1322 60.7939 53.1438 61.3047C53.083 61.798 52.8562 62.2568 52.4999 62.6068C52.1436 62.9569 51.6786 63.178 51.1798 63.2344Z" fill="#0B93E2"/>
<path d="M64.3424 68.7266H54.8077C54.2918 68.719 53.7989 68.5137 53.4327 68.1539C53.0664 67.794 52.8553 67.3076 52.8438 66.7969C52.8553 66.2862 53.0664 65.7997 53.4327 65.4399C53.7989 65.08 54.2918 64.8747 54.8077 64.8672H64.3424C64.861 64.8709 65.3576 65.0745 65.7271 65.4348C66.0965 65.795 66.3097 66.2836 66.3214 66.7969C66.3277 67.0546 66.2806 67.3108 66.183 67.5497C66.0854 67.7886 65.9394 68.0052 65.7539 68.1861C65.5685 68.3669 65.3475 68.5082 65.1048 68.6011C64.862 68.6941 64.6025 68.7368 64.3424 68.7266Z" fill="#0B93E2"/>
<path d="M85.2413 18.7031H64.3428C63.8269 18.6956 63.3341 18.4903 62.9678 18.1305C62.6016 17.7706 62.3905 17.2842 62.3789 16.7734C62.3905 16.2627 62.6016 15.7763 62.9678 15.4164C63.3341 15.0566 63.8269 14.8513 64.3428 14.8438H85.2413C85.7573 14.8513 86.2501 15.0566 86.6164 15.4164C86.9826 15.7763 87.1937 16.2627 87.2053 16.7734C87.1471 17.2678 86.9211 17.7279 86.5643 18.0785C86.2075 18.4291 85.7411 18.6493 85.2413 18.7031Z" fill="#0B93E2"/>
<path d="M79.4846 11.2812H68.1358C67.6423 11.283 67.1662 11.1007 66.8023 10.7706C66.4384 10.4405 66.2133 9.9869 66.1719 9.49998C66.1835 8.98924 66.3946 8.50284 66.7608 8.14299C67.127 7.78314 67.6199 7.57787 68.1358 7.57031H79.4846C80.0031 7.57404 80.4997 7.77762 80.8692 8.13787C81.2386 8.49812 81.4518 8.9867 81.4635 9.49998C81.4185 9.98818 81.1903 10.4419 80.8239 10.7717C80.4576 11.1014 79.9797 11.2833 79.4846 11.2812Z" fill="#0B93E2"/>
<path d="M89.0353 3.85938H73.9086C73.3901 3.85565 72.8934 3.65204 72.524 3.29178C72.1545 2.93153 71.9414 2.44295 71.9297 1.92967C71.9414 1.41639 72.1545 0.927812 72.524 0.567558C72.8934 0.207303 73.3901 0.00372991 73.9086 0H89.0503C89.5662 0.00755354 90.059 0.212823 90.4253 0.572677C90.7915 0.93253 91.0026 1.41893 91.0142 1.92967C90.9528 2.42527 90.7238 2.8857 90.3645 3.23606C90.0052 3.58643 89.5367 3.80613 89.0353 3.85938Z" fill="#0B93E2"/>
<path d="M26.5055 18.7031H5.75689C5.24098 18.6956 4.74812 18.4903 4.38188 18.1305C4.01564 17.7706 3.80455 17.2842 3.79297 16.7734C3.80455 16.2627 4.01564 15.7763 4.38188 15.4164C4.74812 15.0566 5.24098 14.8513 5.75689 14.8438H26.6554C27.1713 14.8513 27.6642 15.0566 28.0304 15.4164C28.3967 15.7763 28.6077 16.2627 28.6193 16.7734C28.55 17.2888 28.3007 17.764 27.9146 18.1165C27.5285 18.4689 27.03 18.6765 26.5055 18.7031Z" fill="#0B93E2"/>
<path d="M22.7105 11.2812H11.3617C10.8666 11.2833 10.3887 11.1014 10.0224 10.7717C9.65602 10.4419 9.42782 9.98818 9.38281 9.49998C9.39449 8.9867 9.60765 8.49812 9.9771 8.13787C10.3465 7.77762 10.8432 7.57404 11.3617 7.57031H22.7105C23.2264 7.57787 23.7193 7.78314 24.0855 8.14299C24.4517 8.50284 24.6628 8.98924 24.6744 9.49998C24.633 9.9869 24.4079 10.4405 24.044 10.7706C23.6801 11.1007 23.204 11.283 22.7105 11.2812Z" fill="#0B93E2"/>
<path d="M17.1043 3.85938H1.94767C1.42916 3.85565 0.932503 3.65204 0.563058 3.29178C0.193614 2.93153 -0.0195675 2.44295 -0.03125 1.92967C-0.0195675 1.41639 0.193614 0.927812 0.563058 0.567558C0.932503 0.207303 1.42916 0.00372991 1.94767 0H17.0744C17.5929 0.00372991 18.0895 0.207303 18.459 0.567558C18.8284 0.927812 19.0416 1.41639 19.0533 1.92967C18.9932 2.42079 18.7685 2.87782 18.4152 3.22764C18.0619 3.57745 17.6004 3.79989 17.1043 3.85938Z" fill="#0B93E2"/>
</g>
<defs>
<clipPath id="clip0_4188_14129">
<rect width="91" height="76" fill="white"/>
</clipPath>
</defs>
</svg>
