<svg width="75" height="65" viewBox="0 0 75 65" fill="none" xmlns="http://www.w3.org/2000/svg">
<g clip-path="url(#clip0_4188_10153)">
<path d="M59.2036 30.1738H6.44077C4.75092 30.1599 3.13432 29.4915 1.93942 28.3129C1.33518 27.7489 0.85475 27.0686 0.527884 26.3141C0.201018 25.5595 0.0346763 24.7469 0.0391504 23.9264C0.0637904 22.3031 0.732212 20.7539 1.90115 19.6109C3.0701 18.4679 4.64653 17.8221 6.29252 17.8119H58.1524C58.512 16.6878 59.2306 15.7086 60.2009 15.0204C59.2592 14.3045 58.5477 13.335 58.1524 12.2291H6.44077C4.7935 12.2189 3.21563 11.5735 2.04453 10.4308C0.873431 9.28821 0.202056 7.73902 0.17393 6.11453C0.202056 4.49003 0.873431 2.94085 2.04453 1.79822C3.21563 0.655587 4.7935 0.0101795 6.44077 1.35885e-06H59.244C63.3164 -0.00168884 67.2267 1.57344 70.1335 4.38649C71.5541 5.78058 72.6819 7.43752 73.452 9.26231C74.2221 11.0871 74.6195 13.0439 74.6214 15.0204C74.6395 17.0199 74.2526 19.0028 73.4835 20.8528C72.7145 22.7028 71.5786 24.3828 70.1426 25.7942C68.7066 27.2056 66.9993 28.32 65.1209 29.072C63.2425 29.8241 61.2307 30.1987 59.2036 30.1738ZM6.44077 21.2679C5.68639 21.2678 4.96228 21.5606 4.42509 22.083C3.88789 22.6054 3.58077 23.3153 3.57014 24.0593C3.55866 24.4298 3.62588 24.7986 3.76746 25.142C3.90904 25.4853 4.12185 25.7957 4.39224 26.0532C4.66096 26.3163 4.98115 26.5226 5.33333 26.6598C5.68551 26.7969 6.06231 26.8619 6.44077 26.8507H59.244C62.4377 26.8509 65.5026 25.6088 67.7735 23.3939C70.0443 21.1791 71.3379 18.1702 71.3734 15.0204C71.3848 13.4611 71.0767 11.9156 70.4677 10.4766C69.8586 9.03754 68.9611 7.7347 67.8289 6.64622C66.7041 5.53808 65.367 4.6618 63.8954 4.06846C62.4238 3.47511 60.8472 3.17654 59.2575 3.19018H6.44077C5.68639 3.1901 4.96228 3.48292 4.42509 4.0053C3.88789 4.52767 3.58077 5.23762 3.57014 5.9816C3.60063 6.71914 3.91408 7.41771 4.44703 7.93595C4.97997 8.45419 5.69262 8.7534 6.44077 8.77302H59.7831C60.2492 8.77636 60.6957 8.95865 61.0278 9.28126C61.3599 9.60386 61.5516 10.0414 61.5621 10.501C61.562 10.8175 61.6257 11.1308 61.7493 11.4228C61.8729 11.7149 62.054 11.9798 62.2821 12.2023C62.5102 12.4249 62.7808 12.6005 63.0783 12.7192C63.3757 12.8379 63.6941 12.8972 64.0149 12.8937C64.4716 12.9105 64.9045 13.0988 65.2252 13.42C65.5458 13.7412 65.73 14.171 65.74 14.6217V15.5522C65.7295 16.0095 65.5398 16.4451 65.2105 16.7673C64.8813 17.0896 64.4382 17.2734 63.9745 17.2802C63.6536 17.2766 63.3353 17.3359 63.0378 17.4546C62.7404 17.5733 62.4698 17.7489 62.2417 17.9715C62.0135 18.194 61.8324 18.4589 61.7088 18.751C61.5852 19.043 61.5216 19.3563 61.5216 19.6728C61.5111 20.1324 61.3195 20.57 60.9874 20.8926C60.6553 21.2152 60.2088 21.3975 59.7427 21.4008L6.44077 21.2679Z" fill="#0B93E2"/>
<path d="M68.4363 65.0002H15.6195C11.5472 65.0019 7.63688 63.4267 4.73006 60.6137C3.30941 59.2196 2.1817 57.5627 1.41158 55.7379C0.64146 53.9131 0.244061 51.9563 0.242188 49.9797C0.251014 47.9799 0.659363 46.0014 1.44387 44.1573C2.22837 42.3132 3.37366 40.6397 4.81427 39.2324C6.25489 37.8251 7.96258 36.7116 9.83974 35.9556C11.7169 35.1996 13.7267 34.8159 15.7543 34.8264H68.571C70.2565 34.8424 71.8681 35.5107 73.0589 36.6873C73.6656 37.2501 74.1485 37.9299 74.4777 38.6845C74.8069 39.4391 74.9754 40.2523 74.9726 41.0738C74.9445 42.6983 74.2731 44.2475 73.102 45.3901C71.9309 46.5327 70.3531 47.1781 68.7058 47.1883H15.8756C15.4423 48.3895 14.5667 49.386 13.4228 49.9797C14.5385 50.6079 15.4038 51.5926 15.8756 52.7712H68.2745C69.9205 52.7814 71.497 53.4272 72.6659 54.5702C73.8348 55.7132 74.5033 57.2624 74.5279 58.8857C74.5422 59.6836 74.3952 60.4763 74.0955 61.2176C73.7958 61.9589 73.3494 62.6338 72.7823 63.203C72.2152 63.7722 71.5388 64.2243 70.7926 64.5329C70.0464 64.8414 69.2454 65.0003 68.4363 65.0002ZM15.6195 38.0166C12.4259 38.0164 9.36096 39.2585 7.09009 41.4734C4.81923 43.6882 3.52566 46.6971 3.49017 49.8468C3.47874 51.4062 3.78681 52.9517 4.39589 54.3907C5.00497 55.8297 5.90251 57.1326 7.03465 58.221C8.15988 59.3286 9.4971 60.2045 10.9686 60.7978C12.4401 61.3911 14.0164 61.69 15.6061 61.6771H68.4363C69.1894 61.6771 69.912 61.3839 70.4471 60.8611C70.9822 60.3384 71.2863 59.6284 71.2934 58.8857C71.2863 58.1429 70.9822 57.4329 70.4471 56.9102C69.912 56.3875 69.1894 56.0942 68.4363 56.0943H14.5279C14.0641 56.0875 13.6211 55.9037 13.2918 55.5814C12.9626 55.2592 12.7728 54.8236 12.7624 54.3662C12.752 53.8736 12.548 53.4042 12.1935 53.0571C11.839 52.7099 11.3617 52.5121 10.8621 52.5053C10.3984 52.4985 9.95529 52.3147 9.62605 51.9925C9.29682 51.6702 9.10706 51.2347 9.09664 50.7773V48.7834C9.10706 48.3261 9.29682 47.8905 9.62605 47.5682C9.95529 47.246 10.3984 47.0622 10.8621 47.0554C11.3617 47.0486 11.839 46.8508 12.1935 46.5036C12.548 46.1565 12.752 45.6871 12.7624 45.1945C12.7728 44.7371 12.9626 44.3015 13.2918 43.9793C13.6211 43.657 14.0641 43.4732 14.5279 43.4665H68.4363C69.1894 43.4665 69.912 43.1732 70.4471 42.6505C70.9822 42.1278 71.2863 41.4178 71.2934 40.675C71.3049 40.3045 71.2377 39.9357 71.0961 39.5924C70.9545 39.249 70.7417 38.9386 70.4713 38.6812C70.2046 38.4191 69.8867 38.2133 69.5369 38.0761C69.187 37.939 68.8126 37.8735 68.4363 37.8836L15.6195 38.0166Z" fill="#0B93E2"/>
</g>
<defs>
<clipPath id="clip0_4188_10153">
<rect width="75" height="65" fill="white"/>
</clipPath>
</defs>
</svg>
