<svg width="22" height="22" viewBox="0 0 22 22" fill="none" xmlns="http://www.w3.org/2000/svg">
<path fill-rule="evenodd" clip-rule="evenodd" d="M3.58879 4.10847L2.80097 5.6841C2.16825 6.94955 1.89945 8.38335 2.36053 9.72092C2.91436 11.3276 4.02168 13.6301 6.19492 15.8034C8.36817 17.9766 10.6707 19.084 12.2774 19.6378C13.615 20.0989 15.0488 19.8301 16.3142 19.1973L17.9425 18.3832C19.0464 17.8312 19.3006 16.3682 18.4476 15.4763L16.6514 13.5982C16.022 12.94 15.0019 12.8514 14.2684 13.3911C13.4458 13.9963 12.3459 14.0995 11.4837 13.5522C10.9693 13.2256 10.4218 12.8358 10.0333 12.4474C9.58267 11.9968 9.13015 11.3319 8.77668 10.753C8.32519 10.0135 8.33163 9.09647 8.71911 8.32152L8.95995 7.83984C9.31285 7.13403 9.17452 6.28158 8.61653 5.72359L6.52493 3.632C5.64009 2.74716 4.14841 2.98922 3.58879 4.10847ZM4.81863 4.72339L4.03081 6.29902C3.50308 7.35449 3.3576 8.39423 3.66046 9.27282C4.1632 10.7313 5.17432 12.8382 7.1672 14.8311C9.16007 16.824 11.2671 17.8351 12.7255 18.3379C13.6041 18.6407 14.6438 18.4952 15.6993 17.9675L17.3276 17.1534C17.6036 17.0154 17.6671 16.6496 17.4539 16.4266L15.6577 14.5485C15.506 14.3899 15.2601 14.3685 15.0833 14.4986C13.8654 15.3947 12.1492 15.6032 10.7469 14.7131C10.2068 14.3702 9.55761 13.9162 9.06108 13.4197C8.49012 12.8487 7.96861 12.0681 7.60313 11.4695C6.87595 10.2785 6.91577 8.85361 7.48927 7.7066L7.73011 7.22493C7.81834 7.04847 7.78375 6.83536 7.64425 6.69586L5.55266 4.60427C5.33145 4.38306 4.95853 4.44358 4.81863 4.72339Z" fill="#6BC9E3"/>
<path d="M14.2392 7.4446C13.6402 6.84556 12.9123 6.52299 12.3595 6.60195C12.1089 6.63775 11.8767 6.46362 11.8409 6.21304C11.8051 5.96245 11.9793 5.73029 12.2298 5.6945C13.1895 5.55742 14.1901 6.0991 14.8874 6.79642C15.5847 7.49375 16.1264 8.49436 15.9893 9.45397C15.9535 9.70456 15.7213 9.87868 15.4707 9.84288C15.2201 9.80708 15.046 9.57492 15.0818 9.32433C15.1608 8.77152 14.8382 8.04365 14.2392 7.4446Z" fill="#6BC9E3"/>
<path d="M11.809 8.52131C12.6927 8.18613 13.4977 8.99108 13.1625 9.87478C13.0727 10.1115 13.1918 10.3761 13.4284 10.4659C13.6651 10.5556 13.9298 10.4366 14.0195 10.1999C14.635 8.57729 13.1065 7.04878 11.4839 7.66423C11.2473 7.754 11.1282 8.01864 11.2179 8.25531C11.3077 8.49199 11.5724 8.61108 11.809 8.52131Z" fill="#6BC9E3"/>
</svg>
