<svg width="34" height="34" viewBox="0 0 34 34" fill="none" xmlns="http://www.w3.org/2000/svg">
<path fill-rule="evenodd" clip-rule="evenodd" d="M5.54915 6.34892L4.33162 8.78399C3.35377 10.7397 2.93836 12.9555 3.65093 15.0227C4.50685 17.5057 6.21816 21.0642 9.57682 24.4229C12.9355 27.7815 16.494 29.4929 18.977 30.3488C21.0442 31.0613 23.26 30.6459 25.2157 29.6681L27.7322 28.4099C29.4382 27.5568 29.8311 25.2958 28.5127 23.9174L25.7369 21.0148C24.7641 19.9977 23.1876 19.8607 22.054 20.6948C20.7828 21.6301 19.0829 21.7896 17.7504 20.9438C16.9553 20.4391 16.1092 19.8367 15.5089 19.2364C14.8124 18.5399 14.1131 17.5124 13.5668 16.6177C12.869 15.4748 12.879 14.0577 13.4778 12.86L13.85 12.1156C14.3954 11.0248 14.1816 9.70737 13.3193 8.84502L10.0868 5.61256C8.71935 4.24507 6.41402 4.61918 5.54915 6.34892ZM7.44981 7.29925L6.23228 9.73432C5.41669 11.3655 5.19186 12.9724 5.65992 14.3302C6.43687 16.5841 7.99952 19.8404 11.0794 22.9203C14.1593 26.0002 17.4156 27.5628 19.6695 28.3398C21.0273 28.8078 22.6342 28.583 24.2654 27.7674L26.7819 26.5092C27.2084 26.2959 27.3066 25.7307 26.977 25.3861L24.2011 22.4835C23.9666 22.2384 23.5866 22.2053 23.3134 22.4064C21.4312 23.7912 18.7789 24.1135 16.6116 22.7378C15.777 22.208 14.7737 21.5064 14.0063 20.739C13.1239 19.8566 12.318 18.6502 11.7531 17.725C10.6293 15.8844 10.6908 13.6823 11.5772 11.9097L11.9494 11.1653C12.0857 10.8926 12.0323 10.5632 11.8167 10.3476L8.58423 7.11516C8.24236 6.77329 7.66603 6.86681 7.44981 7.29925Z" fill="#1F3660"/>
<path d="M22.0089 11.5048C21.0831 10.579 19.9582 10.0804 19.1039 10.2025C18.7166 10.2578 18.3578 9.98871 18.3025 9.60143C18.2471 9.21416 18.5162 8.85537 18.9035 8.80005C20.3865 8.58821 21.9329 9.42535 23.0106 10.503C24.0883 11.5807 24.9254 13.1271 24.7135 14.6102C24.6582 14.9974 24.2994 15.2665 23.9121 15.2112C23.5249 15.1559 23.2558 14.7971 23.3111 14.4098C23.4332 13.5555 22.9346 12.4306 22.0089 11.5048Z" fill="#1F3660"/>
<path d="M18.2532 13.1688C19.6188 12.6508 20.8629 13.8948 20.3448 15.2605C20.2061 15.6263 20.3901 16.0353 20.7559 16.174C21.1217 16.3127 21.5307 16.1287 21.6694 15.7629C22.6206 13.2553 20.2584 10.893 17.7507 11.8442C17.385 11.9829 17.2009 12.3919 17.3397 12.7577C17.4784 13.1235 17.8874 13.3075 18.2532 13.1688Z" fill="#1F3660"/>
</svg>
