<svg width="272" height="245" viewBox="0 0 272 245" fill="none" xmlns="http://www.w3.org/2000/svg">
<circle cx="7.21587" cy="6.44243" r="6.44243" fill="black" fill-opacity="0.08"/>
<circle cx="7.21587" cy="32.212" r="6.44243" fill="black" fill-opacity="0.08"/>
<circle cx="7.21587" cy="57.9815" r="6.44243" fill="black" fill-opacity="0.08"/>
<circle cx="7.21587" cy="83.751" r="6.44243" fill="black" fill-opacity="0.08"/>
<circle cx="7.21587" cy="109.521" r="6.44243" fill="black" fill-opacity="0.08"/>
<circle cx="7.21587" cy="135.29" r="6.44243" fill="black" fill-opacity="0.08"/>
<circle cx="7.21587" cy="161.06" r="6.44243" fill="black" fill-opacity="0.08"/>
<circle cx="7.21587" cy="186.829" r="6.44243" fill="black" fill-opacity="0.08"/>
<circle cx="7.21587" cy="212.599" r="6.44243" fill="black" fill-opacity="0.08"/>
<circle cx="7.21587" cy="238.368" r="6.44243" fill="black" fill-opacity="0.08"/>
<circle cx="32.9893" cy="6.44243" r="6.44243" fill="black" fill-opacity="0.08"/>
<circle cx="32.9893" cy="32.212" r="6.44243" fill="black" fill-opacity="0.08"/>
<circle cx="32.9893" cy="57.9815" r="6.44243" fill="black" fill-opacity="0.08"/>
<circle cx="32.9893" cy="83.751" r="6.44243" fill="black" fill-opacity="0.08"/>
<circle cx="32.9893" cy="109.521" r="6.44243" fill="black" fill-opacity="0.08"/>
<circle cx="32.9893" cy="135.29" r="6.44243" fill="black" fill-opacity="0.08"/>
<circle cx="32.9893" cy="161.06" r="6.44243" fill="black" fill-opacity="0.08"/>
<circle cx="32.9893" cy="186.829" r="6.44243" fill="black" fill-opacity="0.08"/>
<circle cx="32.9893" cy="212.599" r="6.44243" fill="black" fill-opacity="0.08"/>
<circle cx="32.9893" cy="238.368" r="6.44243" fill="black" fill-opacity="0.08"/>
<circle cx="58.7549" cy="6.44243" r="6.44243" fill="black" fill-opacity="0.08"/>
<circle cx="58.7549" cy="32.212" r="6.44243" fill="black" fill-opacity="0.08"/>
<circle cx="58.7549" cy="57.9815" r="6.44243" fill="black" fill-opacity="0.08"/>
<circle cx="58.7549" cy="83.751" r="6.44243" fill="black" fill-opacity="0.08"/>
<circle cx="58.7549" cy="109.521" r="6.44243" fill="black" fill-opacity="0.08"/>
<circle cx="58.7549" cy="135.29" r="6.44243" fill="black" fill-opacity="0.08"/>
<circle cx="58.7549" cy="161.06" r="6.44243" fill="black" fill-opacity="0.08"/>
<circle cx="58.7549" cy="186.829" r="6.44243" fill="black" fill-opacity="0.08"/>
<circle cx="58.7549" cy="212.599" r="6.44243" fill="black" fill-opacity="0.08"/>
<circle cx="58.7549" cy="238.368" r="6.44243" fill="black" fill-opacity="0.08"/>
<circle cx="84.5284" cy="6.44243" r="6.44243" fill="black" fill-opacity="0.08"/>
<circle cx="84.5284" cy="32.212" r="6.44243" fill="black" fill-opacity="0.08"/>
<circle cx="84.5284" cy="57.9815" r="6.44243" fill="black" fill-opacity="0.08"/>
<circle cx="84.5284" cy="83.751" r="6.44243" fill="black" fill-opacity="0.08"/>
<circle cx="84.5284" cy="109.521" r="6.44243" fill="black" fill-opacity="0.08"/>
<circle cx="84.5284" cy="135.29" r="6.44243" fill="black" fill-opacity="0.08"/>
<circle cx="84.5284" cy="161.06" r="6.44243" fill="black" fill-opacity="0.08"/>
<circle cx="84.5284" cy="186.829" r="6.44243" fill="black" fill-opacity="0.08"/>
<circle cx="84.5284" cy="212.599" r="6.44243" fill="black" fill-opacity="0.08"/>
<circle cx="84.5284" cy="238.368" r="6.44243" fill="black" fill-opacity="0.08"/>
<circle cx="110.302" cy="6.44243" r="6.44243" fill="black" fill-opacity="0.08"/>
<circle cx="110.302" cy="32.212" r="6.44243" fill="black" fill-opacity="0.08"/>
<circle cx="110.302" cy="57.9815" r="6.44243" fill="black" fill-opacity="0.08"/>
<circle cx="110.302" cy="83.751" r="6.44243" fill="black" fill-opacity="0.08"/>
<circle cx="110.302" cy="109.521" r="6.44243" fill="black" fill-opacity="0.08"/>
<circle cx="110.302" cy="135.29" r="6.44243" fill="black" fill-opacity="0.08"/>
<circle cx="110.302" cy="161.06" r="6.44243" fill="black" fill-opacity="0.08"/>
<circle cx="110.302" cy="186.829" r="6.44243" fill="black" fill-opacity="0.08"/>
<circle cx="110.302" cy="212.599" r="6.44243" fill="black" fill-opacity="0.08"/>
<circle cx="110.302" cy="238.368" r="6.44243" fill="black" fill-opacity="0.08"/>
<circle cx="136.067" cy="6.44243" r="6.44243" fill="black" fill-opacity="0.08"/>
<circle cx="136.067" cy="32.212" r="6.44243" fill="black" fill-opacity="0.08"/>
<circle cx="136.067" cy="57.9815" r="6.44243" fill="black" fill-opacity="0.08"/>
<circle cx="136.067" cy="83.751" r="6.44243" fill="black" fill-opacity="0.08"/>
<circle cx="136.067" cy="109.521" r="6.44243" fill="black" fill-opacity="0.08"/>
<circle cx="136.067" cy="135.29" r="6.44243" fill="black" fill-opacity="0.08"/>
<circle cx="136.067" cy="161.06" r="6.44243" fill="black" fill-opacity="0.08"/>
<circle cx="136.067" cy="186.829" r="6.44243" fill="black" fill-opacity="0.08"/>
<circle cx="136.067" cy="212.599" r="6.44243" fill="black" fill-opacity="0.08"/>
<circle cx="136.067" cy="238.368" r="6.44243" fill="black" fill-opacity="0.08"/>
<circle cx="161.833" cy="6.44243" r="6.44243" fill="black" fill-opacity="0.08"/>
<circle cx="161.833" cy="32.212" r="6.44243" fill="black" fill-opacity="0.08"/>
<circle cx="161.833" cy="57.9815" r="6.44243" fill="black" fill-opacity="0.08"/>
<circle cx="161.833" cy="83.751" r="6.44243" fill="black" fill-opacity="0.08"/>
<circle cx="161.833" cy="109.521" r="6.44243" fill="black" fill-opacity="0.08"/>
<circle cx="161.833" cy="135.29" r="6.44243" fill="black" fill-opacity="0.08"/>
<circle cx="161.833" cy="161.06" r="6.44243" fill="black" fill-opacity="0.08"/>
<circle cx="161.833" cy="186.829" r="6.44243" fill="black" fill-opacity="0.08"/>
<circle cx="161.833" cy="212.599" r="6.44243" fill="black" fill-opacity="0.08"/>
<circle cx="161.833" cy="238.368" r="6.44243" fill="black" fill-opacity="0.08"/>
<circle cx="187.606" cy="6.44243" r="6.44243" fill="black" fill-opacity="0.08"/>
<circle cx="187.606" cy="32.212" r="6.44243" fill="black" fill-opacity="0.08"/>
<circle cx="187.606" cy="57.9815" r="6.44243" fill="black" fill-opacity="0.08"/>
<circle cx="187.606" cy="83.751" r="6.44243" fill="black" fill-opacity="0.08"/>
<circle cx="187.606" cy="109.521" r="6.44243" fill="black" fill-opacity="0.08"/>
<circle cx="187.606" cy="135.29" r="6.44243" fill="black" fill-opacity="0.08"/>
<circle cx="187.606" cy="161.06" r="6.44243" fill="black" fill-opacity="0.08"/>
<circle cx="187.606" cy="186.829" r="6.44243" fill="black" fill-opacity="0.08"/>
<circle cx="187.606" cy="212.599" r="6.44243" fill="black" fill-opacity="0.08"/>
<circle cx="187.606" cy="238.368" r="6.44243" fill="black" fill-opacity="0.08"/>
<circle cx="213.38" cy="6.44243" r="6.44243" fill="black" fill-opacity="0.08"/>
<circle cx="213.38" cy="32.212" r="6.44243" fill="black" fill-opacity="0.08"/>
<circle cx="213.38" cy="57.9815" r="6.44243" fill="black" fill-opacity="0.08"/>
<circle cx="213.38" cy="83.751" r="6.44243" fill="black" fill-opacity="0.08"/>
<circle cx="213.38" cy="109.521" r="6.44243" fill="black" fill-opacity="0.08"/>
<circle cx="213.38" cy="135.29" r="6.44243" fill="black" fill-opacity="0.08"/>
<circle cx="213.38" cy="161.06" r="6.44243" fill="black" fill-opacity="0.08"/>
<circle cx="213.38" cy="186.829" r="6.44243" fill="black" fill-opacity="0.08"/>
<circle cx="213.38" cy="212.599" r="6.44243" fill="black" fill-opacity="0.08"/>
<circle cx="213.38" cy="238.368" r="6.44243" fill="black" fill-opacity="0.08"/>
<circle cx="239.146" cy="6.44243" r="6.44243" fill="black" fill-opacity="0.08"/>
<circle cx="239.146" cy="32.212" r="6.44243" fill="black" fill-opacity="0.08"/>
<circle cx="239.146" cy="57.9815" r="6.44243" fill="black" fill-opacity="0.08"/>
<circle cx="239.146" cy="83.751" r="6.44243" fill="black" fill-opacity="0.08"/>
<circle cx="239.146" cy="109.521" r="6.44243" fill="black" fill-opacity="0.08"/>
<circle cx="239.146" cy="135.29" r="6.44243" fill="black" fill-opacity="0.08"/>
<circle cx="239.146" cy="161.06" r="6.44243" fill="black" fill-opacity="0.08"/>
<circle cx="239.146" cy="186.829" r="6.44243" fill="black" fill-opacity="0.08"/>
<circle cx="239.146" cy="212.599" r="6.44243" fill="black" fill-opacity="0.08"/>
<circle cx="239.146" cy="238.368" r="6.44243" fill="black" fill-opacity="0.08"/>
<circle cx="264.911" cy="6.44243" r="6.44243" fill="black" fill-opacity="0.08"/>
<circle cx="264.911" cy="32.212" r="6.44243" fill="black" fill-opacity="0.08"/>
<circle cx="264.911" cy="57.9815" r="6.44243" fill="black" fill-opacity="0.08"/>
<circle cx="264.911" cy="83.751" r="6.44243" fill="black" fill-opacity="0.08"/>
<circle cx="264.911" cy="109.521" r="6.44243" fill="black" fill-opacity="0.08"/>
<circle cx="264.911" cy="135.29" r="6.44243" fill="black" fill-opacity="0.08"/>
<circle cx="264.911" cy="161.06" r="6.44243" fill="black" fill-opacity="0.08"/>
<circle cx="264.911" cy="186.829" r="6.44243" fill="black" fill-opacity="0.08"/>
<circle cx="264.911" cy="212.599" r="6.44243" fill="black" fill-opacity="0.08"/>
<circle cx="264.911" cy="238.368" r="6.44243" fill="black" fill-opacity="0.08"/>
</svg>
