<svg width="233" height="269" viewBox="0 0 233 269" fill="none" xmlns="http://www.w3.org/2000/svg">
<path d="M118.538 227.973C139.356 227.572 158.913 222.647 176.873 211.887C183.904 207.67 190.607 203.005 196.509 197.263C198.914 194.92 198.934 194.55 196.749 191.989C193.241 187.871 188.942 184.529 185.179 180.697C179.153 174.595 173.033 168.593 166.918 162.58C165.122 160.815 164.503 160.82 162.645 162.47C152.606 171.368 140.938 176.631 127.698 178.849C113.979 181.145 101.271 178.255 88.952 172.466C84.9309 170.493 81.1517 168.062 77.6899 165.219C75.6914 163.657 75.0253 163.657 73.1413 165.355C68.624 169.389 65.0278 174.262 60.958 178.708C55.3946 184.789 49.9718 191.01 44.4344 197.122C42.4984 199.257 42.4516 199.522 44.6998 201.37C63.2583 216.64 84.5907 225.172 108.437 227.562C110.113 227.734 111.768 228.083 113.469 227.989C115.171 227.895 116.847 227.973 118.538 227.973Z" fill="#213861"/>
<path d="M118.34 0C109.201 0 99.6984 1.30673 90.289 3.3371C87.6868 3.89935 87.2237 4.68547 87.843 7.3614C89.7634 15.6599 92.6882 23.672 94.926 31.8768C96.3468 37.0829 97.5282 42.3462 99.511 47.3805C100.734 50.5041 100.875 50.6499 104.268 50.2282C108.52 49.7076 112.714 48.8486 117.018 48.6299C122.144 48.3696 127.115 49.2391 132.111 50.072C133.672 50.3323 135.233 50.3792 136.727 50.7592C139.043 51.3423 140.401 50.3219 141.525 48.4581C143.029 45.9696 143.701 43.1792 144.648 40.4824C148.1 30.4173 151.786 20.4286 155.707 10.5163C157.05 7.12712 156.717 6.35142 153.225 5.3102C144.826 2.75802 136.177 1.11904 127.427 0.421691C124.554 0.203036 121.723 0.0468547 118.34 0Z" fill="#4876B2"/>
<path d="M180.361 141.397C179.903 141.388 179.449 141.483 179.034 141.675C178.618 141.867 178.252 142.151 177.962 142.506C175.88 144.62 174.512 147.191 172.997 149.701C172.357 150.742 172.888 151.544 173.721 152.221C182.396 159.259 191.852 165.199 200.97 171.618C204.046 173.784 207.116 175.965 210.109 178.246C211.436 179.256 212.274 178.964 213.148 177.725C216.791 172.623 219.831 167.224 221.808 161.243C222.329 159.717 222.011 158.848 220.58 158.119C215.22 155.292 209.453 153.434 203.926 151.049C197.494 148.273 191.056 145.505 184.613 142.745C183.224 142.136 181.876 141.496 180.361 141.397Z" fill="#213861"/>
<path d="M171.224 73.9308C172.457 77.2471 173.701 80.5789 176.678 82.8488C177.432 83.4215 178.333 83.0987 179.113 82.7915C182.439 81.4952 185.728 80.1885 188.543 77.8406C190.813 75.9612 193.685 75.097 196.35 73.9048C203.289 70.7811 210.079 67.3885 216.72 63.7269C219.358 62.2744 219.535 61.6445 218.234 58.9269C215.725 53.6844 212.03 49.2019 208.944 44.3239C208.065 42.9338 206.961 42.887 205.692 43.9542C203.279 45.9251 201.046 48.1063 199.02 50.4722C198.031 51.6818 196.808 52.6788 195.424 53.4032C192.086 55.0221 189.127 57.3285 186.743 60.1711C185.15 62.1182 182.746 63.0241 180.763 64.4766C177.885 66.559 174.939 68.605 172.535 71.2809C171.784 71.9704 171.316 72.9151 171.224 73.9308Z" fill="#4876B2"/>
<path d="M161.599 63.8629C161.846 63.8555 162.089 63.7922 162.309 63.6777C162.529 63.5632 162.72 63.4005 162.868 63.2017C163.633 62.4099 164.354 61.5774 165.028 60.708C167.23 57.6468 169.572 54.7418 172.548 52.3783C176.858 48.9318 179.538 44.0485 183.238 40.0451C186.147 36.9214 189.051 33.7561 192.085 30.7262C193.647 29.1644 193.6 28.295 192.049 26.8112C188.895 23.7865 185.184 21.4906 181.64 19.0021C180.542 18.2316 179.756 18.544 179.038 19.5644C174.63 25.6607 170.836 32.163 166.787 38.4936C163.545 43.5748 160.584 48.8381 157.482 54.013C156.676 55.2724 155.734 56.4387 154.672 57.4906C154.058 58.1362 153.594 58.9795 154.599 59.6459C156.681 61.0463 158.866 62.3635 161.016 63.6963C161.201 63.7806 161.397 63.8367 161.599 63.8629Z" fill="#4876B2"/>
<path d="M185.701 119.261C184.14 118.787 183.552 119.99 183.354 121.864C183.22 123.483 182.945 125.087 182.532 126.659C182.011 128.449 182.828 129.157 184.348 129.631C188.631 130.964 193.034 131.776 197.411 132.687C203.656 133.983 209.865 135.29 215.949 137.175C219.873 138.383 223.958 138.825 227.919 139.825C229.032 140.106 229.615 139.559 229.891 138.518C230.955 134.299 231.672 130 232.035 125.664C232.254 123.399 231.478 122.842 229.037 122.603C216.5 121.369 203.88 121.301 191.358 119.896L185.701 119.261Z" fill="#4876B2"/>
<path d="M181.574 96.9474C181.775 98.8718 182.189 100.768 182.807 102.601C183.224 103.976 184.249 104.194 185.592 104.007C192.977 102.966 200.356 101.794 207.772 101.008C214.814 100.258 221.767 99.0142 228.741 97.8845C231.145 97.4888 231.254 97.2129 230.781 94.7608C230.052 91.0021 229.401 87.2328 228.6 83.4949C228.048 80.8919 227.236 80.5431 224.738 81.4854C218.493 83.8437 211.79 84.8016 205.597 87.3109C198.774 90.0754 191.592 91.5799 184.593 93.7353C182.943 94.2455 181.251 94.8181 181.574 96.9474Z" fill="#4876B2"/>
<mask id="path-8-outside-1_3906_7876" maskUnits="userSpaceOnUse" x="2" y="91" width="104" height="178" fill="black">
<rect fill="white" x="2" y="91" width="104" height="178"/>
<path d="M34.1719 92.375V161H25.5V103.203L8.01562 109.578V101.75L32.8125 92.375H34.1719ZM70.6406 128.516L63.7031 126.734L67.125 92.75H102.141V100.766H74.4844L72.4219 119.328C73.6719 118.609 75.25 117.938 77.1562 117.312C79.0938 116.688 81.3125 116.375 83.8125 116.375C86.9688 116.375 89.7969 116.922 92.2969 118.016C94.7969 119.078 96.9219 120.609 98.6719 122.609C100.453 124.609 101.812 127.016 102.75 129.828C103.688 132.641 104.156 135.781 104.156 139.25C104.156 142.531 103.703 145.547 102.797 148.297C101.922 151.047 100.594 153.453 98.8125 155.516C97.0312 157.547 94.7812 159.125 92.0625 160.25C89.375 161.375 86.2031 161.938 82.5469 161.938C79.7969 161.938 77.1875 161.562 74.7188 160.812C72.2812 160.031 70.0938 158.859 68.1562 157.297C66.25 155.703 64.6875 153.734 63.4688 151.391C62.2812 149.016 61.5312 146.234 61.2188 143.047H69.4688C69.8438 145.609 70.5938 147.766 71.7188 149.516C72.8438 151.266 74.3125 152.594 76.125 153.5C77.9688 154.375 80.1094 154.812 82.5469 154.812C84.6094 154.812 86.4375 154.453 88.0312 153.734C89.625 153.016 90.9688 151.984 92.0625 150.641C93.1562 149.297 93.9844 147.672 94.5469 145.766C95.1406 143.859 95.4375 141.719 95.4375 139.344C95.4375 137.188 95.1406 135.188 94.5469 133.344C93.9531 131.5 93.0625 129.891 91.875 128.516C90.7188 127.141 89.2969 126.078 87.6094 125.328C85.9219 124.547 83.9844 124.156 81.7969 124.156C78.8906 124.156 76.6875 124.547 75.1875 125.328C73.7188 126.109 72.2031 127.172 70.6406 128.516ZM50.4375 237.391V245.547H3.65625V237.391H50.4375ZM31.4062 217.469V267.156H22.7344V217.469H31.4062Z"/>
</mask>
<path d="M34.1719 92.375V161H25.5V103.203L8.01562 109.578V101.75L32.8125 92.375H34.1719ZM70.6406 128.516L63.7031 126.734L67.125 92.75H102.141V100.766H74.4844L72.4219 119.328C73.6719 118.609 75.25 117.938 77.1562 117.312C79.0938 116.688 81.3125 116.375 83.8125 116.375C86.9688 116.375 89.7969 116.922 92.2969 118.016C94.7969 119.078 96.9219 120.609 98.6719 122.609C100.453 124.609 101.812 127.016 102.75 129.828C103.688 132.641 104.156 135.781 104.156 139.25C104.156 142.531 103.703 145.547 102.797 148.297C101.922 151.047 100.594 153.453 98.8125 155.516C97.0312 157.547 94.7812 159.125 92.0625 160.25C89.375 161.375 86.2031 161.938 82.5469 161.938C79.7969 161.938 77.1875 161.562 74.7188 160.812C72.2812 160.031 70.0938 158.859 68.1562 157.297C66.25 155.703 64.6875 153.734 63.4688 151.391C62.2812 149.016 61.5312 146.234 61.2188 143.047H69.4688C69.8438 145.609 70.5938 147.766 71.7188 149.516C72.8438 151.266 74.3125 152.594 76.125 153.5C77.9688 154.375 80.1094 154.812 82.5469 154.812C84.6094 154.812 86.4375 154.453 88.0312 153.734C89.625 153.016 90.9688 151.984 92.0625 150.641C93.1562 149.297 93.9844 147.672 94.5469 145.766C95.1406 143.859 95.4375 141.719 95.4375 139.344C95.4375 137.188 95.1406 135.188 94.5469 133.344C93.9531 131.5 93.0625 129.891 91.875 128.516C90.7188 127.141 89.2969 126.078 87.6094 125.328C85.9219 124.547 83.9844 124.156 81.7969 124.156C78.8906 124.156 76.6875 124.547 75.1875 125.328C73.7188 126.109 72.2031 127.172 70.6406 128.516ZM50.4375 237.391V245.547H3.65625V237.391H50.4375ZM31.4062 217.469V267.156H22.7344V217.469H31.4062Z" fill="#1F3660"/>
<path d="M34.1719 92.375H35.1719V91.375H34.1719V92.375ZM34.1719 161V162H35.1719V161H34.1719ZM25.5 161H24.5V162H25.5V161ZM25.5 103.203H26.5V101.774L25.1574 102.264L25.5 103.203ZM8.01562 109.578H7.01562V111.007L8.35818 110.518L8.01562 109.578ZM8.01562 101.75L7.66198 100.815L7.01562 101.059V101.75H8.01562ZM32.8125 92.375V91.375H32.6298L32.4589 91.4396L32.8125 92.375ZM34.1719 92.375H33.1719V161H34.1719H35.1719V92.375H34.1719ZM34.1719 161V160H25.5V161V162H34.1719V161ZM25.5 161H26.5V103.203H25.5H24.5V161H25.5ZM25.5 103.203L25.1574 102.264L7.67307 108.639L8.01562 109.578L8.35818 110.518L25.8426 104.143L25.5 103.203ZM8.01562 109.578H9.01562V101.75H8.01562H7.01562V109.578H8.01562ZM8.01562 101.75L8.36927 102.685L33.1661 93.3104L32.8125 92.375L32.4589 91.4396L7.66198 100.815L8.01562 101.75ZM32.8125 92.375V93.375H34.1719V92.375V91.375H32.8125V92.375ZM70.6406 128.516L70.3919 129.484L70.8972 129.614L71.2927 129.274L70.6406 128.516ZM63.7031 126.734L62.7082 126.634L62.6221 127.489L63.4544 127.703L63.7031 126.734ZM67.125 92.75V91.75H66.2206L66.13 92.6498L67.125 92.75ZM102.141 92.75H103.141V91.75H102.141V92.75ZM102.141 100.766V101.766H103.141V100.766H102.141ZM74.4844 100.766V99.7656H73.5893L73.4905 100.655L74.4844 100.766ZM72.4219 119.328L71.428 119.218L71.2101 121.178L72.9203 120.195L72.4219 119.328ZM77.1562 117.312L76.8492 116.361L76.8447 116.362L77.1562 117.312ZM92.2969 118.016L91.896 118.932L91.9057 118.936L92.2969 118.016ZM98.6719 122.609L97.9193 123.268L97.9251 123.274L98.6719 122.609ZM102.797 148.297L101.847 147.984L101.844 147.994L102.797 148.297ZM98.8125 155.516L99.5644 156.175L99.5693 156.169L98.8125 155.516ZM92.0625 160.25L91.6801 159.326L91.6764 159.328L92.0625 160.25ZM74.7188 160.812L74.4135 161.765L74.4208 161.767L74.4281 161.769L74.7188 160.812ZM68.1562 157.297L67.5148 158.064L67.5216 158.07L67.5285 158.075L68.1562 157.297ZM63.4688 151.391L62.5743 151.838L62.5779 151.845L62.5815 151.852L63.4688 151.391ZM61.2188 143.047V142.047H60.1159L60.2235 143.144L61.2188 143.047ZM69.4688 143.047L70.4582 142.902L70.3331 142.047H69.4688V143.047ZM76.125 153.5L75.6778 154.394L75.687 154.399L75.6963 154.403L76.125 153.5ZM94.5469 145.766L93.5921 145.468L93.5899 145.475L93.5878 145.483L94.5469 145.766ZM91.875 128.516L91.1096 129.159L91.1182 129.169L91.875 128.516ZM87.6094 125.328L87.1893 126.236L87.1962 126.239L87.2032 126.242L87.6094 125.328ZM75.1875 125.328L74.7255 124.441L74.7179 124.445L75.1875 125.328ZM70.6406 128.516L70.8893 127.547L63.9518 125.766L63.7031 126.734L63.4544 127.703L70.3919 129.484L70.6406 128.516ZM63.7031 126.734L64.6981 126.835L68.12 92.8502L67.125 92.75L66.13 92.6498L62.7082 126.634L63.7031 126.734ZM67.125 92.75V93.75H102.141V92.75V91.75H67.125V92.75ZM102.141 92.75H101.141V100.766H102.141H103.141V92.75H102.141ZM102.141 100.766V99.7656H74.4844V100.766V101.766H102.141V100.766ZM74.4844 100.766L73.4905 100.655L71.428 119.218L72.4219 119.328L73.4158 119.439L75.4783 100.876L74.4844 100.766ZM72.4219 119.328L72.9203 120.195C74.0931 119.521 75.6034 118.874 77.4678 118.263L77.1562 117.312L76.8447 116.362C74.8966 117.001 73.2507 117.698 71.9234 118.461L72.4219 119.328ZM77.1562 117.312L77.4632 118.264C79.2819 117.678 81.3939 117.375 83.8125 117.375V116.375V115.375C81.2311 115.375 78.9056 115.697 76.8493 116.361L77.1562 117.312ZM83.8125 116.375V117.375C86.8522 117.375 89.5407 117.901 91.8961 118.932L92.2969 118.016L92.6977 117.099C90.053 115.942 87.0853 115.375 83.8125 115.375V116.375ZM92.2969 118.016L91.9057 118.936C94.2702 119.941 96.2708 121.384 97.9193 123.268L98.6719 122.609L99.4245 121.951C97.573 119.835 95.3235 118.215 92.688 117.095L92.2969 118.016ZM98.6719 122.609L97.9251 123.274C99.6069 125.163 100.902 127.447 101.801 130.144L102.75 129.828L103.699 129.512C102.723 126.584 101.299 124.056 99.4186 121.944L98.6719 122.609ZM102.75 129.828L101.801 130.144C102.7 132.839 103.156 135.871 103.156 139.25H104.156H105.156C105.156 135.692 104.675 132.442 103.699 129.512L102.75 129.828ZM104.156 139.25H103.156C103.156 142.439 102.716 145.347 101.847 147.984L102.797 148.297L103.747 148.61C104.69 145.746 105.156 142.624 105.156 139.25H104.156ZM102.797 148.297L101.844 147.994C101.007 150.623 99.7434 152.908 98.0557 154.862L98.8125 155.516L99.5693 156.169C101.444 153.998 102.836 151.471 103.75 148.6L102.797 148.297ZM98.8125 155.516L98.0606 154.856C96.3894 156.762 94.2699 158.254 91.6801 159.326L92.0625 160.25L92.4449 161.174C95.2926 159.996 97.6731 158.332 99.5644 156.175L98.8125 155.516ZM92.0625 160.25L91.6764 159.328C89.138 160.39 86.1032 160.938 82.5469 160.938V161.938V162.938C86.3031 162.938 89.612 162.36 92.4486 161.172L92.0625 160.25ZM82.5469 161.938V160.938C79.8889 160.938 77.3779 160.575 75.0094 159.856L74.7188 160.812L74.4281 161.769C76.9971 162.55 79.7049 162.938 82.5469 162.938V161.938ZM74.7188 160.812L75.024 159.86C72.7004 159.115 70.6229 158.001 68.784 156.518L68.1562 157.297L67.5285 158.075C69.5646 159.717 71.8621 160.947 74.4135 161.765L74.7188 160.812ZM68.1562 157.297L68.7977 156.53C66.999 155.026 65.5177 153.163 64.356 150.929L63.4688 151.391L62.5815 151.852C63.8573 154.305 65.501 156.38 67.5148 158.064L68.1562 157.297ZM63.4688 151.391L64.3632 150.943C63.2404 148.698 62.5169 146.039 62.214 142.949L61.2188 143.047L60.2235 143.144C60.5456 146.429 61.3221 149.333 62.5743 151.838L63.4688 151.391ZM61.2188 143.047V144.047H69.4688V143.047V142.047H61.2188V143.047ZM69.4688 143.047L68.4793 143.192C68.87 145.862 69.659 148.161 70.8776 150.056L71.7188 149.516L72.5599 148.975C71.5285 147.37 70.8175 145.357 70.4582 142.902L69.4688 143.047ZM71.7188 149.516L70.8776 150.056C72.097 151.953 73.7001 153.406 75.6778 154.394L76.125 153.5L76.5722 152.606C74.9249 151.782 73.5905 150.578 72.5599 148.975L71.7188 149.516ZM76.125 153.5L75.6963 154.403C77.6975 155.353 79.9895 155.812 82.5469 155.812V154.812V153.812C80.2292 153.812 78.24 153.397 76.5537 152.597L76.125 153.5ZM82.5469 154.812V155.812C84.726 155.812 86.6983 155.433 88.4424 154.646L88.0312 153.734L87.6201 152.823C86.1767 153.474 84.4928 153.812 82.5469 153.812V154.812ZM88.0312 153.734L88.4424 154.646C90.1764 153.864 91.6453 152.737 92.8381 151.272L92.0625 150.641L91.2869 150.009C90.2922 151.231 89.0736 152.167 87.6201 152.823L88.0312 153.734ZM92.0625 150.641L92.8381 151.272C94.0269 149.811 94.9115 148.063 95.506 146.049L94.5469 145.766L93.5878 145.483C93.0573 147.28 92.2856 148.782 91.2869 150.009L92.0625 150.641ZM94.5469 145.766L95.5016 146.063C96.1304 144.044 96.4375 141.801 96.4375 139.344H95.4375H94.4375C94.4375 141.636 94.1508 143.674 93.5921 145.468L94.5469 145.766ZM95.4375 139.344H96.4375C96.4375 137.095 96.1278 134.991 95.4987 133.037L94.5469 133.344L93.595 133.65C94.1535 135.384 94.4375 137.28 94.4375 139.344H95.4375ZM94.5469 133.344L95.4987 133.037C94.8667 131.074 93.9126 129.345 92.6318 127.862L91.875 128.516L91.1182 129.169C92.2124 130.436 93.0396 131.926 93.595 133.65L94.5469 133.344ZM91.875 128.516L92.6404 127.872C91.3837 126.378 89.8377 125.224 88.0155 124.414L87.6094 125.328L87.2032 126.242C88.756 126.932 90.0538 127.904 91.1096 129.159L91.875 128.516ZM87.6094 125.328L88.0295 124.421C86.1891 123.569 84.1041 123.156 81.7969 123.156V124.156V125.156C83.8646 125.156 85.6546 125.525 87.1893 126.236L87.6094 125.328ZM81.7969 124.156V123.156C78.8301 123.156 76.4364 123.55 74.7256 124.441L75.1875 125.328L75.6494 126.215C76.9386 125.544 78.9511 125.156 81.7969 125.156V124.156ZM75.1875 125.328L74.7179 124.445C73.1706 125.268 71.5944 126.376 69.9886 127.757L70.6406 128.516L71.2927 129.274C72.8119 127.967 74.2669 126.95 75.6571 126.211L75.1875 125.328ZM50.4375 237.391H51.4375V236.391H50.4375V237.391ZM50.4375 245.547V246.547H51.4375V245.547H50.4375ZM3.65625 245.547H2.65625V246.547H3.65625V245.547ZM3.65625 237.391V236.391H2.65625V237.391H3.65625ZM31.4062 217.469H32.4062V216.469H31.4062V217.469ZM31.4062 267.156V268.156H32.4062V267.156H31.4062ZM22.7344 267.156H21.7344V268.156H22.7344V267.156ZM22.7344 217.469V216.469H21.7344V217.469H22.7344ZM50.4375 237.391H49.4375V245.547H50.4375H51.4375V237.391H50.4375ZM50.4375 245.547V244.547H3.65625V245.547V246.547H50.4375V245.547ZM3.65625 245.547H4.65625V237.391H3.65625H2.65625V245.547H3.65625ZM3.65625 237.391V238.391H50.4375V237.391V236.391H3.65625V237.391ZM31.4062 217.469H30.4062V267.156H31.4062H32.4062V217.469H31.4062ZM31.4062 267.156V266.156H22.7344V267.156V268.156H31.4062V267.156ZM22.7344 267.156H23.7344V217.469H22.7344H21.7344V267.156H22.7344ZM22.7344 217.469V218.469H31.4062V217.469V216.469H22.7344V217.469Z" fill="#1F3660" mask="url(#path-8-outside-1_3906_7876)"/>
</svg>
