<svg width="24" height="25" viewBox="0 0 24 25" fill="none" xmlns="http://www.w3.org/2000/svg">
<path fill-rule="evenodd" clip-rule="evenodd" d="M22 12.5C22 18.0228 17.5228 22.5 12 22.5C6.47715 22.5 2 18.0228 2 12.5C2 6.97715 6.47715 2.5 12 2.5C17.5228 2.5 22 6.97715 22 12.5ZM3.5 12.5C3.5 11.7433 3.59888 11.0097 3.78444 10.3113L4.16582 10.2316L4.20482 10.2235C4.23949 10.2165 4.29122 10.2059 4.35848 10.1925C4.49301 10.1657 4.68956 10.1271 4.93578 10.0808C5.28583 10.015 5.73568 9.93352 6.25 9.84755V15.1525C5.73568 15.0665 5.28583 14.985 4.93578 14.9192C4.68956 14.8729 4.49301 14.8343 4.35848 14.8075C4.29122 14.7941 4.23949 14.7835 4.20482 14.7765L4.16582 14.7684L3.78444 14.6887C3.59888 13.9903 3.5 13.2567 3.5 12.5ZM4.6585 8.60668C5.07176 8.52894 5.62055 8.43 6.25 8.32721V6.23994C5.50467 6.92491 4.882 7.74125 4.41871 8.65227C4.49249 8.63809 4.57258 8.62284 4.6585 8.60668ZM11.25 15.7333C10.134 15.6863 8.8892 15.5461 7.75 15.3846V9.61537C8.8892 9.45393 10.134 9.31368 11.25 9.26672V15.7333ZM7.75 8.10076C8.87834 7.94519 10.1173 7.81009 11.25 7.76553V4.03263C9.98325 4.14338 8.79615 4.53198 7.75 5.13715V8.10076ZM16.25 15.3846C15.1108 15.5461 13.866 15.6863 12.75 15.7333V9.26672C13.866 9.31368 15.1108 9.45393 16.25 9.61537V15.3846ZM12.75 7.76553C13.8827 7.81009 15.1217 7.94519 16.25 8.10076V5.13715C15.2038 4.53198 14.0167 4.14338 12.75 4.03263V7.76553ZM19.0642 14.9192C18.7142 14.985 18.2643 15.0665 17.75 15.1525V9.84755C18.2643 9.93352 18.7142 10.015 19.0642 10.0808C19.3104 10.1271 19.507 10.1657 19.6415 10.1925C19.7088 10.2059 19.7605 10.2165 19.7952 10.2235L19.8342 10.2316L19.8437 10.2335L20.2156 10.3113C20.4011 11.0097 20.5 11.7433 20.5 12.5C20.5 13.2567 20.4011 13.9903 20.2156 14.6887L19.8342 14.7684L19.7952 14.7765C19.7605 14.7835 19.7088 14.7941 19.6415 14.8075C19.507 14.8343 19.3104 14.8729 19.0642 14.9192ZM19.3415 8.60668C19.4274 8.62284 19.5075 8.63809 19.5813 8.65227C19.118 7.74125 18.4953 6.92491 17.75 6.23994V8.32721C18.3794 8.43 18.9282 8.52894 19.3415 8.60668ZM17.75 18.7601C18.4953 18.0751 19.118 17.2587 19.5813 16.3477C19.5075 16.3619 19.4274 16.3772 19.3415 16.3933C18.9282 16.4711 18.3794 16.57 17.75 16.6728V18.7601ZM12.75 17.2345C13.8827 17.1899 15.1217 17.0548 16.25 16.8992V19.5C16.25 19.6148 16.2758 19.7235 16.3219 19.8208C15.2583 20.45 14.0459 20.8541 12.75 20.9674V17.2345ZM7.75 16.8992C8.87834 17.0548 10.1173 17.1899 11.25 17.2345V20.9674C9.95415 20.8541 8.74165 20.45 7.67812 19.8208C7.72422 19.7235 7.75 19.6148 7.75 19.5V16.8992ZM4.6585 16.3933C5.07176 16.4711 5.62055 16.57 6.25 16.6728V18.7601C5.50467 18.0751 4.882 17.2587 4.41871 16.3477C4.49249 16.3619 4.57258 16.3772 4.6585 16.3933Z" fill="#1F3660"/>
</svg>
