<svg width="40" height="39" viewBox="0 0 40 39" fill="none" xmlns="http://www.w3.org/2000/svg">
<path d="M19.928 0H19.8398C9.17168 0 0.523438 8.54 0.523438 19.0746V19.1617C0.523438 29.6963 9.17168 38.2363 19.8398 38.2363H19.928C30.5962 38.2363 39.2444 29.6963 39.2444 19.1617V19.0746C39.2444 8.54 30.5962 0 19.928 0Z" fill="#1F3660"/>
<path d="M25.8748 7.7793H13.8935C10.5834 7.7793 7.89062 10.4384 7.89062 13.707V24.531C7.89062 27.7997 10.5834 30.4588 13.8935 30.4588H25.8748C29.1849 30.4588 31.8777 27.7997 31.8777 24.531V13.707C31.8777 10.4384 29.1849 7.7793 25.8748 7.7793ZM10.0083 13.707C10.0083 11.5918 11.7515 9.87042 13.8935 9.87042H25.8748C28.0169 9.87042 29.7601 11.5918 29.7601 13.707V24.531C29.7601 26.6463 28.0169 28.3677 25.8748 28.3677H13.8935C11.7515 28.3677 10.0083 26.6463 10.0083 24.531V13.707Z" fill="white"/>
<path d="M19.8845 24.6321C22.9626 24.6321 25.4682 22.1592 25.4682 19.1183C25.4682 16.0774 22.9639 13.6045 19.8845 13.6045C16.805 13.6045 14.3008 16.0774 14.3008 19.1183C14.3008 22.1592 16.805 24.6321 19.8845 24.6321ZM19.8845 15.697C21.7959 15.697 23.3506 17.2321 23.3506 19.1196C23.3506 21.0071 21.7959 22.5423 19.8845 22.5423C17.9731 22.5423 16.4184 21.0071 16.4184 19.1196C16.4184 17.2321 17.9731 15.697 19.8845 15.697Z" fill="white"/>
<path d="M25.9849 14.4947C26.8138 14.4947 27.4894 13.8289 27.4894 13.0091C27.4894 12.1892 26.8151 11.5234 25.9849 11.5234C25.1547 11.5234 24.4805 12.1892 24.4805 13.0091C24.4805 13.8289 25.1547 14.4947 25.9849 14.4947Z" fill="white"/>
</svg>
