<svg width="40" height="39" viewBox="0 0 40 39" fill="none" xmlns="http://www.w3.org/2000/svg">
<path d="M39.118 19.1188C39.118 28.7747 31.8698 36.7574 22.4538 38.0528C21.5733 38.1734 20.6726 38.2363 19.7582 38.2363C18.7028 38.2363 17.6664 38.1533 16.6571 37.9925C7.4391 36.527 0.398438 28.634 0.398438 19.1188C0.398438 8.56007 9.067 0 19.7596 0C30.4522 0 39.1207 8.56007 39.1207 19.1188H39.118Z" fill="#1F3660"/>
<path d="M22.4522 15.3518V19.5166H27.6697L26.8435 25.1269H22.4522V38.0527C21.5718 38.1733 20.671 38.2363 19.7567 38.2363C18.7013 38.2363 17.6649 38.1532 16.6556 37.9925V25.1269H11.8438V19.5166H16.6556V14.4208C16.6556 11.2593 19.2507 8.69531 22.4536 8.69531V8.69799C22.4631 8.69799 22.4712 8.69531 22.4807 8.69531H27.671V13.5474H24.2796C23.2716 13.5474 22.4536 14.3551 22.4536 15.3505L22.4522 15.3518Z" fill="white"/>
</svg>
