<svg width="39" height="39" viewBox="0 0 39 39" fill="none" xmlns="http://www.w3.org/2000/svg">
<path d="M38.9969 19.1188C38.9969 28.7747 31.7487 36.7574 22.3327 38.0528C21.4522 38.1734 20.5515 38.2363 19.6371 38.2363C18.5817 38.2363 17.5453 38.1533 16.536 37.9925C7.31801 36.527 0.277344 28.634 0.277344 19.1188C0.277344 8.56007 8.9459 0 19.6385 0C30.3311 0 38.9996 8.56007 38.9996 19.1188H38.9969Z" fill="#1F3660"/>
<path d="M8.12984 8.43262L17.0589 20.2211L8.07422 29.806H10.0969L17.9637 21.4147L24.3193 29.806H31.2013L21.7703 17.3544L30.1336 8.43262H28.111L20.8668 16.1608L15.0132 8.43262H8.13118H8.12984ZM11.1035 9.9035H14.2643L28.2249 28.3351H25.0641L11.1035 9.9035Z" fill="white"/>
</svg>
