<svg width="40" height="39" viewBox="0 0 40 39" fill="none" xmlns="http://www.w3.org/2000/svg">
<path d="M39.365 19.1176C39.365 8.58891 30.7216 0.0537109 20.0594 0.0537109C9.3973 0.0537109 0.753906 8.58891 0.753906 19.1176C0.753906 29.6463 9.3973 38.1815 20.0594 38.1815C30.7216 38.1815 39.365 29.6463 39.365 19.1176Z" fill="#1F3660"/>
<path d="M32.2162 15.167C32.0643 13.7189 31.7373 12.118 30.534 11.2768C29.6021 10.6244 28.3771 10.6003 27.2335 10.6016C24.816 10.6016 22.3972 10.6056 19.9798 10.607C17.6546 10.6097 15.3294 10.611 13.0043 10.6137C12.0329 10.6137 11.0888 10.54 10.1866 10.9553C9.41202 11.3116 8.80562 11.9894 8.4407 12.7436C7.9347 13.7925 7.82889 14.9808 7.76784 16.1409C7.65525 18.2534 7.66746 20.3713 7.80176 22.4825C7.90079 24.0231 8.15175 25.7257 9.35776 26.7077C10.4267 27.5771 11.9353 27.6199 13.3217 27.6213C17.7224 27.6253 22.1246 27.6293 26.5267 27.632C27.091 27.6333 27.6798 27.6226 28.255 27.561C29.3864 27.4404 30.4648 27.1203 31.192 26.2924C31.9259 25.4578 32.1145 24.2964 32.2257 23.1966C32.497 20.5281 32.4943 17.8341 32.2162 15.167ZM17.4349 22.8576V15.376L23.9953 19.1161L17.4349 22.8576Z" fill="white"/>
</svg>
