<svg width="39" height="39" viewBox="0 0 39 39" fill="none" xmlns="http://www.w3.org/2000/svg">
<path d="M19.4046 0H19.3164C8.64825 0 0 8.54 0 19.0746V19.1617C0 29.6963 8.64825 38.2363 19.3164 38.2363H19.4046C30.0727 38.2363 38.721 29.6963 38.721 19.1617V19.0746C38.721 8.54 30.0727 0 19.4046 0Z" fill="#1F3660"/>
<path d="M23.1333 24.7104C18.1777 24.7104 14.1459 20.7277 14.1445 15.8342C14.1459 14.5937 15.1688 13.585 16.4222 13.585C16.5511 13.585 16.6786 13.5957 16.8007 13.6171C17.0693 13.6613 17.3244 13.7511 17.5591 13.8864C17.593 13.9065 17.616 13.9386 17.6215 13.9761L18.1451 17.2354C18.1519 17.2729 18.1397 17.3117 18.1139 17.3399C17.8249 17.656 17.456 17.8837 17.0449 17.9976L16.8469 18.0525L16.9215 18.2414C17.597 19.94 18.9726 21.2971 20.6941 21.9669L20.8854 22.0419L20.941 21.8463C21.0563 21.4404 21.2869 21.076 21.6071 20.7907C21.6302 20.7693 21.6614 20.7585 21.6926 20.7585C21.6994 20.7585 21.7061 20.7585 21.7143 20.7599L25.0148 21.277C25.0542 21.2837 25.0867 21.3051 25.1071 21.3386C25.2428 21.5703 25.3336 21.8235 25.3798 22.0888C25.4015 22.2067 25.411 22.3312 25.411 22.4612C25.411 23.7003 24.3895 24.709 23.1333 24.7104Z" fill="white"/>
<path d="M31.9216 18.0446C31.6543 15.0626 30.2706 12.2964 28.0255 10.2561C25.7668 8.20387 22.8365 7.07324 19.772 7.07324C13.0461 7.07324 7.57362 12.4772 7.57362 19.119C7.57362 21.3481 8.19628 23.5196 9.37515 25.4111L6.74609 31.158L15.1637 30.2725C16.6275 30.8646 18.1767 31.1647 19.7707 31.1647C20.1898 31.1647 20.6199 31.1432 21.0513 31.099C21.4311 31.0589 21.815 30.9999 22.1922 30.9249C27.8247 29.801 31.9365 24.8645 31.9691 19.1833V19.119C31.9691 18.7573 31.9528 18.3956 31.9202 18.0459L31.9216 18.0446ZM15.4879 27.75L10.8308 28.2403L12.2213 25.1981L11.9432 24.8297C11.9228 24.8029 11.9025 24.7761 11.8794 24.7453C10.6721 23.0989 10.0345 21.1538 10.0345 19.1203C10.0345 13.8181 14.4027 9.50463 19.772 9.50463C24.8022 9.50463 29.066 13.3801 29.477 18.3273C29.4987 18.5925 29.5109 18.8591 29.5109 19.1216C29.5109 19.1967 29.5096 19.2703 29.5082 19.3494C29.4051 23.7848 26.2673 27.5518 21.8774 28.5109C21.5424 28.5846 21.1991 28.6409 20.8573 28.677C20.5019 28.7172 20.1369 28.7373 19.7747 28.7373C18.4846 28.7373 17.2311 28.4908 16.0468 28.0032C15.9153 27.951 15.7864 27.8947 15.6656 27.8371L15.4893 27.7527L15.4879 27.75Z" fill="white"/>
</svg>
