<svg width="40" height="39" viewBox="0 0 40 39" fill="none" xmlns="http://www.w3.org/2000/svg">
<path d="M20.2835 0H20.1953C9.52717 0 0.878906 8.54 0.878906 19.0746V19.1617C0.878906 29.6963 9.52717 38.2363 20.1953 38.2363H20.2835C30.9516 38.2363 39.5999 29.6963 39.5999 19.1617V19.0746C39.5999 8.54 30.9516 0 20.2835 0Z" fill="#1F3660"/>
<path d="M10.1114 12.7091C9.60132 12.2415 9.34766 11.6628 9.34766 10.9743C9.34766 10.2857 9.60268 9.68155 10.1114 9.21269C10.6215 8.74517 11.2781 8.51074 12.0825 8.51074C12.887 8.51074 13.5178 8.74517 14.0265 9.21269C14.5366 9.68021 14.7903 10.2683 14.7903 10.9743C14.7903 11.6802 14.5352 12.2415 14.0265 12.7091C13.5164 13.1766 12.8693 13.411 12.0825 13.411C11.2957 13.411 10.6215 13.1766 10.1114 12.7091ZM14.3616 15.3909V29.7247H9.77497V15.3909H14.3616Z" fill="white"/>
<path d="M29.6322 16.8067C30.632 17.8784 31.1312 19.3493 31.1312 21.2221V29.4714H26.7752V21.8035C26.7752 20.8591 26.527 20.1249 26.0318 19.6025C25.5367 19.0801 24.8692 18.8175 24.0336 18.8175C23.1979 18.8175 22.5305 19.0787 22.0353 19.6025C21.5401 20.1249 21.2919 20.8591 21.2919 21.8035V29.4714H16.9102V15.3506H21.2919V17.2234C21.7355 16.5991 22.3338 16.1061 23.0853 15.7431C23.8369 15.3801 24.682 15.1992 25.6221 15.1992C27.2962 15.1992 28.6337 15.7351 29.6322 16.8054V16.8067Z" fill="white"/>
</svg>
