<svg width="30" height="32" viewBox="0 0 30 32" fill="none" xmlns="http://www.w3.org/2000/svg">
<path d="M5.88775 1.15039L1.26562 7.01412V27.5372C1.26563 28.3147 1.59027 29.0605 2.16815 29.6103C2.74603 30.1601 3.5298 30.469 4.34704 30.469H25.9169C26.7342 30.469 27.518 30.1601 28.0958 29.6103C28.6737 29.0605 28.9984 28.3147 28.9984 27.5372V7.01412L24.3762 1.15039H5.88775Z" stroke="#1A7FBE" stroke-width="2" stroke-linecap="round" stroke-linejoin="round"/>
<path d="M21.2944 12.877C21.2944 14.4321 20.6451 15.9236 19.4894 17.0232C18.3336 18.1229 16.7661 18.7407 15.1316 18.7407C13.4971 18.7407 11.9296 18.1229 10.7738 17.0232C9.61805 15.9236 8.96875 14.4321 8.96875 12.877" stroke="#1A7FBE" stroke-width="2" stroke-linecap="round" stroke-linejoin="round"/>
<path d="M1.26562 7.01367H28.9984" stroke="#1A7FBE" stroke-width="2" stroke-linecap="round" stroke-linejoin="round"/>
</svg>
