<svg width="38" height="32" viewBox="0 0 38 32" fill="none" xmlns="http://www.w3.org/2000/svg">
<path d="M29.6905 30.3653C31.9315 30.3653 33.7481 28.5486 33.7481 26.3077C33.7481 24.0667 31.9315 22.25 29.6905 22.25C27.4495 22.25 25.6328 24.0667 25.6328 26.3077C25.6328 28.5486 27.4495 30.3653 29.6905 30.3653Z" stroke="#1A7FBE" stroke-width="2" stroke-linecap="round" stroke-linejoin="round"/>
<path d="M8.59282 30.3653C10.8338 30.3653 12.6505 28.5486 12.6505 26.3077C12.6505 24.0667 10.8338 22.25 8.59282 22.25C6.35183 22.25 4.53516 24.0667 4.53516 26.3077C4.53516 28.5486 6.35183 30.3653 8.59282 30.3653Z" stroke="#1A7FBE" stroke-width="2" stroke-linecap="round" stroke-linejoin="round"/>
<path d="M25.6328 9.26562H32.1251L36.9943 14.1348V22.2501H25.6328V9.26562Z" stroke="#1A7FBE" stroke-width="2" stroke-linecap="round" stroke-linejoin="round"/>
<path d="M25.635 1.15039H1.28906V22.2502H25.635V1.15039Z" stroke="#1A7FBE" stroke-width="2" stroke-linecap="round" stroke-linejoin="round"/>
</svg>
