<svg width="34" height="34" viewBox="0 0 34 34" fill="none" xmlns="http://www.w3.org/2000/svg">
<path d="M17.4484 32.5688C26.0365 32.5688 32.9984 25.6068 32.9984 17.0188C32.9984 8.43072 26.0365 1.46875 17.4484 1.46875C8.86041 1.46875 1.89844 8.43072 1.89844 17.0188C1.89844 25.6068 8.86041 32.5688 17.4484 32.5688Z" stroke="#1A7FBE" stroke-width="2" stroke-linecap="round" stroke-linejoin="round"/>
<path d="M17.4505 23.2388C20.8857 23.2388 23.6705 20.454 23.6705 17.0188C23.6705 13.5836 20.8857 10.7988 17.4505 10.7988C14.0153 10.7988 11.2305 13.5836 11.2305 17.0188C11.2305 20.454 14.0153 23.2388 17.4505 23.2388Z" stroke="#1A7FBE" stroke-width="2" stroke-linecap="round" stroke-linejoin="round"/>
<path d="M21.8477 21.4199L28.4409 28.0131" stroke="#1A7FBE" stroke-width="2" stroke-linecap="round" stroke-linejoin="round"/>
<path d="M6.45312 28.0131L13.0463 21.4199" stroke="#1A7FBE" stroke-width="2" stroke-linecap="round" stroke-linejoin="round"/>
<path d="M21.8477 12.6186L28.4409 6.02539" stroke="#1A7FBE" stroke-width="2" stroke-linecap="round" stroke-linejoin="round"/>
<path d="M21.8477 12.6181L27.3368 7.12891" stroke="#1A7FBE" stroke-width="2" stroke-linecap="round" stroke-linejoin="round"/>
<path d="M6.45312 6.02539L13.0463 12.6186" stroke="#1A7FBE" stroke-width="2" stroke-linecap="round" stroke-linejoin="round"/>
</svg>
