<svg width="294" height="355" viewBox="0 0 294 355" fill="none" xmlns="http://www.w3.org/2000/svg">
<g style="mix-blend-mode:overlay">
<path d="M176.535 354.487C144.165 353.864 113.754 346.206 85.8272 329.473C74.8944 322.916 64.4713 315.662 55.2946 306.733C51.5559 303.091 51.5234 302.516 54.9222 298.533C60.3765 292.13 67.0608 286.933 72.9116 280.975C82.2826 271.487 91.7994 262.153 101.308 252.803C104.1 250.059 105.063 250.067 107.952 252.633C123.562 266.468 141.705 274.652 162.292 278.101C183.624 281.671 203.386 277.178 222.54 268.176C228.793 265.109 234.669 261.327 240.052 256.908C243.16 254.479 244.196 254.479 247.125 257.118C254.149 263.392 259.741 270.969 266.069 277.882C274.72 287.337 283.152 297.011 291.763 306.515C294.773 309.834 294.846 310.247 291.35 313.121C262.492 336.864 229.322 350.132 192.242 353.847C189.637 354.114 187.063 354.657 184.417 354.511C181.771 354.365 179.165 354.487 176.535 354.487Z" fill="white"/>
<path d="M177.787 100.292C216.25 99.0691 255.474 132.211 254.786 179.624C254.195 220.31 219.228 253.468 180.813 254.585C132.663 255.986 99.8082 218.392 99.9457 176.564C100.083 135.643 134.759 99.0287 177.787 100.292ZM134.193 178.564C133.117 200.186 153.145 221.298 177.673 220.748C200.729 220.229 220.061 201.975 220.256 178.143C220.458 152.416 201.085 134.753 177.738 134.283C155.104 133.83 133.1 151.162 134.193 178.564Z" fill="white"/>
<path d="M176.841 0C191.051 0 205.828 2.03189 220.459 5.189C224.505 6.06328 225.225 7.28566 224.262 11.4466C221.276 24.3503 216.728 36.8087 213.249 49.5667C211.039 57.6619 209.202 65.8461 206.119 73.6741C204.218 78.5312 203.999 78.7579 198.723 78.1022C192.111 77.2927 185.589 75.957 178.896 75.617C170.925 75.2122 163.197 76.5641 155.428 77.8593C153.001 78.2641 150.573 78.337 148.25 78.9279C144.649 79.8346 142.537 78.2479 140.789 75.3498C138.45 71.4803 137.407 67.1413 135.934 62.948C130.566 47.2973 124.834 31.7654 118.737 16.3522C116.65 11.0823 117.167 9.87611 122.597 8.25708C135.657 4.28858 149.106 1.74005 162.712 0.655707C167.179 0.31571 171.581 0.0728565 176.841 0Z" fill="white"/>
<path d="M80.4028 219.865C81.1146 219.851 81.8205 219.998 82.4668 220.297C83.1131 220.596 83.683 221.038 84.1334 221.59C87.3703 224.876 89.4987 228.875 91.8536 232.777C92.8489 234.396 92.0235 235.643 90.7287 236.695C77.2387 247.64 62.5348 256.876 48.3569 266.858C43.5743 270.225 38.7998 273.617 34.1467 277.163C32.0831 278.733 30.7801 278.28 29.4206 276.353C23.7559 268.42 19.03 260.025 15.9548 250.724C15.1456 248.352 15.6393 247 17.8647 245.867C26.1999 241.471 35.1663 238.581 43.7604 234.874C53.7627 230.556 63.773 226.252 73.7914 221.962C75.952 221.015 78.0479 220.019 80.4028 219.865Z" fill="white"/>
<path d="M94.6154 114.959C92.6975 120.116 90.7634 125.297 86.1345 128.826C84.9611 129.717 83.5611 129.215 82.3473 128.737C77.1762 126.721 72.0618 124.69 67.6838 121.039C64.1555 118.116 59.6885 116.772 55.5452 114.919C44.7553 110.062 34.1974 104.786 23.8715 99.0926C19.7687 96.8341 19.4936 95.8545 21.5167 91.6289C25.4172 83.477 31.1628 76.5071 35.9616 68.9219C37.3292 66.7605 39.0448 66.6877 41.0194 68.3472C44.7705 71.4118 48.2423 74.8035 51.3938 78.4823C52.9315 80.3631 54.8336 81.9134 56.9857 83.0399C62.1761 85.5572 66.7759 89.1435 70.4838 93.5636C72.96 96.5912 76.6988 97.9998 79.782 100.258C84.2571 103.496 88.8374 106.678 92.5761 110.839C93.7442 111.911 94.4713 113.38 94.6154 114.959Z" fill="white"/>
<path d="M109.579 99.3034C109.193 99.2919 108.816 99.1935 108.474 99.0155C108.132 98.8375 107.835 98.5844 107.604 98.2753C106.416 97.044 105.295 95.7496 104.246 94.3977C100.823 89.6377 97.1811 85.1206 92.5523 81.4454C85.8518 76.0864 81.6843 68.4932 75.9306 62.268C71.4069 57.4109 66.8913 52.489 62.1735 47.7776C59.7457 45.3491 59.8185 43.9972 62.2301 41.6901C67.1341 36.9868 72.9039 33.4168 78.4149 29.5473C80.1224 28.3492 81.3443 28.8349 82.4611 30.4216C89.3153 39.901 95.2147 50.0119 101.511 59.8556C106.552 67.7565 111.157 75.9407 115.98 83.9873C117.233 85.9456 118.698 87.7592 120.35 89.3949C121.305 90.3987 122.025 91.7101 120.463 92.7462C117.226 94.9238 113.827 96.9719 110.485 99.0443C110.198 99.1754 109.892 99.2628 109.579 99.3034Z" fill="white"/>
<path d="M72.1013 185.444C74.5291 184.707 75.4435 186.577 75.751 189.492C75.96 192.009 76.3879 194.504 77.0297 196.947C77.8389 199.732 76.5684 200.833 74.2054 201.57C67.5454 203.642 60.6991 204.905 53.8934 206.322C44.1825 208.337 34.5283 210.369 25.0683 213.3C18.9666 215.178 12.6141 215.866 6.45576 217.42C4.72398 217.857 3.8177 217.007 3.3888 215.388C1.73473 208.828 0.619661 202.143 0.0547379 195.401C-0.285143 191.88 0.920633 191.014 4.71597 190.641C24.2106 188.723 43.8346 188.617 63.3049 186.432L72.1013 185.444Z" fill="white"/>
<path d="M78.5171 150.749C78.2045 153.741 77.5612 156.689 76.5992 159.54C75.9518 161.677 74.3577 162.017 72.2698 161.726C60.7867 160.107 49.3117 158.285 37.78 157.063C26.831 155.897 16.0195 153.962 5.17565 152.206C1.43696 151.59 1.26698 151.161 2.00339 147.349C3.13633 141.504 4.14793 135.643 5.39416 129.831C6.25196 125.783 7.51441 125.241 11.3988 126.706C21.1096 130.373 31.5326 131.862 41.1626 135.764C51.7717 140.063 62.9392 142.402 73.8235 145.754C76.3888 146.547 79.0189 147.438 78.5171 150.749Z" fill="white"/>
</g>
</svg>
