<svg width="158" height="71" viewBox="0 0 158 71" fill="none" xmlns="http://www.w3.org/2000/svg">
<g clip-path="url(#clip0_4188_12488)">
<path d="M36.092 70.9916C29.474 70.8668 23.2565 69.3331 17.5468 65.9821C15.3116 64.669 13.1807 63.2164 11.3045 61.4282C10.5401 60.6987 10.5335 60.5836 11.2284 59.7859C12.3435 58.5036 13.7101 57.4628 14.9063 56.2696C16.8222 54.3695 18.7678 52.5003 20.7119 50.6278C21.2827 50.0783 21.4795 50.0799 22.0702 50.5938C25.2617 53.3644 28.9711 55.0034 33.1801 55.6941C37.5413 56.409 41.5815 55.5092 45.4977 53.7065C46.776 53.0922 47.9774 52.3349 49.078 51.4498C49.7133 50.9634 49.9251 50.9634 50.524 51.4919C51.9601 52.7484 53.1034 54.2658 54.3972 55.6503C56.1658 57.5438 57.8898 59.4812 59.6502 61.3844C60.2656 62.0491 60.2805 62.1318 59.5658 62.7073C53.6659 67.4623 46.8842 70.1194 39.3033 70.8635C38.7706 70.917 38.2444 71.0257 37.7034 70.9965C37.1624 70.9673 36.6297 70.9916 36.092 70.9916Z" fill="#1F3660"/>
<path d="M36.3482 20.0847C44.212 19.8399 52.2312 26.477 52.0906 35.9723C51.9698 44.1204 44.8208 50.7608 36.967 50.9846C27.1228 51.265 20.4056 43.7362 20.4337 35.3595C20.4618 27.1644 27.5513 19.8318 36.3482 20.0847ZM27.4355 35.76C27.2154 40.0902 31.3103 44.3182 36.325 44.208C41.0386 44.1042 44.9912 40.4484 45.0309 35.6757C45.0723 30.5235 41.1114 26.9861 36.3382 26.8921C31.7107 26.8013 27.2121 30.2722 27.4355 35.76Z" fill="#1A7FBE"/>
<path d="M36.1544 0C39.0597 0 42.0808 0.406919 45.0721 1.03918C45.8993 1.21427 46.0466 1.45907 45.8497 2.29236C45.2392 4.87654 44.3093 7.37155 43.5979 9.92655C43.1462 11.5477 42.7707 13.1868 42.1403 14.7544C41.7515 15.7272 41.7069 15.7726 40.6281 15.6412C39.2764 15.4791 37.9429 15.2116 36.5746 15.1435C34.945 15.0625 33.3649 15.3332 31.7766 15.5926C31.2803 15.6737 30.7839 15.6883 30.3091 15.8066C29.5729 15.9882 29.141 15.6704 28.7837 15.09C28.3055 14.3151 28.0921 13.4461 27.791 12.6064C26.6935 9.47207 25.5216 6.36155 24.2752 3.2748C23.8483 2.21941 23.9542 1.97785 25.0644 1.65362C27.7344 0.858858 30.484 0.348474 33.2657 0.131316C34.1789 0.063226 35.079 0.0145907 36.1544 0Z" fill="#1A7FBE"/>
<path d="M16.4384 44.0314C16.584 44.0285 16.7283 44.0581 16.8604 44.118C16.9926 44.1778 17.1091 44.2663 17.2012 44.3768C17.863 45.035 18.2981 45.8358 18.7795 46.6172C18.983 46.9415 18.8143 47.1911 18.5496 47.4019C15.7915 49.5937 12.7853 51.4435 9.88669 53.4424C8.90889 54.1169 7.93275 54.7961 6.98142 55.5062C6.55953 55.8207 6.29314 55.7299 6.01519 55.3441C4.85705 53.7553 3.89083 52.0742 3.26213 50.2114C3.09668 49.7364 3.19762 49.4657 3.6526 49.2387C5.35672 48.3584 7.18989 47.7796 8.94695 47.0371C10.9919 46.1725 13.0385 45.3106 15.0867 44.4513C15.5285 44.2616 15.957 44.0622 16.4384 44.0314Z" fill="#1F3660"/>
<path d="M112.563 18.48C112.563 20.0785 112.55 21.677 112.563 23.2754C112.563 23.8412 112.356 24.1039 111.767 24.0552C111.541 24.0374 111.312 24.0552 111.086 24.0552C110.159 24.0552 110.158 24.0552 110.017 23.1717C109.99 23.0096 109.994 22.8264 109.803 22.7696C109.613 22.7129 109.501 22.8669 109.403 22.9934C108.786 23.7894 107.914 24.1282 106.949 24.253C106.07 24.3863 105.174 24.3654 104.302 24.1914C101.941 23.6743 100.401 21.5035 100.221 19.1998C100.035 16.8474 100.861 14.9733 102.84 13.5953C104.66 12.3276 107.734 12.5124 109.383 14.0039C109.517 14.1238 109.64 14.3184 109.848 14.2308C110.025 14.1563 109.969 13.9471 109.985 13.7947C110.085 12.9468 110.081 12.9468 110.943 12.942C112.586 12.942 112.585 12.942 112.583 14.5291C112.583 15.8445 112.583 17.1598 112.583 18.4751L112.563 18.48ZM102.898 18.5027C102.851 20.4238 104.345 22.0109 106.25 22.0693C106.714 22.0879 107.177 22.0158 107.612 21.8571C108.048 21.6984 108.446 21.4563 108.785 21.1449C109.124 20.8336 109.396 20.4592 109.586 20.0437C109.775 19.6282 109.879 19.1798 109.889 18.7248C109.934 16.4924 108.655 15.0706 106.566 15.0301C104.306 14.9814 102.949 16.2654 102.898 18.5027Z" fill="#1A7FBE"/>
<path d="M103.285 39.917C103.285 41.4555 103.248 42.9972 103.301 44.5325C103.324 45.181 103.101 45.408 102.474 45.3593C102.269 45.3431 102.06 45.3593 101.855 45.3593C100.818 45.2993 100.818 45.2977 100.697 44.2764C100.684 44.158 100.707 44.0154 100.575 43.9521C100.373 43.8597 100.279 44.0364 100.166 44.1418C98.2204 45.9608 96.0299 46.0127 93.697 44.9962C92.7656 44.5909 92.1418 43.8386 91.6868 42.9989C90.8166 41.3923 90.5072 39.703 91.0945 37.9018C91.3234 37.1656 91.7038 36.4832 92.2125 35.8968C92.7211 35.3103 93.347 34.8323 94.0516 34.4923C94.7562 34.1523 95.5245 33.9574 96.3089 33.9198C97.0934 33.8822 97.8774 34.0026 98.6125 34.2736C99.1949 34.4795 99.6217 34.8978 100.102 35.2382C100.469 35.4976 100.679 35.5025 100.657 35.0113C100.628 34.332 100.965 34.1601 101.601 34.1861C103.43 34.2623 103.255 34.024 103.277 35.8429C103.291 37.1983 103.277 38.5552 103.277 39.9105L103.285 39.917ZM97.0573 43.1999C99.1419 43.1999 100.561 41.7408 100.495 39.6009C100.441 37.8175 99.3239 36.0861 96.8852 36.1429C95.0239 36.185 93.4968 37.7754 93.52 39.7095C93.5432 41.7522 95.0107 43.1999 97.0573 43.1934V43.1999Z" fill="#1A7FBE"/>
<path d="M19.3444 23.0223C18.9523 24.055 18.5569 25.0926 17.6105 25.7994C17.3706 25.9778 17.0844 25.8772 16.8362 25.7816C15.779 25.3779 14.7333 24.971 13.8383 24.2398C13.1169 23.6546 12.2036 23.3855 11.3565 23.0142C9.15054 22.0415 6.99199 20.985 4.88087 19.8448C4.04204 19.3925 3.98581 19.1963 4.39943 18.3501C5.19689 16.7175 6.37157 15.3217 7.35268 13.8026C7.63229 13.3698 7.98304 13.3552 8.38673 13.6875C9.15365 14.3013 9.86344 14.9805 10.5078 15.7172C10.8222 16.0939 11.211 16.4044 11.651 16.63C12.7122 17.1341 13.6526 17.8523 14.4107 18.7375C14.917 19.3438 15.6814 19.6259 16.3117 20.0782C17.2266 20.7267 18.1631 21.3639 18.9274 22.1971C19.1663 22.4119 19.3149 22.706 19.3444 23.0223Z" fill="#1A7FBE"/>
<path d="M94.0538 19.4513C92.7732 19.4513 91.4926 19.4513 90.2121 19.4513C89.6098 19.4513 89.5089 19.6021 89.7521 20.1517C90.0302 20.7888 90.5429 21.2999 91.1882 21.5832C92.6144 22.2414 94.0008 22.0193 95.379 21.4681C95.695 21.3416 95.9995 21.0304 96.3568 21.246C96.8544 21.5395 97.2686 21.9509 97.5613 22.4424C97.7267 22.731 97.4091 22.9142 97.2089 23.0731C96.4958 23.6324 95.6388 23.8658 94.7702 24.0571C93.1819 24.4089 91.6018 24.4057 90.0963 23.7329C87.6973 22.6678 86.6218 20.3284 86.8452 17.5513C87.0768 14.7142 90.4652 12.344 93.3688 12.7007C94.6924 12.8628 95.9267 13.2454 96.9442 14.0884C98.0113 14.972 98.4332 16.2073 98.5408 17.5335C98.7277 19.8599 98.8121 19.3751 96.8432 19.4254C95.9134 19.4497 94.9836 19.4254 94.0538 19.4254V19.4513ZM92.7881 17.3713V17.3405C93.6534 17.3405 94.5204 17.3551 95.3856 17.3405C96.0144 17.3259 96.0888 17.1898 95.8373 16.6499C95.2715 15.4373 94.2755 14.9509 92.9569 14.9509C91.5506 14.9509 90.4851 15.5086 89.8133 16.7164C89.5486 17.1881 89.6843 17.3649 90.2584 17.3649C91.0989 17.3827 91.9427 17.3713 92.7881 17.3713Z" fill="#1A7FBE"/>
<path d="M119.688 39.7773C119.688 36.402 122.037 34.1939 125.579 34.1145C129.672 34.0205 131.408 36.9678 131.505 39.8211C131.613 42.9921 128.964 45.5244 125.715 45.5374C121.939 45.5552 119.754 43.0602 119.688 39.7773ZM128.83 39.646C128.817 38.777 128.577 38.1642 127.962 37.4331C126.588 35.7989 124.128 35.8978 122.987 37.6357C122.677 38.0942 122.473 38.6128 122.387 39.1559C122.301 39.699 122.337 40.2539 122.49 40.7824C122.849 42.1102 123.786 43.0132 125 43.1364C127.422 43.3812 128.888 41.6611 128.83 39.646Z" fill="#1A7FBE"/>
<path d="M115.02 18.3806C115.02 16.821 115.033 15.2631 115.02 13.7035C115.02 13.1555 115.216 12.9091 115.779 12.9529C115.964 12.9675 116.151 12.9529 116.337 12.9529C117.329 12.9529 117.352 12.9529 117.448 13.937C117.493 14.4055 117.705 14.3731 118.001 14.172C118.254 14.0002 118.479 13.7878 118.732 13.6176C121.575 11.6981 125.153 13.2285 125.727 16.646C126.088 18.7908 125.999 20.9664 125.947 23.1307C125.929 23.8975 125.744 24.0143 124.955 24.0386C123.443 24.0872 123.441 24.0872 123.443 22.6087C123.444 21.1302 123.461 19.6533 123.456 18.1747C123.456 16.6038 122.693 15.5938 121.333 15.3117C119.778 14.9875 118.458 15.6473 117.814 17.0723C117.615 17.5084 117.637 17.9818 117.637 18.4455C117.637 19.8608 117.652 21.2777 117.65 22.6946C117.65 23.1161 117.7 23.643 117.27 23.8457C116.671 24.1294 115.984 24.0888 115.326 23.9964C115.16 23.9721 115.134 23.797 115.117 23.656C115.091 23.4144 115.056 23.1696 115.054 22.9313C115.054 21.4123 115.054 19.8932 115.054 18.3758L115.02 18.3806Z" fill="#1A7FBE"/>
<path d="M75.5118 45.7242C73.8937 45.6885 72.4791 45.3027 71.225 44.4402C70.3647 43.8485 70.3365 43.6004 70.9404 42.7752C71.0295 42.6637 71.1113 42.5467 71.1853 42.4251C71.4302 41.9792 71.6916 41.9614 72.1184 42.2629C73.1521 42.9805 74.381 43.3791 75.6474 43.4075C76.1897 43.4429 76.7244 43.2682 77.1365 42.9212C77.4922 42.6148 77.7652 42.2532 77.651 41.7588C77.5369 41.2643 77.1282 41.1103 76.703 40.9838C75.7302 40.7001 74.7176 40.6304 73.7249 40.444C72.4328 40.2008 71.4087 39.5864 70.9123 38.3218C70.759 37.9554 70.684 37.562 70.6919 37.166C70.6997 36.77 70.7903 36.3798 70.9581 36.0195C71.1258 35.6592 71.3672 35.3363 71.6672 35.0709C71.9672 34.8055 72.3195 34.6032 72.7025 34.4764C74.5985 33.8101 76.5177 33.8409 78.4187 34.4537C79.7655 34.8898 79.8465 35.2091 78.9713 36.2662C78.3955 36.96 78.4253 36.9049 77.6295 36.4915C77.077 36.1889 76.4633 36.0093 75.8319 35.9653C75.2006 35.9213 74.5671 36.0141 73.9764 36.237C73.1492 36.5466 73.0482 37.3978 73.7067 37.9798C74.0501 38.2772 74.488 38.449 74.9459 38.4661C76.1603 38.5553 77.3698 38.6526 78.5163 39.1341C80.4239 39.9333 81.0179 42.5385 79.5735 44.0171C78.4617 45.1616 77.0372 45.6788 75.5118 45.7242Z" fill="#1A7FBE"/>
<path d="M22.4049 19.8868C22.3261 19.8846 22.2489 19.8649 22.179 19.8292C22.1091 19.7935 22.0483 19.7429 22.0012 19.681C21.7583 19.4344 21.5291 19.1752 21.3146 18.9044C20.6148 17.9511 19.8702 17.0465 18.9239 16.3105C17.554 15.2373 16.7019 13.7166 15.5256 12.4699C14.6007 11.4972 13.6775 10.5115 12.713 9.56798C12.2166 9.08162 12.2315 8.81089 12.7245 8.34885C13.7271 7.40694 14.9068 6.69199 16.0335 5.91706C16.3826 5.67712 16.6324 5.77439 16.8607 6.09214C18.2621 7.99056 19.4682 10.0154 20.7554 11.9868C21.7861 13.5691 22.7276 15.2081 23.7136 16.8196C23.9697 17.2117 24.2693 17.5749 24.607 17.9025C24.8023 18.1035 24.9495 18.3662 24.6302 18.5737C23.9684 19.0098 23.2735 19.4199 22.5902 19.835C22.5314 19.8612 22.469 19.8787 22.4049 19.8868Z" fill="#1A7FBE"/>
<path d="M14.7411 37.1387C15.2374 36.9911 15.4244 37.3656 15.4872 37.9493C15.53 38.4535 15.6174 38.953 15.7487 39.4424C15.9141 40.0001 15.6543 40.2205 15.1712 40.3681C13.8096 40.7831 12.4099 41.036 11.0185 41.3197C9.03308 41.7234 7.05928 42.1303 5.12519 42.7172C3.87771 43.0933 2.57894 43.2311 1.31987 43.5424C0.965814 43.6299 0.780526 43.4597 0.692838 43.1354C0.354664 41.8216 0.126689 40.4829 0.0111911 39.1327C-0.0582972 38.4275 0.188223 38.254 0.964176 38.1795C4.94983 37.7952 8.96194 37.7742 12.9426 37.3364L14.7411 37.1387Z" fill="#1A7FBE"/>
<path d="M16.054 30.1899C15.9901 30.7892 15.8586 31.3796 15.6619 31.9505C15.5295 32.3785 15.2036 32.4466 14.7767 32.3882C12.429 32.064 10.0829 31.6992 7.72531 31.4544C5.48679 31.221 3.27639 30.8335 1.05938 30.4817C0.29501 30.3585 0.260258 30.2726 0.410816 29.509C0.642444 28.3385 0.849266 27.1648 1.10406 26.0007C1.27943 25.1901 1.53754 25.0815 2.33169 25.375C4.31707 26.1094 6.44803 26.4077 8.41687 27.1891C10.5859 28.0499 12.8691 28.5185 15.0944 29.1896C15.6188 29.3485 16.1566 29.5268 16.054 30.1899Z" fill="#1A7FBE"/>
<path d="M133.598 39.9415C133.598 38.4825 133.58 37.0234 133.598 35.5643C133.617 34.4295 134.51 33.8815 135.599 34.3111C135.845 34.4084 135.901 34.6143 135.94 34.8429C136.082 35.6665 136.143 35.7151 136.81 35.1833C138.027 34.2106 139.422 34.0112 140.896 34.2317C142.716 34.5057 143.941 35.7459 144.351 37.5924C144.665 39.011 144.634 40.449 144.631 41.8853C144.631 42.7543 144.597 43.6249 144.584 44.4938C144.584 45.0029 144.298 45.1909 143.807 45.2315C142.058 45.3822 142 45.3385 141.997 43.6103C141.997 42.0718 142.026 40.53 141.98 38.9964C141.934 37.4968 140.847 36.4511 139.31 36.3295C137.875 36.2177 136.616 37.1725 136.3 38.5862C136.069 39.6303 136.198 40.684 136.174 41.7329C136.153 42.6846 136.158 43.6362 136.174 44.5879C136.174 45.0742 135.943 45.2688 135.468 45.3109C133.752 45.473 133.579 45.3223 133.57 43.6476C133.57 42.4122 133.57 41.1769 133.57 39.9431L133.598 39.9415Z" fill="#1A7FBE"/>
<path d="M86.1561 39.4159C86.1561 40.0643 86.1446 40.7128 86.1561 41.3613C86.1843 42.5983 86.9503 43.2419 88.1878 42.9176C88.9042 42.7312 89.0978 42.9176 89.3162 43.5483C89.8291 45.0074 89.7646 45.1889 88.1415 45.3527C86.7584 45.4921 85.4133 45.4743 84.3974 44.2973C83.6297 43.4072 83.4047 42.3518 83.4047 41.2446C83.3965 39.8893 83.3915 38.5339 83.4147 37.1786C83.4246 36.6436 83.2327 36.4734 82.6801 36.5156C81.2605 36.6193 81.2589 36.5966 81.2539 35.2413C81.2539 34.2086 81.2539 34.2086 82.2896 34.2216C83.4891 34.2378 83.4891 34.2378 83.4378 33.0316C83.3667 31.3423 83.4378 31.2597 85.1419 31.104C86.0635 31.0181 86.1727 31.1138 86.181 32.0459C86.181 32.5728 86.171 33.0981 86.171 33.625C86.171 34.0368 86.3365 34.2572 86.8064 34.2329C87.26 34.2129 87.7145 34.2254 88.1663 34.2702C88.9936 34.3432 89.2434 34.5944 89.3245 35.405C89.346 35.6044 89.3245 35.8087 89.3476 36.0114C89.384 36.4296 89.2103 36.5885 88.7702 36.5642C88.1084 36.5269 87.4466 36.5642 86.7848 36.5318C86.2885 36.5075 86.1231 36.6939 86.1231 37.1673C86.1446 37.9163 86.1231 38.6653 86.1231 39.4143L86.1561 39.4159Z" fill="#1A7FBE"/>
<path d="M106.359 39.5501C106.359 38.72 106.346 37.8916 106.359 37.0616C106.359 36.6109 106.178 36.4552 105.723 36.4812C104.215 36.5703 104.215 36.5622 104.284 35.0918C104.325 34.2164 104.325 34.2164 105.234 34.2261C106.392 34.2374 106.392 34.2374 106.392 33.0767C106.392 32.814 106.392 32.5498 106.392 32.2872C106.405 31.376 106.511 31.2642 107.449 31.1669C108.741 31.0324 109.034 31.2869 109.066 32.5692C109.066 32.7103 109.074 32.8513 109.074 32.994C109.085 34.3347 108.946 34.1937 110.366 34.2229C110.429 34.2229 110.49 34.2229 110.553 34.2229C112.298 34.1953 112.518 34.466 112.219 36.1991C112.159 36.5476 111.938 36.5509 111.685 36.5493C111.003 36.5493 110.321 36.5493 109.641 36.5201C109.31 36.5087 109.069 36.5849 109.061 36.9675C109.026 38.4428 108.895 39.9197 109.061 41.395C109.201 42.6806 110.035 43.2545 111.311 42.8865C111.857 42.7244 112.113 42.8038 112.197 43.3728C112.265 43.6496 112.354 43.9207 112.466 44.1834C112.687 44.8773 112.631 45.0605 111.969 45.2178C109.868 45.7155 108.261 45.4528 106.959 43.8154C106.516 43.2594 106.437 42.5898 106.412 41.9219C106.382 41.1324 106.412 40.3428 106.412 39.5533L106.359 39.5501Z" fill="#1A7FBE"/>
<path d="M76.1772 12.7102C77.3616 12.6652 78.5308 12.9844 79.5209 13.623C80.1529 14.0347 80.2059 14.3347 79.7095 14.8826C79.5854 15.0188 79.4547 15.1485 79.3389 15.2912C78.9468 15.7775 78.5266 15.8408 77.9359 15.557C76.3542 14.7951 74.7378 15.0172 73.7633 16.0564C72.8583 17.021 72.6283 19.0556 73.2752 20.3558C73.8444 21.4906 74.9992 22.0969 76.4601 22.0029C77.0188 21.9633 77.5617 21.8033 78.0501 21.5344C78.644 21.2101 79.0792 21.3366 79.5391 21.7743C80.5682 22.747 80.5665 23.1604 79.2082 23.6808C76.8274 24.6 74.4267 24.7087 72.2958 23.0518C70.403 21.5798 69.9431 19.5273 70.3782 17.3095C70.9705 14.3363 73.0585 12.741 76.1772 12.7102Z" fill="#1A7FBE"/>
<path d="M84.7009 16.3462C84.7009 18.5727 84.7009 20.7985 84.7009 23.0239C84.7009 23.9966 84.6396 24.0582 83.6585 24.0631C82.057 24.0631 82.0305 24.0631 82.0223 22.4954C82.0024 18.3273 81.9792 14.1576 82.014 9.98954C82.0322 8.01818 82.1314 8.30026 83.9563 8.29377C84.317 8.29377 84.5156 8.47858 84.6033 8.82552C84.6652 9.10171 84.693 9.38421 84.686 9.66692V16.3462H84.7009Z" fill="#1A7FBE"/>
<path d="M114.574 39.7316C114.574 38.0942 114.587 36.4568 114.574 34.8194C114.574 34.3169 114.763 34.1564 115.261 34.1612C117.508 34.1888 117.178 33.9262 117.207 36.0029C117.241 38.4071 117.259 40.813 117.281 43.2172C117.281 43.6014 117.281 43.9873 117.254 44.3699C117.205 45.2096 117.107 45.2972 116.262 45.3199C114.576 45.3653 114.576 45.3653 114.578 43.7344V39.7316H114.574Z" fill="#1A7FBE"/>
<path d="M147.987 8.54202C147.996 9.04358 147.903 9.54188 147.712 10.0077C147.522 10.4734 147.239 10.8973 146.88 11.2544C146.52 11.6116 146.091 11.8947 145.619 12.0874C145.146 12.28 144.639 12.3782 144.127 12.3761C141.925 12.3956 140.212 10.7063 140.188 8.54202C140.185 8.02665 140.29 7.51625 140.496 7.04196C140.702 6.56766 141.004 6.13942 141.384 5.78337C141.764 5.42731 142.215 5.15091 142.708 4.97102C143.201 4.79113 143.726 4.71154 144.251 4.73709C145.26 4.76091 146.218 5.174 146.918 5.88652C147.617 6.59904 148.001 7.55338 147.987 8.54202ZM144.124 5.37097C142.319 5.37097 140.836 6.75385 140.815 8.46582C140.806 8.88627 140.882 9.30424 141.039 9.69576C141.196 10.0873 141.43 10.4446 141.727 10.7474C142.025 11.0501 142.381 11.2922 142.775 11.4599C143.168 11.6276 143.592 11.7175 144.021 11.7244C145.874 11.7244 147.33 10.3561 147.33 8.59714C147.339 8.17808 147.263 7.76141 147.106 7.37143C146.95 6.98145 146.715 6.62595 146.417 6.32567C146.118 6.02538 145.762 5.78632 145.368 5.62241C144.974 5.4585 144.551 5.37303 144.124 5.37097Z" fill="#1A7FBE"/>
<path d="M95.5369 56.6753C95.5369 57.1795 95.5468 57.6853 95.5369 58.1895C95.5369 58.3743 95.5518 58.6126 95.2242 58.5964C94.9413 58.5834 94.9115 58.4099 94.88 58.1911C94.8486 57.9722 95.0141 57.6383 94.7344 57.5426C94.6054 57.5005 94.3655 57.7501 94.1901 57.8863C93.7057 58.2499 93.1219 58.464 92.5129 58.5016C91.904 58.5391 91.2974 58.3983 90.7703 58.0971C89.7875 57.5361 89.2366 56.3138 89.4285 55.1189C89.6452 53.7798 90.633 52.8006 91.9301 52.6401C93.5962 52.4326 94.7609 53.0227 95.3532 54.3959C95.661 55.1303 95.5534 55.9117 95.5369 56.6753ZM94.8751 55.6118C94.8751 54.2467 93.8212 53.1314 92.5224 53.1378C91.2236 53.1443 90.1466 54.237 90.1482 55.5956C90.1499 56.9541 91.1409 57.943 92.5174 57.943C93.1421 57.9304 93.7372 57.68 94.1767 57.2449C94.6161 56.8097 94.8655 56.224 94.8718 55.6118H94.8751Z" fill="#1F3660"/>
<path d="M71.0117 54.1314C70.8793 51.2505 74.1552 49.4202 76.1572 49.9649C76.7303 50.1324 77.2771 50.3768 77.7819 50.6912C77.9969 50.8177 78.2153 50.9717 78.0002 51.2684C77.7653 51.5926 77.6081 51.2797 77.4576 51.1825C76.8241 50.754 76.0687 50.5326 75.2992 50.5498C74.5297 50.5669 73.7854 50.8218 73.1725 51.2781C71.9217 52.2119 71.3525 54.099 71.8853 55.5483C72.4693 57.1355 73.8607 58.1649 75.406 58.1422C76.172 58.1293 76.8322 57.7888 77.4973 57.4581C77.6627 57.3786 77.8613 57.1095 78.0234 57.3527C78.1856 57.5959 77.9638 57.792 77.7322 57.9217C76.1621 58.8053 74.5655 58.7761 73.012 57.9347C71.5726 57.1484 71.0216 55.8434 71.0117 54.1314Z" fill="#1F3660"/>
<path d="M85.8845 55.8047C85.2443 55.8047 84.6056 55.8047 83.9653 55.8047C83.3979 55.8047 83.3201 55.9263 83.5269 56.4532C84.0233 57.7323 85.4296 58.2933 86.7978 57.7502C87.046 57.6529 87.2842 57.5297 87.5357 57.4373C87.6582 57.3919 87.8269 57.293 87.9129 57.4681C87.9824 57.6091 87.8832 57.7437 87.7657 57.8361C87.449 58.0638 87.0948 58.2365 86.7184 58.3468C86.0137 58.6031 85.2359 58.5878 84.5422 58.304C83.8485 58.0203 83.2905 57.4892 82.9809 56.818C82.3274 55.4092 82.9015 53.5497 84.2582 52.8542C85.183 52.3792 86.1658 52.4586 87.0543 52.9336C87.999 53.4378 88.4109 54.2987 88.406 55.3573C88.406 55.6961 88.2819 55.8161 87.9278 55.8031C87.2478 55.7837 86.5662 55.8047 85.8845 55.8047ZM85.5537 55.213C86.1708 55.213 86.7879 55.213 87.405 55.213C87.7359 55.213 87.8385 55.0752 87.7491 54.7558C87.4861 53.8139 86.6952 53.1752 85.7638 53.1654C85.2679 53.1648 84.7841 53.3149 84.379 53.5951C83.9739 53.8754 83.6675 54.2718 83.5021 54.7299C83.378 55.1157 83.5021 55.2357 83.8959 55.2162C84.4485 55.1936 85.0044 55.2098 85.5586 55.2098L85.5537 55.213Z" fill="#1F3660"/>
<path d="M153.464 54.4478V51.1033C153.452 51.0028 153.456 50.9011 153.476 50.8018C153.563 50.5602 153.418 50.1225 153.833 50.1371C154.278 50.1517 154.086 50.5845 154.093 50.8164C154.132 52.1311 154.122 53.4475 154.147 54.7623C154.147 54.9698 154.051 55.273 154.296 55.3654C154.505 55.4432 154.627 55.1628 154.769 55.0331C155.618 54.2938 156.455 53.5432 157.312 52.8153C157.466 52.6856 157.643 52.3678 157.915 52.6823C158.135 52.945 157.87 53.0812 157.714 53.2238C157.155 53.7329 156.593 54.2403 156.023 54.738C155.709 55.012 155.568 55.213 155.941 55.6118C156.603 56.3252 157.183 57.1195 157.784 57.8815C157.913 58.0436 158.128 58.29 157.903 58.4667C157.645 58.6678 157.45 58.3938 157.299 58.2171C156.717 57.5346 156.141 56.8407 155.575 56.1501C155.398 55.9361 155.259 55.5924 154.905 55.7772C154.551 55.962 154.028 56.1014 154.056 56.6818C154.078 57.1439 154.074 57.6091 154.081 58.0744C154.081 58.3127 154.055 58.5462 153.739 58.5381C153.423 58.53 153.476 58.256 153.474 58.0793C153.462 56.865 153.474 55.6475 153.474 54.4349L153.464 54.4478Z" fill="#1F3660"/>
<path d="M98.2587 53.4121C98.755 53.1787 99.0297 52.801 99.4797 52.6615C101.149 52.1492 102.714 53.0944 102.941 54.8047C103.08 55.852 102.989 56.9123 102.941 57.958C102.933 58.1476 102.977 58.4249 102.688 58.433C102.357 58.4427 102.315 58.159 102.31 57.9093C102.292 56.9982 102.289 56.0871 102.269 55.176C102.241 53.9001 101.525 53.1868 100.241 53.1382C99.7203 53.1164 99.2121 53.296 98.8255 53.638C98.4389 53.9801 98.2051 54.4574 98.1743 54.9669C98.1346 55.7953 98.1478 56.6253 98.1313 57.4554C98.1313 57.6986 98.0932 57.9417 98.0734 58.1817C98.0535 58.4216 97.898 58.4946 97.6978 58.5059C97.4595 58.527 97.4513 58.3308 97.4248 58.1817C97.3987 58.0208 97.386 57.8582 97.3867 57.6953C97.3867 56.2773 97.3867 54.8593 97.3867 53.4413C97.3891 53.2787 97.4007 53.1163 97.4215 52.955C97.4447 52.7637 97.5026 52.5821 97.7375 52.5675C97.9724 52.5529 98.0684 52.6875 98.1131 52.8917C98.1577 53.049 98.2041 53.2111 98.2587 53.4121Z" fill="#1F3660"/>
<path d="M117.264 55.437C117.264 56.186 117.264 56.935 117.264 57.6839C117.272 57.8858 117.248 58.0876 117.193 58.2822C117.167 58.3473 117.127 58.4057 117.075 58.453C117.023 58.5003 116.96 58.535 116.892 58.5545C116.766 58.5691 116.66 58.4216 116.652 58.2643C116.612 57.4829 116.213 57.8282 115.881 58.0374C114.635 58.8155 112.848 58.5237 112.075 57.4197C111.775 56.9544 111.624 56.4118 111.642 55.8617C111.63 54.9506 111.642 54.0395 111.642 53.1284C111.642 52.8722 111.653 52.6129 111.996 52.6031C112.338 52.5934 112.352 52.8495 112.363 53.1089C112.41 54.1595 112.266 55.2165 112.436 56.2622C112.616 57.3808 113.467 58.0698 114.61 57.9514C115.854 57.8234 116.542 57.3532 116.571 56.006C116.59 55.0544 116.582 54.1027 116.599 53.1511C116.599 52.9322 116.496 52.6193 116.895 52.6031C117.294 52.5869 117.193 52.9095 117.196 53.1251C117.206 53.8952 117.196 54.6637 117.196 55.4321L117.264 55.437Z" fill="#1F3660"/>
<path d="M121.327 58.4991C120.594 58.5302 119.875 58.2998 119.302 57.8506C119.108 57.7031 118.865 57.5264 119.102 57.2573C119.338 56.9882 119.485 57.2184 119.666 57.3627C120.516 58.0452 121.923 58.1554 122.674 57.6204C122.981 57.4016 123.17 57.1341 123.12 56.7499C123.071 56.3656 122.804 56.1743 122.459 56.0365C121.767 55.7658 120.999 55.8015 120.318 55.474C119.59 55.1222 119.252 54.7136 119.292 54.0489C119.317 53.7234 119.448 53.4145 119.667 53.1684C119.886 52.9223 120.181 52.7524 120.506 52.6839C121.535 52.4407 122.521 52.465 123.327 53.2708C123.478 53.4199 123.766 53.595 123.59 53.8025C123.415 54.01 123.094 53.9225 122.874 53.728C122.366 53.2659 121.762 53.1443 121.094 53.2011C120.46 53.2546 119.997 53.5756 119.955 54.036C119.902 54.6374 120.308 54.9212 120.809 55.0687C121.362 55.2308 121.934 55.3216 122.497 55.4513C123.239 55.6215 123.711 56.0787 123.776 56.6801C123.853 57.4097 123.531 57.9155 122.783 58.2478C122.324 58.44 121.825 58.526 121.327 58.4991Z" fill="#1F3660"/>
<path d="M146.969 55.5388C146.969 57.2815 148.594 58.392 150.263 57.776C150.417 57.7176 150.561 57.6366 150.715 57.5782C150.935 57.4955 151.221 57.228 151.376 57.4663C151.568 57.7565 151.199 57.9089 150.989 58.0435C150.646 58.2694 150.259 58.4245 149.852 58.4994C149.445 58.5744 149.027 58.5676 148.623 58.4795C148.219 58.3915 147.838 58.2239 147.502 57.9871C147.166 57.7502 146.883 57.4489 146.669 57.1016C145.797 55.6733 146.382 53.6128 147.876 52.8314C148.868 52.3093 150.357 52.5217 151.155 53.3177C151.32 53.4798 151.583 53.7052 151.362 53.9338C151.14 54.1624 150.951 53.8624 150.782 53.7457C149.341 52.7503 147.9 53.0681 147.167 54.545C147.025 54.857 146.957 55.197 146.969 55.5388Z" fill="#1F3660"/>
<path d="M133.776 55.3973C133.799 57.453 135.495 58.5051 137.353 57.6556C137.409 57.6297 137.467 57.6102 137.518 57.5875C137.755 57.4935 138.081 57.2146 138.225 57.4562C138.39 57.7415 138.005 57.9296 137.773 58.069C135.821 59.246 133.202 58.0804 133.195 55.9339C133.195 53.9885 134.454 52.043 136.835 52.6575C137.404 52.805 137.808 53.1665 138.184 53.5767C138.283 53.6853 138.357 53.8264 138.232 53.9544C138.106 54.0825 137.962 54.0258 137.836 53.9463C137.699 53.8556 137.567 53.7582 137.441 53.6545C136.716 53.0725 135.914 52.9558 135.076 53.3546C134.206 53.768 133.725 54.4505 133.776 55.3973Z" fill="#1F3660"/>
<path d="M125.846 55.2342C125.846 54.8289 125.83 54.4236 125.846 54.0199C125.871 53.566 125.712 53.326 125.211 53.3714C124.996 53.3892 124.696 53.4314 124.691 53.1072C124.687 52.7829 124.991 52.7748 125.199 52.804C125.749 52.8851 125.812 52.5657 125.83 52.1555C125.843 51.8313 125.873 51.507 125.906 51.1828C125.904 51.1104 125.932 51.0403 125.982 50.9877C126.033 50.9352 126.103 50.9045 126.177 50.9023C126.315 50.9023 126.382 51.032 126.424 51.1455C126.531 51.4956 126.571 51.8625 126.54 52.2269C126.526 52.637 126.69 52.8316 127.125 52.7813C127.29 52.7661 127.457 52.7688 127.622 52.7894C127.787 52.8056 128.038 52.7359 128.08 52.9839C128.126 53.2579 127.852 53.2725 127.679 53.3601C127.64 53.3721 127.6 53.3776 127.559 53.3763C126.54 53.506 126.536 53.506 126.538 54.5257C126.538 55.2147 126.525 55.9037 126.566 56.5895C126.616 57.4001 127.082 57.82 127.908 57.8702C128.11 57.8832 128.426 57.7503 128.404 58.1199C128.393 58.4312 128.12 58.4717 127.858 58.483C126.834 58.53 126.005 57.8718 125.901 56.8618C125.869 56.3165 125.866 55.77 125.891 55.2244L125.846 55.2342Z" fill="#1F3660"/>
<path d="M114.434 31.0266C114.445 30.122 115.096 29.4492 115.949 29.4492C116.776 29.4492 117.529 30.2485 117.503 31.0964C117.48 31.8486 116.725 32.5246 115.929 32.5035C115.134 32.4825 114.422 31.7805 114.434 31.0266Z" fill="#1A7FBE"/>
<path d="M109.27 56.0007C109.27 56.9507 109.27 57.9007 109.27 58.8507C109.257 60.3519 107.931 61.0264 106.863 61.1771C106.568 61.2177 106.376 61.0993 106.35 60.7961C106.323 60.493 106.56 60.4524 106.796 60.4265C108.085 60.2855 108.6 59.778 108.616 58.4633C108.648 56.7869 108.616 55.109 108.616 53.4376C108.616 53.2754 108.616 53.1133 108.616 52.9512C108.616 52.7453 108.616 52.5475 108.929 52.5459C109.242 52.5443 109.291 52.7226 109.29 52.9739C109.29 53.9839 109.29 54.9955 109.29 56.0055L109.27 56.0007Z" fill="#1F3660"/>
<path d="M80.4883 53.6772C80.4883 54.7278 80.4651 55.7848 80.4883 56.8305C80.5131 57.6783 80.6902 57.8421 81.5505 57.9945C81.668 58.0155 81.8268 57.9945 81.8367 58.1566C81.8466 58.3187 81.7341 58.4403 81.5521 58.497C81.0558 58.6592 80.26 58.2879 79.9969 57.7545C79.8656 57.5032 79.7933 57.2262 79.7852 56.9439C79.7852 54.8818 79.7907 52.8191 79.8017 50.7559C79.8017 50.6764 79.8216 50.5937 79.8249 50.5143C79.8249 50.2938 79.8828 50.1025 80.1558 50.0977C80.4751 50.0977 80.4354 50.336 80.437 50.5305C80.437 51.5827 80.437 52.6381 80.437 53.687L80.4883 53.6772Z" fill="#1F3660"/>
<path d="M140.02 54.1246C140.02 53.2751 140.02 52.4256 140.02 51.5761C140.017 51.4137 140.026 51.2512 140.045 51.0898C140.078 50.8579 140.194 50.6034 140.434 50.6115C140.674 50.6196 140.659 50.9196 140.66 51.1076C140.672 52.8066 140.67 54.5121 140.68 56.2046C140.68 56.5062 140.72 56.8077 140.743 57.1092C140.781 57.6248 141.037 57.9442 141.585 57.9717C141.795 57.9831 141.976 58.0171 141.956 58.2635C141.933 58.5375 141.701 58.5505 141.491 58.5472C140.677 58.5327 140.071 57.9328 140.038 57.0347C140.003 56.062 140.038 55.0893 140.038 54.1165L140.02 54.1246Z" fill="#1F3660"/>
<path d="M144.263 55.4993V58.1111C144.263 58.3283 144.242 58.5229 143.944 58.5212C143.646 58.5196 143.613 58.3332 143.613 58.1127C143.613 56.391 143.613 54.6709 143.613 52.9492C143.613 52.6995 143.713 52.5731 143.967 52.5553C144.27 52.5342 144.298 52.732 144.298 52.9492C144.298 53.7987 144.298 54.6498 144.298 55.4993H144.263Z" fill="#1F3660"/>
<path d="M143.905 51.2445C143.698 51.1538 143.472 51.0646 143.503 50.7955C143.529 50.5799 143.678 50.4113 143.922 50.4712C144.137 50.5199 144.363 50.6334 144.343 50.9025C144.327 51.1327 144.11 51.1927 143.905 51.2445Z" fill="#1F3660"/>
<path d="M109.105 50.5879C109.317 50.6041 109.357 50.7678 109.358 50.9283C109.358 51.2266 109.102 51.1894 108.915 51.2153C108.728 51.2412 108.655 51.1099 108.675 50.9527C108.706 50.7176 108.882 50.6284 109.105 50.5879Z" fill="#1F3660"/>
<path d="M145.654 10.3076C145.049 10.4892 144.662 10.3368 144.405 9.85206C144.27 9.62729 144.121 9.41074 143.959 9.20359C143.922 9.14252 143.867 9.0941 143.801 9.06505C143.736 9.03599 143.662 9.02775 143.591 9.04147C143.381 9.07876 143.426 9.24574 143.426 9.37706C143.415 9.57903 143.415 9.78141 143.426 9.98338C143.441 10.246 143.381 10.3935 143.059 10.4C142.736 10.4065 142.642 10.2606 142.645 9.9623C142.658 9.03012 142.645 8.09956 142.645 7.16737C142.645 6.96472 142.622 6.73127 142.929 6.73127C143.505 6.73127 144.088 6.6567 144.653 6.8253C144.857 6.8709 145.042 6.97606 145.184 7.12688C145.325 7.27771 145.417 7.46708 145.446 7.66994C145.512 8.09956 145.378 8.50486 144.979 8.71237C144.581 8.91988 144.728 9.05769 144.913 9.28952C145.165 9.58781 145.383 9.92502 145.654 10.3076ZM143.429 7.83369C143.391 8.13198 143.419 8.393 143.813 8.3476C144.162 8.30545 144.612 8.3476 144.622 7.82882C144.632 7.35057 144.233 7.40245 143.914 7.37165C143.562 7.33112 143.353 7.45271 143.429 7.83369Z" fill="#1A7FBE"/>
</g>
<defs>
<clipPath id="clip0_4188_12488">
<rect width="158" height="71" fill="white"/>
</clipPath>
</defs>
</svg>
