<svg width="22" height="22" viewBox="0 0 22 22" fill="none" xmlns="http://www.w3.org/2000/svg">
<path d="M6.0487 6.00449C5.82088 5.70074 5.38995 5.63917 5.0862 5.86699C4.78244 6.09481 4.72088 6.52574 4.9487 6.82949L7.51536 10.2517C9.25703 12.5739 12.7404 12.5739 14.482 10.2517L17.0487 6.82949C17.2765 6.52574 17.215 6.09481 16.9112 5.86699C16.6074 5.63917 16.1765 5.70074 15.9487 6.00449L13.382 9.42671C12.1904 11.0156 9.80703 11.0156 8.61536 9.42671L6.0487 6.00449Z" fill="#6BC9E3"/>
<path fill-rule="evenodd" clip-rule="evenodd" d="M16.4987 3.66699H5.4987C3.47365 3.66699 1.83203 5.30861 1.83203 7.33366V14.667C1.83203 16.692 3.47365 18.3337 5.4987 18.3337H16.4987C18.5237 18.3337 20.1654 16.692 20.1654 14.667V7.33366C20.1654 5.30861 18.5237 3.66699 16.4987 3.66699ZM5.4987 5.04199H16.4987C17.7643 5.04199 18.7904 6.06801 18.7904 7.33366V14.667C18.7904 15.9326 17.7643 16.9587 16.4987 16.9587H5.4987C4.23304 16.9587 3.20703 15.9326 3.20703 14.667V7.33366C3.20703 6.06801 4.23305 5.04199 5.4987 5.04199Z" fill="#6BC9E3"/>
</svg>
