<svg width="34" height="34" viewBox="0 0 34 34" fill="none" xmlns="http://www.w3.org/2000/svg">
<path d="M9.3487 9.27949C8.99662 8.81005 8.33064 8.71491 7.8612 9.06699C7.39176 9.41907 7.29662 10.0851 7.6487 10.5545L11.6154 15.8434C14.307 19.4323 19.6904 19.4323 22.382 15.8434L26.3487 10.5545C26.7008 10.0851 26.6056 9.41907 26.1362 9.06699C25.6668 8.71491 25.0008 8.81005 24.6487 9.27949L20.682 14.5684C18.8404 17.0239 15.157 17.0239 13.3154 14.5684L9.3487 9.27949Z" fill="#1F3660"/>
<path fill-rule="evenodd" clip-rule="evenodd" d="M25.4987 5.66699H8.4987C5.36908 5.66699 2.83203 8.20405 2.83203 11.3337V22.667C2.83203 25.7966 5.36908 28.3337 8.4987 28.3337H25.4987C28.6283 28.3337 31.1654 25.7966 31.1654 22.667V11.3337C31.1654 8.20405 28.6283 5.66699 25.4987 5.66699ZM8.4987 7.79199H25.4987C27.4547 7.79199 29.0404 9.37765 29.0404 11.3337V22.667C29.0404 24.623 27.4547 26.2087 25.4987 26.2087H8.4987C6.54269 26.2087 4.95703 24.623 4.95703 22.667V11.3337C4.95703 9.37765 6.54269 7.79199 8.4987 7.79199Z" fill="#1F3660"/>
</svg>
