<svg width="35" height="34" viewBox="0 0 35 34" fill="none" xmlns="http://www.w3.org/2000/svg">
<path fill-rule="evenodd" clip-rule="evenodd" d="M9.58984 9.91634C9.98105 9.91634 10.2982 9.59921 10.2982 9.20801C10.2982 8.81681 9.98105 8.49967 9.58984 8.49967C9.19864 8.49967 8.88151 8.81681 8.88151 9.20801C8.88151 9.59921 9.19864 9.91634 9.58984 9.91634ZM9.58984 12.0413C11.1547 12.0413 12.4232 10.7728 12.4232 9.20801C12.4232 7.6432 11.1547 6.37467 9.58984 6.37467C8.02504 6.37467 6.75651 7.6432 6.75651 9.20801C6.75651 10.7728 8.02504 12.0413 9.58984 12.0413Z" fill="#1F3660"/>
<path fill-rule="evenodd" clip-rule="evenodd" d="M31.5482 23.3747C31.5482 19.8539 28.694 16.9997 25.1732 16.9997C21.6524 16.9997 18.7982 19.8539 18.7982 23.3747C18.8926 24.313 19.1394 25.209 19.5173 26.0441C20.2658 27.6981 21.5288 29.1132 23.1407 30.1445C23.9181 30.6419 24.8377 30.8119 25.7148 30.6638C26.2274 30.5772 26.7254 30.3821 27.1721 30.0801C29.4713 28.526 31.2707 26.1332 31.5482 23.3747ZM20.9244 23.271C21.1639 25.2998 22.3715 27.1296 24.2859 28.3545C24.7893 28.6766 25.4599 28.6725 25.9821 28.3196C27.8829 27.0348 29.1881 25.1925 29.4219 23.2695C29.3661 20.9709 27.4852 19.1247 25.1732 19.1247C22.8606 19.1247 20.9795 20.9717 20.9244 23.271Z" fill="#1F3660"/>
<path fill-rule="evenodd" clip-rule="evenodd" d="M25.1732 24.083C25.5644 24.083 25.8815 23.7659 25.8815 23.3747C25.8815 22.9835 25.5644 22.6663 25.1732 22.6663C24.782 22.6663 24.4648 22.9835 24.4648 23.3747C24.4648 23.7659 24.782 24.083 25.1732 24.083ZM25.1732 26.208C26.738 26.208 28.0065 24.9395 28.0065 23.3747C28.0065 21.8099 26.738 20.5413 25.1732 20.5413C23.6084 20.5413 22.3398 21.8099 22.3398 23.3747C22.3398 24.9395 23.6084 26.208 25.1732 26.208Z" fill="#1F3660"/>
<path d="M10.7176 16.348C10.0267 16.5854 9.28009 16.6131 8.57729 16.4264C8.53875 16.6958 8.44207 17.0118 8.27525 17.3885C8.00684 17.9945 7.62233 18.6207 7.19025 19.3244C7.12807 19.4256 7.06489 19.5285 7.00094 19.6332C6.51938 20.4212 5.99004 21.3162 5.69176 22.224C5.38569 23.1555 5.28319 24.2206 5.80616 25.2665C6.74198 27.1382 8.45293 27.7998 9.96832 27.9006C11.4349 27.9982 12.8884 27.5929 13.6781 27.1191C14.2147 26.7972 14.9882 26.7372 16.0571 26.997C17.1131 27.2536 18.2827 27.7803 19.4601 28.3908C20.0373 28.6901 20.6003 29.0008 21.1434 29.3006L21.161 29.3103C21.7033 29.6096 22.2327 29.9016 22.7123 30.1443C23.1844 30.3832 23.6577 30.6001 24.0848 30.7301C24.4427 30.8391 25.0712 30.9886 25.6483 30.7C25.6711 30.6886 25.6933 30.6766 25.7148 30.6638C24.8377 30.8119 23.9181 30.6419 23.1407 30.1445C21.5288 29.1132 20.2658 27.6981 19.5173 26.0441C18.5595 25.5858 17.5474 25.1723 16.5588 24.9321C15.2592 24.6163 13.8192 24.5563 12.5848 25.2969C12.194 25.5314 11.1768 25.8514 10.1094 25.7803C9.09083 25.7125 8.20456 25.3117 7.70683 24.3162C7.52148 23.9455 7.50753 23.5053 7.71058 22.8873C7.92142 22.2457 8.32176 21.547 8.81416 20.7412C8.87332 20.6444 8.93399 20.5458 8.99561 20.4457C9.41901 19.7574 9.88725 18.9963 10.2182 18.2489C10.4728 17.6741 10.6844 17.0273 10.7176 16.348Z" fill="#1F3660"/>
<path fill-rule="evenodd" clip-rule="evenodd" d="M15.9648 9.20801C15.9648 5.68719 13.1107 2.83301 9.58984 2.83301C6.06903 2.83301 3.21484 5.68719 3.21484 9.20801C3.49619 12.0049 5.13169 14.4258 7.55735 15.9778C7.87752 16.1826 8.2218 16.332 8.57729 16.4264C9.28009 16.6131 10.0267 16.5854 10.7176 16.348C11.0217 16.2436 11.3149 16.0986 11.5888 15.9134C13.888 14.3593 15.6874 11.9665 15.9648 9.20801ZM5.34108 9.10429C5.58056 11.1331 6.78818 12.9629 8.7026 14.1878C9.20601 14.5099 9.87662 14.5059 10.3988 14.1529C12.2996 12.8681 13.6048 11.0259 13.8386 9.10285C13.7828 6.80423 11.9019 4.95801 9.58984 4.95801C7.2773 4.95801 5.39615 6.805 5.34108 9.10429Z" fill="#1F3660"/>
<path fill-rule="evenodd" clip-rule="evenodd" d="M9.58984 12.0413C11.1547 12.0413 12.4232 10.7728 12.4232 9.20801C12.4232 7.6432 11.1547 6.37467 9.58984 6.37467C8.02504 6.37467 6.75651 7.6432 6.75651 9.20801C6.75651 10.7728 8.02504 12.0413 9.58984 12.0413ZM9.58984 9.91634C9.98105 9.91634 10.2982 9.59921 10.2982 9.20801C10.2982 8.81681 9.98105 8.49967 9.58984 8.49967C9.19864 8.49967 8.88151 8.81681 8.88151 9.20801C8.88151 9.59921 9.19864 9.91634 9.58984 9.91634Z" fill="#1F3660"/>
</svg>
