<svg width="22" height="22" viewBox="0 0 22 22" fill="none" xmlns="http://www.w3.org/2000/svg">
<path fill-rule="evenodd" clip-rule="evenodd" d="M5.95703 6.41634C6.21016 6.41634 6.41536 6.21114 6.41536 5.95801C6.41536 5.70488 6.21016 5.49967 5.95703 5.49967C5.7039 5.49967 5.4987 5.70488 5.4987 5.95801C5.4987 6.21114 5.7039 6.41634 5.95703 6.41634ZM5.95703 7.79134C6.96955 7.79134 7.79036 6.97053 7.79036 5.95801C7.79036 4.94549 6.96955 4.12467 5.95703 4.12467C4.94451 4.12467 4.1237 4.94549 4.1237 5.95801C4.1237 6.97053 4.94451 7.79134 5.95703 7.79134Z" fill="#6BC9E3"/>
<path fill-rule="evenodd" clip-rule="evenodd" d="M20.1654 15.1247C20.1654 12.8465 18.3185 10.9997 16.0404 10.9997C13.7622 10.9997 11.9154 12.8465 11.9154 15.1247C11.9764 15.7318 12.1361 16.3116 12.3807 16.8519C12.865 17.9222 13.6822 18.8378 14.7252 19.5051C15.2283 19.827 15.8233 19.937 16.3909 19.8412C16.7225 19.7852 17.0447 19.6589 17.3338 19.4635C18.8215 18.4579 19.9858 16.9096 20.1654 15.1247ZM13.2912 15.0576C13.4461 16.3703 14.2275 17.5543 15.4663 18.3469C15.792 18.5553 16.2259 18.5527 16.5638 18.3243C17.7937 17.493 18.6383 16.3009 18.7895 15.0566C18.7534 13.5693 17.5364 12.3747 16.0404 12.3747C14.544 12.3747 13.3268 13.5698 13.2912 15.0576Z" fill="#6BC9E3"/>
<path fill-rule="evenodd" clip-rule="evenodd" d="M16.0404 15.583C16.2935 15.583 16.4987 15.3778 16.4987 15.1247C16.4987 14.8715 16.2935 14.6663 16.0404 14.6663C15.7872 14.6663 15.582 14.8715 15.582 15.1247C15.582 15.3778 15.7872 15.583 16.0404 15.583ZM16.0404 16.958C17.0529 16.958 17.8737 16.1372 17.8737 15.1247C17.8737 14.1122 17.0529 13.2913 16.0404 13.2913C15.0278 13.2913 14.207 14.1122 14.207 15.1247C14.207 16.1372 15.0278 16.958 16.0404 16.958Z" fill="#6BC9E3"/>
<path d="M6.68678 10.578C6.23973 10.7316 5.7566 10.7496 5.30185 10.6287C5.27691 10.803 5.21435 11.0075 5.10641 11.2512C4.93274 11.6434 4.68394 12.0486 4.40436 12.5039C4.36412 12.5694 4.32324 12.636 4.28186 12.7037C3.97026 13.2136 3.62775 13.7927 3.43474 14.3801C3.23669 14.9829 3.17037 15.672 3.50877 16.3488C4.11429 17.5599 5.22138 17.988 6.20193 18.0532C7.15086 18.1164 8.09138 17.8541 8.6024 17.5475C8.94955 17.3392 9.45006 17.3004 10.1417 17.4685C10.8251 17.6346 11.5818 17.9754 12.3437 18.3704C12.7171 18.5641 13.0815 18.7651 13.4329 18.9591L13.4442 18.9654C13.7951 19.159 14.1377 19.348 14.448 19.505C14.7535 19.6596 15.0598 19.7999 15.3361 19.8841C15.5677 19.9546 15.9744 20.0513 16.3478 19.8646C16.3625 19.8572 16.3769 19.8494 16.3909 19.8412C15.8233 19.937 15.2283 19.827 14.7252 19.5051C13.6822 18.8378 12.865 17.9222 12.3807 16.8519C11.7609 16.5554 11.106 16.2878 10.4664 16.1324C9.62544 15.9281 8.69365 15.8893 7.89496 16.3685C7.6421 16.5202 6.98392 16.7272 6.29322 16.6813C5.63414 16.6374 5.06067 16.378 4.73861 15.7339C4.61868 15.494 4.60965 15.2092 4.74103 14.8093C4.87746 14.3941 5.13651 13.942 5.45512 13.4207C5.4934 13.358 5.53265 13.2942 5.57253 13.2294C5.84649 12.7841 6.14947 12.2916 6.36364 11.808C6.52838 11.436 6.66531 11.0176 6.68678 10.578Z" fill="#6BC9E3"/>
<path fill-rule="evenodd" clip-rule="evenodd" d="M10.082 5.95801C10.082 3.67983 8.23521 1.83301 5.95703 1.83301C3.67886 1.83301 1.83203 3.67983 1.83203 5.95801C2.01408 7.76777 3.07234 9.33425 4.64189 10.3385C4.84906 10.471 5.07182 10.5676 5.30185 10.6287C5.7566 10.7496 6.23973 10.7316 6.68678 10.578C6.8835 10.5105 7.07322 10.4166 7.25048 10.2968C8.73819 9.29123 9.90248 7.74295 10.082 5.95801ZM3.20783 5.8909C3.36279 7.20366 4.14419 8.38767 5.38293 9.18024C5.70867 9.38864 6.14259 9.38603 6.48047 9.15764C7.71038 8.32631 8.55492 7.13427 8.70621 5.88997C8.67009 4.40262 7.45307 3.20801 5.95703 3.20801C4.46068 3.20801 3.24347 4.40312 3.20783 5.8909Z" fill="#6BC9E3"/>
<path fill-rule="evenodd" clip-rule="evenodd" d="M5.95703 7.79134C6.96955 7.79134 7.79036 6.97053 7.79036 5.95801C7.79036 4.94549 6.96955 4.12467 5.95703 4.12467C4.94451 4.12467 4.1237 4.94549 4.1237 5.95801C4.1237 6.97053 4.94451 7.79134 5.95703 7.79134ZM5.95703 6.41634C6.21016 6.41634 6.41536 6.21114 6.41536 5.95801C6.41536 5.70488 6.21016 5.49967 5.95703 5.49967C5.7039 5.49967 5.4987 5.70488 5.4987 5.95801C5.4987 6.21114 5.7039 6.41634 5.95703 6.41634Z" fill="#6BC9E3"/>
</svg>
