<svg width="25" height="26" viewBox="0 0 25 26" fill="none" xmlns="http://www.w3.org/2000/svg">
<path d="M24.751 7.8002C24.751 7.8002 24.5068 6.00762 23.7549 5.22051C22.8027 4.18457 21.7383 4.17949 21.25 4.11855C17.7539 3.85449 12.5049 3.85449 12.5049 3.85449H12.4951C12.4951 3.85449 7.24609 3.85449 3.75 4.11855C3.26172 4.17949 2.19727 4.18457 1.24512 5.22051C0.493164 6.00762 0.253906 7.8002 0.253906 7.8002C0.253906 7.8002 0 9.90762 0 12.01V13.9803C0 16.0826 0.249023 18.19 0.249023 18.19C0.249023 18.19 0.493164 19.9826 1.24023 20.7697C2.19238 21.8057 3.44238 21.7701 3.99902 21.8818C6.00098 22.0799 12.5 22.1408 12.5 22.1408C12.5 22.1408 17.7539 22.1307 21.25 21.8717C21.7383 21.8107 22.8027 21.8057 23.7549 20.7697C24.5068 19.9826 24.751 18.19 24.751 18.19C24.751 18.19 25 16.0877 25 13.9803V12.01C25 9.90762 24.751 7.8002 24.751 7.8002ZM9.91699 16.3721V9.06465L16.6699 12.7311L9.91699 16.3721Z" fill="#6BC9E3"/>
</svg>
