<svg width="58" height="38" viewBox="0 0 58 38" fill="none" xmlns="http://www.w3.org/2000/svg">
<path d="M1.96214 37.1872L0.384884 31.6333L5.98331 33.0443L1.96214 37.1872ZM57.4844 3.96777L57.3652 4.45335C56.8929 4.3374 56.4188 4.22101 55.943 4.10475L56.0616 3.61904L56.1803 3.13332C56.6568 3.24974 57.1314 3.36626 57.6036 3.48219L57.4844 3.96777ZM53.2082 2.93331L53.0939 3.42008C52.1471 3.19778 51.1957 2.98101 50.2408 2.77448L50.3465 2.28578L50.4523 1.79708C51.4141 2.00514 52.3715 2.22327 53.3224 2.44655L53.2082 2.93331ZM47.4711 1.70101L47.3782 2.19231C46.421 2.01143 45.4623 1.84551 44.5037 1.69922L44.5791 1.20494L44.6545 0.710665C45.6263 0.858951 46.5967 1.02693 47.5639 1.2097L47.4711 1.70101ZM41.6708 0.825563L41.6178 1.32274C40.6494 1.21941 39.683 1.14104 38.7201 1.09242L38.7453 0.593061L38.7705 0.0936968C39.7538 0.143338 40.7388 0.223274 41.7239 0.328386L41.6708 0.825563ZM35.8138 0.541087L35.8222 1.04101C34.853 1.05749 33.8893 1.10964 32.9327 1.20245L32.8844 0.704792L32.8362 0.207129C33.8211 0.11156 34.8115 0.0580469 35.8053 0.0411591L35.8138 0.541087ZM29.9815 1.11877L30.0752 1.60991C29.1332 1.78962 28.1999 2.01511 27.277 2.2914L27.1336 1.8124L26.9902 1.3334C27.9474 1.04686 28.9139 0.813411 29.8878 0.627624L29.9815 1.11877ZM24.3728 2.80577L24.5679 3.26614C23.698 3.63475 22.8387 4.05552 21.9915 4.5331L21.746 4.09754L21.5005 3.66198C22.3808 3.16569 23.2738 2.72841 24.1777 2.34539L24.3728 2.80577ZM19.2747 5.67804L19.5667 6.08385C18.8064 6.63114 18.0571 7.23117 17.3202 7.88773L16.9876 7.51441L16.655 7.1411C17.4174 6.46181 18.1937 5.84006 18.9826 5.27222L19.2747 5.67804ZM14.8997 9.56269L15.266 9.90302C14.6305 10.587 14.0056 11.319 13.3923 12.1018L12.9988 11.7934L12.6052 11.4851C13.2352 10.6809 13.8782 9.92753 14.5334 9.22236L14.8997 9.56269ZM11.2777 14.1696L11.6929 14.4481C11.171 15.2263 10.6587 16.0463 10.1568 16.9098L9.72448 16.6585L9.2922 16.4072C9.80447 15.5259 10.3281 14.6878 10.8624 13.8911L11.2777 14.1696ZM8.32428 19.2341L8.76991 19.4608C8.34363 20.2987 7.92596 21.1719 7.51736 22.0819L7.06123 21.8771L6.6051 21.6723C7.02008 20.7481 7.44473 19.8602 7.87864 19.0074L8.32428 19.2341ZM5.91978 24.5748L6.38421 24.76C6.0339 25.6384 5.69123 26.5473 5.35653 27.4875L4.88548 27.3198L4.41444 27.1521C4.75318 26.2006 5.10024 25.28 5.45535 24.3896L5.91978 24.5748ZM3.94549 30.109L4.42185 30.2609C4.13229 31.1686 3.84956 32.1029 3.57389 33.0642L3.09326 32.9264L2.61263 32.7886C2.89092 31.8181 3.1765 30.8744 3.46914 29.957L3.94549 30.109Z" fill="#1F3660"/>
</svg>
