<svg width="58" height="39" viewBox="0 0 58 39" fill="none" xmlns="http://www.w3.org/2000/svg">
<path d="M1.96214 0.967077L0.384884 6.52096L5.98331 5.10996L1.96214 0.967077ZM57.4844 34.1865L57.3652 33.7009C56.8929 33.8169 56.4188 33.9333 55.943 34.0495L56.0616 34.5353L56.1803 35.021C56.6568 34.9046 57.1314 34.788 57.6036 34.6721L57.4844 34.1865ZM53.2082 35.221L53.0939 34.7342C52.1471 34.9565 51.1957 35.1733 50.2408 35.3798L50.3465 35.8685L50.4523 36.3572C51.4141 36.1492 52.3715 35.931 53.3224 35.7077L53.2082 35.221ZM47.4711 36.4533L47.3782 35.962C46.421 36.1429 45.4623 36.3088 44.5037 36.4551L44.5791 36.9494L44.6545 37.4436C45.6263 37.2953 46.5967 37.1274 47.5639 36.9446L47.4711 36.4533ZM41.6708 37.3287L41.6178 36.8316C40.6494 36.9349 39.683 37.0133 38.7201 37.0619L38.7453 37.5612L38.7705 38.0606C39.7538 38.011 40.7388 37.931 41.7239 37.8259L41.6708 37.3287ZM35.8138 37.6132L35.8222 37.1133C34.853 37.0968 33.8893 37.0447 32.9327 36.9518L32.8844 37.4495L32.8362 37.9472C33.8211 38.0427 34.8115 38.0962 35.8053 38.1131L35.8138 37.6132ZM29.9815 37.0355L30.0752 36.5444C29.1332 36.3647 28.1999 36.1392 27.277 35.8629L27.1336 36.3419L26.9902 36.8209C27.9474 37.1074 28.9139 37.3409 29.8878 37.5267L29.9815 37.0355ZM24.3728 35.3485L24.5679 34.8882C23.698 34.5195 22.8387 34.0988 21.9915 33.6212L21.746 34.0568L21.5005 34.4923C22.3808 34.9886 23.2738 35.4259 24.1777 35.8089L24.3728 35.3485ZM19.2747 32.4763L19.5667 32.0704C18.8064 31.5232 18.0571 30.9231 17.3202 30.2666L16.9876 30.6399L16.655 31.0132C17.4174 31.6925 18.1937 32.3142 18.9826 32.8821L19.2747 32.4763ZM14.8997 28.5916L15.266 28.2513C14.6305 27.5673 14.0056 26.8353 13.3923 26.0525L12.9988 26.3609L12.6052 26.6692C13.2352 27.4734 13.8782 28.2268 14.5334 28.9319L14.8997 28.5916ZM11.2777 23.9847L11.6929 23.7062C11.171 22.928 10.6587 22.108 10.1568 21.2445L9.72448 21.4958L9.2922 21.7471C9.80447 22.6284 10.3281 23.4665 10.8624 24.2632L11.2777 23.9847ZM8.32428 18.9202L8.76991 18.6935C8.34363 17.8556 7.92596 16.9824 7.51736 16.0724L7.06123 16.2772L6.6051 16.482C7.02008 17.4062 7.44473 18.2941 7.87864 19.1469L8.32428 18.9202ZM5.91978 13.5795L6.38421 13.3943C6.0339 12.5159 5.69123 11.607 5.35653 10.6668L4.88548 10.8345L4.41444 11.0022C4.75318 11.9537 5.10024 12.8743 5.45535 13.7647L5.91978 13.5795ZM3.94549 8.04533L4.42185 7.89338C4.13229 6.98565 3.84956 6.05144 3.57389 5.09006L3.09326 5.22788L2.61263 5.3657C2.89092 6.33622 3.1765 7.27986 3.46914 8.19728L3.94549 8.04533Z" fill="#1F3660"/>
</svg>
