<svg width="40" height="50" viewBox="0 0 40 50" fill="none" xmlns="http://www.w3.org/2000/svg">
<path fill-rule="evenodd" clip-rule="evenodd" d="M20.3075 49.9708C19.9267 49.9708 19.6338 49.59 19.751 49.2092L26.1658 28.7933C26.3122 28.3539 26.898 28.2368 27.1909 28.6176L32.4341 35.2959C32.6684 35.5888 32.5512 36.0575 32.1704 36.204L27.9818 37.815L29.4757 41.1835C29.5928 41.3885 29.5342 41.6814 29.3585 41.8279L20.7176 49.8244C20.6004 49.9122 20.454 49.9708 20.3075 49.9708ZM26.9566 30.2286L21.5377 47.4518L28.2454 41.2713L26.6637 37.7271C26.5172 37.4049 26.6637 37.0534 26.9859 36.9362L31.0281 35.3838L26.9566 30.2286Z" fill="#1D3362"/>
<path fill-rule="evenodd" clip-rule="evenodd" d="M19.4289 49.9707C19.2825 49.9707 19.136 49.9122 19.0481 49.795L10.6416 41.8278C10.4658 41.6521 10.4072 41.3884 10.4951 41.1834L12.0183 37.8149L7.80033 36.2039C7.44884 36.0574 7.33167 35.5888 7.566 35.2959L12.8091 28.6175C13.102 28.2367 13.6879 28.3539 13.8343 28.8225L20.044 49.3849C20.044 49.8243 19.7218 49.9122 19.4289 49.9707ZM11.7546 41.2713L18.228 47.4517L13.0434 30.2285L8.97198 35.3838L13.0142 36.9362C13.3364 37.0533 13.4828 37.4048 13.3364 37.727L11.7546 41.2713Z" fill="#1D3362"/>
<path fill-rule="evenodd" clip-rule="evenodd" d="M19.9853 36.7896C19.8388 36.7896 19.6631 36.7311 19.5752 36.6139L12.8383 29.379C12.311 28.8224 13.1605 28.0316 13.6877 28.5881L19.9853 35.3544L26.2829 28.5881C26.8101 28.0316 27.6596 28.8224 27.1323 29.379L20.4247 36.6139C20.3075 36.7311 20.161 36.7896 19.9853 36.7896ZM30.2958 18.1312C29.0948 18.1312 27.8353 18.3655 27.8353 17.5453C27.8353 16.6959 29.0948 16.9595 30.2958 16.9595C30.9988 16.9595 31.5846 16.3737 31.5846 15.6414V12.8002C31.5846 12.0972 30.9988 11.5114 30.2958 11.5114H28.7434C28.3333 11.6578 27.8353 11.6578 27.8353 10.9841C27.8353 10.6326 28.1282 10.3397 28.4212 10.3397H30.2958C31.6432 10.3397 32.7562 11.4528 32.7562 12.8002V15.6414C32.7562 17.0181 31.6432 18.1312 30.2958 18.1312ZM11.5787 18.1312H9.7041C8.32742 18.1312 7.21436 17.0181 7.21436 15.6414V12.8002C7.21436 11.4528 8.32742 10.3397 9.7041 10.3397C11.198 10.3397 12.1646 10.0761 12.1646 11.0427C12.1646 11.3649 11.9009 11.6285 11.5787 11.6285C11.4616 11.6285 11.3444 11.57 11.2565 11.5114H9.7041C8.97182 11.5114 8.386 12.0972 8.386 12.8002V15.6414C8.386 17.2524 10.3192 16.9595 11.5787 16.9595C12.3403 16.9595 12.3403 18.1312 11.5787 18.1312Z" fill="#1D3362"/>
<path fill-rule="evenodd" clip-rule="evenodd" d="M30.12 11.5114C29.7978 11.5114 29.5342 11.2478 29.5342 10.9256C29.5342 5.82895 25.3456 1.20094 20.7176 1.20094H19.2823C14.6543 1.20094 10.4364 5.82895 10.4364 10.9256C10.4364 11.7165 9.26471 11.7165 9.26471 10.9256C9.26471 5.21383 14.0392 0.0292969 19.2823 0.0292969H20.7176C25.9607 0.0292969 30.7058 5.21383 30.7058 10.9256C30.7058 11.2478 30.4422 11.5114 30.12 11.5114ZM18.0521 22.1441H11.8716C10.3485 22.1441 9.11826 20.9139 9.11826 19.3907C9.11826 18.1898 8.85464 16.9596 9.70408 16.9596C10.5242 16.9596 10.2899 18.1898 10.2899 19.3907C10.2899 20.2695 10.9929 20.9725 11.8716 20.9725H18.0521C18.8429 20.9725 18.8429 22.1441 18.0521 22.1441Z" fill="#1D3362"/>
<path fill-rule="evenodd" clip-rule="evenodd" d="M19.2531 23.345C16.9098 23.345 16.9098 19.8008 19.2531 19.8008C21.5671 19.8008 21.5671 23.345 19.2531 23.345ZM19.2531 20.9724C18.4622 20.9724 18.4622 22.1734 19.2531 22.1734C20.0439 22.1734 20.0439 20.9724 19.2531 20.9724Z" fill="#1D3362"/>
<path fill-rule="evenodd" clip-rule="evenodd" d="M19.9853 26.9186C15.0351 26.9186 10.9929 22.8765 10.9929 17.9263V11.0428C10.9929 6.53199 14.6543 2.84131 19.1652 2.84131H20.8347C25.3456 2.84131 29.007 6.53199 29.007 11.0428V17.9263C29.007 22.8765 24.9648 26.9186 19.9853 26.9186ZM19.1652 4.01295C15.2987 4.01295 12.1646 7.1764 12.1646 11.0428V17.9263C12.1646 22.2321 15.6795 25.747 19.9853 25.747C24.3204 25.747 27.8353 22.2321 27.8353 17.9263V11.0428C27.8353 7.1764 24.7012 4.01295 20.8347 4.01295H19.1652Z" fill="#1D3362"/>
<path fill-rule="evenodd" clip-rule="evenodd" d="M28.4212 14.5871H28.3041C19.6339 12.5367 17.8471 5.59473 12.0475 13.7377C11.6081 14.3528 10.6415 13.6791 11.0809 13.0347C17.5542 4.01301 20.454 11.5408 28.5677 13.4448C29.2414 13.5912 29.1242 14.5871 28.4212 14.5871ZM24.8477 29.5549C24.5841 29.5549 24.3498 29.3791 24.2912 29.0862L23.5882 25.337C23.4417 24.5754 24.5841 24.3704 24.7306 25.1319L25.4335 28.8812C25.4921 29.2327 25.2285 29.5549 24.8477 29.5549ZM15.1231 29.5549C14.7716 29.5549 14.4787 29.2327 14.5665 28.8812L15.2695 25.1319C15.416 24.3704 16.5583 24.5754 16.4119 25.337L15.7089 29.0862C15.6503 29.3791 15.416 29.5549 15.1231 29.5549Z" fill="#1D3362"/>
<path fill-rule="evenodd" clip-rule="evenodd" d="M38.2338 49.9706H1.76629C0.858261 49.9706 0.155273 49.2384 0.155273 48.3596V38.2542C0.155273 32.806 4.57824 28.3831 9.9971 28.3831H30.003C35.4218 28.3831 39.8448 32.806 39.8448 38.2542V48.3596C39.8448 49.2384 39.1125 49.9706 38.2338 49.9706ZM9.9971 29.5547C5.22264 29.5547 1.29763 33.4504 1.29763 38.2542V48.3596C1.29763 48.594 1.50267 48.799 1.76629 48.799H38.2338C38.4681 48.799 38.6731 48.594 38.6731 48.3596V38.2542C38.6731 33.4504 34.7774 29.5547 30.003 29.5547H9.9971ZM17.5542 16.1394C17.3785 16.1394 15.9139 15.3485 14.7716 16.0515C13.8635 16.5787 12.9262 14.6162 16.0018 14.6162C18.6966 14.6162 18.4037 16.1394 17.5542 16.1394ZM25.5214 16.1394C25.3457 16.1394 23.8811 15.3485 22.7388 16.0515C21.8307 16.5787 20.8934 14.6162 23.969 14.6162C26.6638 14.6162 26.3709 16.1394 25.5214 16.1394Z" fill="#1D3362"/>
<path fill-rule="evenodd" clip-rule="evenodd" d="M7.30238 49.9707C6.98017 49.9707 6.71655 49.7071 6.71655 49.3849V41.7106C6.71655 40.949 7.8882 40.949 7.8882 41.7106V49.3849C7.8882 49.7071 7.62458 49.9707 7.30238 49.9707Z" fill="#1D3362"/>
<path fill-rule="evenodd" clip-rule="evenodd" d="M7.30231 45.4891H0.741095C-0.0497661 45.4891 -0.0497661 44.3175 0.741095 44.3175H7.30231C8.09317 44.3175 8.09317 45.4891 7.30231 45.4891ZM32.6685 49.9707C32.3463 49.9707 32.0826 49.7071 32.0826 49.3849V41.7106C32.0826 40.949 33.2543 40.949 33.2543 41.7106V49.3849C33.2543 49.7071 32.9907 49.9707 32.6685 49.9707Z" fill="#1D3362"/>
<path fill-rule="evenodd" clip-rule="evenodd" d="M39.2589 45.4893H32.6683C31.9068 45.4893 31.9068 44.3176 32.6683 44.3176H39.2589C40.0204 44.3176 40.0204 45.4893 39.2589 45.4893Z" fill="#1D3362"/>
</svg>
