<svg width="50" height="50" viewBox="0 0 50 50" fill="none" xmlns="http://www.w3.org/2000/svg">
<g clip-path="url(#clip0_4_105)">
<path d="M47.7268 25.2097V18.1823C47.7268 15.7994 45.8785 13.8615 43.5432 13.6735L37.017 2.27457C36.4123 1.22032 35.4357 0.466818 34.2671 0.153932C33.1041 -0.156823 31.8879 0.00638503 30.847 0.612235L8.47489 13.6369H4.54566C2.03885 13.6369 0.000244141 15.6754 0.000244141 18.1823V45.4546C0.000244141 47.9614 2.03874 50 4.54566 50H43.1814C45.6882 50 47.7268 47.9615 47.7268 45.4546V38.4272C49.0467 37.9565 49.9995 36.707 49.9995 35.2275V28.4094C49.9995 26.9299 49.0467 25.6804 47.7268 25.2097ZM40.9024 13.6369H30.998L38.4264 9.31209L40.9024 13.6369ZM37.2972 7.33986L26.4811 13.6369H21.9947L36.1754 5.38062L37.2972 7.33986ZM31.9911 2.57637C32.5049 2.27563 33.1052 2.19573 33.679 2.34893C34.2593 2.50425 34.7432 2.87935 35.044 3.40423L35.0463 3.40839L17.478 13.6369H12.9919L31.9911 2.57637ZM45.4541 45.4546C45.4541 46.7074 44.4342 47.7272 43.1814 47.7272H4.54566C3.29284 47.7272 2.27301 46.7074 2.27301 45.4546V18.1823C2.27301 16.9295 3.29284 15.9096 4.54566 15.9096H43.1814C44.4342 15.9096 45.4541 16.9295 45.4541 18.1823V25.0004H38.636C34.8763 25.0004 31.8179 28.0587 31.8179 31.8184C31.8179 35.5782 34.8763 38.6365 38.636 38.6365H45.4541V45.4546ZM47.7268 35.2275C47.7268 35.8544 47.2175 36.3639 46.5905 36.3639H38.636C36.1292 36.3639 34.0906 34.3254 34.0906 31.8184C34.0906 29.3116 36.1291 27.273 38.636 27.273H46.5905C47.2174 27.273 47.7268 27.7824 47.7268 28.4094V35.2275Z" fill="#1D3362"/>
<path d="M38.6362 29.5459C37.3834 29.5459 36.3635 30.5657 36.3635 31.8186C36.3635 33.0714 37.3834 34.0912 38.6362 34.0912C39.889 34.0912 40.9088 33.0714 40.9088 31.8186C40.9089 30.5657 39.8891 29.5459 38.6362 29.5459Z" fill="#1D3362"/>
</g>
<defs>
<clipPath id="clip0_4_105">
<rect width="50" height="50" fill="white"/>
</clipPath>
</defs>
</svg>
