<svg width="50" height="50" viewBox="0 0 50 50" fill="none" xmlns="http://www.w3.org/2000/svg">
<g clip-path="url(#clip0_4_110)">
<path d="M17.3591 11.7403C17.2155 12.1824 17.3569 12.6562 17.7192 12.9476L20.9452 15.5405L19.8594 19.5346C19.7375 19.983 19.9017 20.4494 20.278 20.723C20.6543 20.9961 21.1484 21.0081 21.5373 20.7536L25.0003 18.4867L28.4634 20.7537C28.6439 20.8727 28.8552 20.9363 29.0714 20.9366C29.3056 20.9363 29.5337 20.8615 29.7226 20.723C30.0991 20.4497 30.2633 19.983 30.1411 19.5346L29.0553 15.5406L32.2812 12.9478C32.6438 12.6565 32.7852 12.1826 32.6414 11.7403C32.4978 11.2979 32.1048 10.9977 31.6405 10.9752L27.5064 10.7736L26.0372 6.9043C25.8723 6.46963 25.4652 6.18867 25.0002 6.18867C24.5353 6.18867 24.1282 6.46953 23.9633 6.9042L22.4941 10.7737L18.3603 10.9752C17.8957 10.9977 17.5028 11.2979 17.3591 11.7403ZM22.8665 12.3198C23.0821 12.3094 23.2899 12.2362 23.4645 12.1094C23.6391 11.9825 23.7728 11.8074 23.8493 11.6057L25.0001 8.5749L26.1509 11.606C26.2276 11.8076 26.3614 11.9826 26.5359 12.1094C26.7105 12.2362 26.9182 12.3093 27.1337 12.3198L30.3717 12.4777L27.8448 14.5087C27.6765 14.6439 27.5514 14.8252 27.4848 15.0304C27.4181 15.2357 27.4127 15.4559 27.4694 15.6642L28.3199 18.7925L25.6074 17.0168C25.4268 16.8986 25.2157 16.8357 24.9999 16.8357C24.7841 16.8358 24.573 16.8987 24.3924 17.0169L21.6801 18.7925L22.5306 15.6644C22.5873 15.4561 22.582 15.2358 22.5153 15.0305C22.4486 14.8252 22.3234 14.6439 22.1551 14.5087L19.6283 12.4778L22.8665 12.3198ZM24.2189 3.64824V0.78125C24.2189 0.57405 24.3012 0.375336 24.4477 0.228823C24.5942 0.08231 24.7929 0 25.0001 0C25.2073 0 25.406 0.08231 25.5526 0.228823C25.6991 0.375336 25.7814 0.57405 25.7814 0.78125V3.64824C25.7814 3.85544 25.6991 4.05416 25.5526 4.20067C25.406 4.34718 25.2073 4.42949 25.0001 4.42949C24.7929 4.42949 24.5942 4.34718 24.4477 4.20067C24.3012 4.05416 24.2189 3.85544 24.2189 3.64824ZM28.9766 8.27695C28.838 8.12298 28.7662 7.92023 28.777 7.71332C28.7878 7.50641 28.8804 7.31228 29.0344 7.17363L32.2292 4.29688C32.3055 4.22822 32.3945 4.17525 32.4912 4.141C32.5879 4.10675 32.6904 4.09188 32.7929 4.09724C32.8953 4.10261 32.9957 4.1281 33.0883 4.17226C33.1809 4.21643 33.2639 4.2784 33.3326 4.35464C33.4013 4.43088 33.4542 4.5199 33.4885 4.61661C33.5227 4.71332 33.5376 4.81583 33.5322 4.91829C33.5269 5.02074 33.5014 5.12114 33.4572 5.21375C33.413 5.30635 33.3511 5.38935 33.2748 5.45801L30.0799 8.33477C29.9366 8.46415 29.7504 8.53567 29.5574 8.53545C29.4478 8.5356 29.3395 8.51266 29.2394 8.46812C29.1393 8.42358 29.0498 8.35844 28.9766 8.27695ZM16.6676 4.35469C16.7363 4.27843 16.8193 4.21645 16.9119 4.17228C17.0045 4.1281 17.1049 4.1026 17.2073 4.09723C17.3098 4.09187 17.4123 4.10673 17.509 4.14099C17.6058 4.17524 17.6948 4.22821 17.771 4.29688L20.966 7.17363C21.1199 7.31229 21.2125 7.50643 21.2233 7.71335C21.2342 7.92028 21.1624 8.12303 21.0237 8.277C20.8851 8.43098 20.6909 8.52357 20.484 8.5344C20.2771 8.54523 20.0743 8.47342 19.9203 8.33477L16.7254 5.45801C16.5714 5.31936 16.4789 5.12523 16.468 4.91832C16.4572 4.71141 16.529 4.50867 16.6676 4.35469ZM35.023 12.9476L38.2491 15.5405L37.1632 19.5346C37.0413 19.983 37.2055 20.4494 37.5818 20.723C37.9578 20.9961 38.452 21.008 38.8411 20.7536L42.3041 18.4867L45.7672 20.7537C45.9477 20.8727 46.1591 20.9363 46.3752 20.9366C46.6094 20.9363 46.8375 20.8615 47.0264 20.723C47.4027 20.4499 47.5669 19.9834 47.445 19.5346L46.3591 15.5406L49.585 12.9478C49.9475 12.6566 50.0889 12.1827 49.9451 11.7403C49.8015 11.2979 49.4085 10.9977 48.9443 10.9752L44.8102 10.7736L43.3411 6.9043C43.1762 6.46963 42.7691 6.18867 42.3041 6.18867C41.8391 6.18867 41.432 6.46953 41.267 6.9042L39.798 10.7736L35.6642 10.9751C35.1995 10.9976 34.8066 11.2979 34.6629 11.7403C34.5192 12.1826 34.6606 12.6565 35.023 12.9476ZM40.1702 12.3198C40.3858 12.3094 40.5937 12.2362 40.7683 12.1093C40.943 11.9825 41.0768 11.8074 41.1534 11.6056L42.304 8.5748L43.4546 11.6055C43.5312 11.8073 43.665 11.9824 43.8396 12.1092C44.0142 12.2361 44.222 12.3093 44.4376 12.3197L47.6756 12.4776L45.149 14.5084C44.9806 14.6435 44.8554 14.8249 44.7887 15.0302C44.722 15.2355 44.7166 15.4558 44.7733 15.6641L45.6238 18.7924L42.9113 17.0167C42.7307 16.8985 42.5196 16.8355 42.3038 16.8355C42.088 16.8355 41.8768 16.8985 41.6963 17.0168L38.984 18.7924L39.8345 15.6643C39.8911 15.456 39.8858 15.2357 39.8191 15.0304C39.7524 14.8252 39.6273 14.6438 39.459 14.5086L36.9322 12.4776L40.1702 12.3198ZM0.415166 12.9476L3.64124 15.5405L2.5554 19.5346C2.43353 19.983 2.59769 20.4494 2.97396 20.723C3.35032 20.9961 3.84437 21.0081 4.23333 20.7536L7.69632 18.4867L11.1594 20.7537C11.3399 20.8727 11.5512 20.9363 11.7674 20.9366C12.0016 20.9363 12.2297 20.8615 12.4186 20.723C12.7949 20.4499 12.9591 19.9834 12.8371 19.5346L11.7513 15.5406L14.9772 12.9478C15.3395 12.6568 15.481 12.183 15.3373 11.7398C15.1934 11.2978 14.8004 10.9976 14.3365 10.9751L10.2024 10.7735L8.73333 6.9043C8.56839 6.46963 8.16126 6.18867 7.69632 6.18867C7.23128 6.18867 6.82415 6.46953 6.65921 6.9042L5.19017 10.7736L1.05638 10.9751C0.591826 10.9976 0.198857 11.2979 0.0553026 11.7398C-0.0887404 12.1823 0.0525682 12.6564 0.415166 12.9476ZM5.56243 12.3198C5.77803 12.3094 5.98589 12.2362 6.16052 12.1093C6.33515 11.9825 6.46896 11.8074 6.54554 11.6056L7.69622 8.5748L8.84681 11.6055C8.92337 11.8073 9.05716 11.9824 9.23177 12.1092C9.40638 12.2361 9.61423 12.3093 9.82981 12.3197L13.0678 12.4776L10.5411 14.5084C10.3728 14.6435 10.2476 14.8249 10.1809 15.0302C10.1142 15.2355 10.1088 15.4558 10.1655 15.6641L11.0159 18.7924L8.30345 17.0167C8.1229 16.8985 7.91178 16.8355 7.69596 16.8355C7.48015 16.8355 7.26903 16.8985 7.08851 17.0168L4.3762 18.7924L5.22669 15.6643C5.28333 15.456 5.27798 15.2357 5.21128 15.0304C5.14458 14.8252 5.01944 14.6438 4.8512 14.5086L2.32435 12.4776L5.56243 12.3198ZM49.8772 41.4974C49.3275 39.7222 48.2016 38.1282 46.7068 37.0089C46.0009 36.4796 45.22 36.0587 44.3898 35.7602C45.5295 34.8656 46.2639 33.477 46.2639 31.919C46.2639 29.2271 44.0738 27.037 41.3819 27.037C38.6899 27.037 36.4997 29.2271 36.4997 31.919C36.4997 33.4751 37.2324 34.8624 38.3699 35.757C36.8453 36.3012 35.4948 37.2572 34.4605 38.5455C33.9733 37.8637 33.4141 37.2363 32.7926 36.6742C31.5426 35.5428 30.0609 34.6975 28.4508 34.1973C30.1437 33.075 31.2628 31.1534 31.2628 28.9746C31.2628 25.5215 28.4534 22.7121 25.0002 22.7121C21.5471 22.7121 18.7376 25.5215 18.7376 28.9746C18.7376 31.1534 19.8567 33.075 21.5495 34.1973C19.9394 34.6974 18.4577 35.5427 17.2076 36.6742C16.5862 37.2363 16.027 37.8636 15.5399 38.5454C14.5057 37.257 13.1551 36.301 11.6305 35.7567C12.7679 34.8621 13.5006 33.4748 13.5006 31.9187C13.5006 29.2268 11.3105 27.0367 8.61858 27.0367C5.92659 27.0367 3.73645 29.2268 3.73645 31.9187C3.73645 33.4766 4.47083 34.8653 5.61048 35.7599C4.78027 36.0585 3.99929 36.4793 3.29339 37.0086C1.79856 38.1278 0.672685 39.7219 0.122978 41.497C-0.131026 42.3169 0.00969708 43.149 0.51917 43.8402C1.02854 44.5312 1.78187 44.9117 2.64026 44.9117H13.4404V46.3217C13.4404 48.35 15.0905 50.0001 17.1188 50.0001H32.8815C34.9097 50.0001 36.5599 48.35 36.56 46.3217V44.9121H47.36C48.2185 44.9121 48.9718 44.5315 49.4811 43.8406C49.9905 43.1494 50.1312 42.3172 49.8772 41.4974ZM41.3819 28.5995C43.2122 28.5995 44.7014 30.0887 44.7014 31.919C44.7014 33.7495 43.2122 35.2387 41.3819 35.2387C39.5514 35.2387 38.0622 33.7495 38.0622 31.919C38.0622 30.0887 39.5514 28.5995 41.3819 28.5995ZM20.3001 28.9746C20.3001 26.383 22.4086 24.2746 25.0002 24.2746C27.5918 24.2746 29.7003 26.383 29.7003 28.9746C29.7003 31.5654 27.5932 33.6732 25.0028 33.6746H24.9976C22.4072 33.6731 20.3001 31.5653 20.3001 28.9746ZM8.61858 28.5991C10.449 28.5991 11.9381 30.0883 11.9381 31.9187C11.9381 33.7491 10.449 35.2383 8.61858 35.2383C6.78812 35.2383 5.29895 33.7491 5.29895 31.9187C5.29895 30.0883 6.78812 28.5991 8.61858 28.5991ZM13.5418 43.3491H2.64036C2.28079 43.3491 1.99036 43.2024 1.77698 42.913C1.56351 42.6235 1.50931 42.3026 1.61565 41.9592C2.57112 38.8737 5.38548 36.8008 8.61858 36.8008C11.0642 36.8008 13.292 37.9824 14.6622 39.9827C14.1178 41.0405 13.7399 42.176 13.5418 43.3491ZM34.9975 46.3216C34.9974 47.4883 34.0482 48.4375 32.8815 48.4375H17.1188C15.9521 48.4375 15.0029 47.4883 15.0029 46.3216V44.1729C15.5685 39.0764 19.8579 35.2384 24.9976 35.2371L25.0002 35.2372L25.0028 35.2371C30.1423 35.2385 34.4317 39.0764 34.9975 44.1729V46.3216ZM48.2234 42.9135C48.01 43.2028 47.7197 43.3495 47.36 43.3495H36.4586C36.2605 42.1764 35.8826 41.0408 35.3382 39.9829C36.7085 37.9827 38.9363 36.8012 41.3818 36.8012C44.6149 36.8012 47.4292 38.8742 48.3847 41.9597C48.491 42.3029 48.4367 42.6238 48.2234 42.9135Z" fill="#1D3362"/>
</g>
<defs>
<clipPath id="clip0_4_110">
<rect width="50" height="50" fill="white"/>
</clipPath>
</defs>
</svg>
