<svg width="50" height="50" viewBox="0 0 50 50" fill="none" xmlns="http://www.w3.org/2000/svg">
<path d="M43.3915 4.91567C41.3458 2.8807 38.6133 1.68396 35.7305 1.56042C32.8477 1.43688 30.0228 2.39547 27.8106 4.24797C25.5983 6.10048 24.1585 8.71306 23.7738 11.5728C23.3891 14.4325 24.0873 17.3327 25.7313 19.7039L24.2344 23.8211C24.1307 24.1075 24.1129 24.4179 24.1833 24.7142C24.2536 25.0105 24.409 25.2798 24.6304 25.489C24.8518 25.6982 25.1294 25.8381 25.4293 25.8915C25.7291 25.945 26.038 25.9097 26.318 25.7899L30.868 23.843C33.3457 24.8564 36.0981 24.9793 38.6562 24.1908C41.2143 23.4022 43.4198 21.751 44.8969 19.5185C46.374 17.286 47.0312 14.6103 46.7565 11.9476C46.4819 9.28481 45.2931 6.79967 43.3915 4.91567ZM45.1844 14.3368C44.9976 15.8915 44.4484 17.3807 43.5808 18.6844C42.7133 19.9882 41.5517 21.0699 40.1897 21.8427C38.8277 22.6154 37.3032 23.0576 35.7391 23.1335C34.175 23.2094 32.6149 22.917 31.1844 22.2797C31.0863 22.2357 30.98 22.2126 30.8724 22.2118C30.7648 22.211 30.6583 22.2325 30.5594 22.275L25.7016 24.3547L27.3235 19.8961C27.3718 19.7641 27.3874 19.6224 27.3689 19.483C27.3504 19.3437 27.2984 19.2109 27.2173 19.0961C26.2437 17.7839 25.6064 16.2531 25.361 14.6377C25.1156 13.0222 25.2696 11.3712 25.8095 9.82906C26.3495 8.28688 27.2589 6.90041 28.4584 5.79084C29.6579 4.68127 31.1109 3.88238 32.6904 3.46398C34.2699 3.04558 35.9278 3.02041 37.5193 3.39068C39.1108 3.76095 40.5873 4.51538 41.8199 5.58803C43.0525 6.66068 44.0036 8.0189 44.5901 9.54399C45.1767 11.0691 45.3807 12.7146 45.1844 14.3368ZM36.7602 17.7961C36.3152 17.3486 35.7105 17.0962 35.0793 17.0944C34.4482 17.0926 33.8421 17.3417 33.3946 17.7868C32.947 18.2318 32.6946 18.8365 32.6929 19.4676C32.6911 20.0988 32.9402 20.7048 33.3852 21.1524C33.604 21.3797 33.8664 21.5606 34.1565 21.6844C34.4467 21.8082 34.7589 21.8723 35.0744 21.873C35.3898 21.8736 35.7022 21.8108 35.9929 21.6882C36.2836 21.5656 36.5467 21.3858 36.7665 21.1594C37.2081 20.7107 37.455 20.106 37.4539 19.4765C37.4527 18.8469 37.2035 18.2432 36.7602 17.7961ZM35.6469 20.0688C35.5759 20.1479 35.4891 20.2112 35.3922 20.2548C35.2952 20.2984 35.1902 20.3212 35.0839 20.3218C34.9776 20.3224 34.8723 20.3007 34.7749 20.2582C34.6774 20.2157 34.5899 20.1533 34.518 20.075C34.3623 19.919 34.2746 19.7077 34.2742 19.4872C34.2737 19.2668 34.3606 19.0551 34.5157 18.8985C34.5894 18.822 34.6777 18.7612 34.7754 18.7197C34.8732 18.6781 34.9783 18.6567 35.0844 18.6567C35.1906 18.6567 35.2957 18.6781 35.3934 18.7197C35.4912 18.7612 35.5795 18.822 35.6532 18.8985C35.7306 18.9752 35.7919 19.0666 35.8336 19.1673C35.8752 19.268 35.8964 19.376 35.8958 19.4849C35.8952 19.5939 35.8729 19.7017 35.8302 19.8019C35.7875 19.9022 35.7252 19.9929 35.6469 20.0688ZM39.8594 6.31254C37.7407 3.18363 30.811 3.65473 30.4688 7.87895C30.4542 8.17721 30.5149 8.47436 30.6455 8.74294C30.776 9.01152 30.9721 9.24289 31.2157 9.41567C31.904 10.011 33.2837 9.96332 33.7118 9.34067C33.8928 9.12866 34.0534 8.90004 34.1915 8.65785C34.504 8.30629 34.4876 8.28676 35.2821 8.24301C35.6001 8.22918 35.9155 8.30613 36.1915 8.46488C36.3751 8.49145 36.4305 9.07817 36.2782 9.27192C36.059 9.62225 35.7663 9.9208 35.4204 10.1469C34.6984 10.5961 34.1069 11.2267 33.7049 11.9759C33.3028 12.725 33.1042 13.5666 33.129 14.4164C33.1235 15.836 33.6524 16.5766 35.0532 16.5969C36.2751 16.6321 37.0141 16.0032 37.061 14.9594C37.0094 14.4933 37.0906 14.022 37.2954 13.6C37.7548 12.9688 38.8852 12.2985 39.4298 11.4954C40.6133 10.0914 41.0094 7.86488 39.8594 6.31332V6.31254ZM38.7766 9.5641C38.3604 10.426 37.7368 11.1712 36.9618 11.7329C36.4486 12.0863 36.0413 12.5728 35.7836 13.1401C35.5258 13.7074 35.4272 14.3341 35.4985 14.9532C35.5048 15.0625 34.8602 15.0305 34.7594 15.0157C34.6303 14.4353 34.6618 13.8307 34.8505 13.2669C35.0392 12.7031 35.378 12.2013 35.8305 11.8157C35.9875 11.6732 36.1529 11.5404 36.3258 11.418C36.7799 11.1578 37.1635 10.7908 37.4436 10.3487C37.7236 9.90665 37.8916 9.40295 37.9329 8.88129C37.9492 8.53833 37.8743 8.19717 37.716 7.89253C37.5576 7.58788 37.3214 7.33062 37.0313 7.14692C36.5051 6.82602 35.8975 6.6638 35.2813 6.67973C34.7287 6.65002 34.1786 6.77243 33.6907 7.03363C33.3398 7.23752 33.0463 7.52699 32.8376 7.87504C32.7391 8.04535 32.6352 8.19535 32.5798 8.27973C32.543 8.27504 31.9712 8.26801 32.0305 7.87817C32.2501 6.45395 33.8493 5.83285 35.3438 5.86098C37.0704 5.82973 38.9743 6.67192 38.9891 8.52582C38.9939 8.88343 38.9214 9.23786 38.7766 9.56488V9.5641ZM47.6383 37.5625C47.5408 36.8433 47.2762 36.1569 46.8658 35.5583C46.4555 34.9596 45.9107 34.4653 45.2751 34.1149L40.811 31.6297C39.9148 31.1338 38.8812 30.944 37.8673 31.0893C36.8535 31.2345 35.9147 31.7068 35.1938 32.4344L33.4688 34.1844C33.4352 34.2157 29.9438 37.2782 21.7251 29.0586C13.5016 20.836 16.5368 17.3086 16.5383 17.3047L18.2891 15.6485C19.0472 14.9325 19.5445 13.9839 19.7023 12.9532C19.8601 11.9225 19.6693 10.8686 19.1602 9.95863L16.6712 5.4977C16.3141 4.86905 15.8173 4.33094 15.219 3.925C14.6208 3.51905 13.9372 3.25615 13.2211 3.15661C12.505 3.05707 11.7756 3.12358 11.0894 3.35097C10.4031 3.57837 9.77831 3.96057 9.26334 4.46801L5.61022 8.12192C3.91409 9.829 2.81293 12.037 2.46987 14.4189C2.12681 16.8008 2.56009 19.2298 3.70553 21.3461C3.95475 22.1446 5.84225 27.4094 14.6079 36.175C23.3743 44.9407 28.6391 46.8289 29.436 47.0782C31.5527 48.2237 33.9821 48.657 36.3644 48.3139C38.7466 47.9709 40.955 46.8697 42.6626 45.1735L46.311 41.525C46.8262 41.014 47.2146 40.3894 47.4451 39.7014C47.6755 39.0133 47.7417 38.2808 47.6383 37.5625ZM15.3071 6.25942L17.7962 10.7204C18.1355 11.327 18.2626 12.0296 18.1573 12.7167C18.052 13.4038 17.7203 14.0361 17.2149 14.5133L15.6469 15.9977L9.8985 6.04145L10.3673 5.5727C10.7104 5.23403 11.1269 4.9789 11.5845 4.82705C12.0421 4.6752 12.5285 4.63071 13.006 4.69703C13.4836 4.76336 13.9394 4.9387 14.3383 5.2095C14.7372 5.4803 15.0684 5.83928 15.3063 6.25863L15.3071 6.25942ZM41.5571 44.0688C40.0529 45.5536 38.1049 46.5067 36.0094 46.7831C33.9139 47.0595 31.7855 46.6441 29.9477 45.6C29.8969 45.586 24.6962 44.0539 15.7133 35.0704C6.73053 26.0868 5.19694 20.8868 5.18366 20.8391C4.13962 19.0008 3.72424 16.8719 4.00062 14.7759C4.277 12.6799 5.23003 10.7315 6.71491 9.2266L8.75553 7.18598L14.7079 17.4961C14.0391 19.4297 14.0063 23.5493 20.6204 30.1633C24.6829 34.1993 29.2141 37.2477 32.943 36.1024L43.5266 42.0993L41.5571 44.0688ZM45.2055 40.4203L44.6727 40.9532L34.6102 35.2508L36.3055 33.5313C36.7861 33.0457 37.4122 32.7305 38.0884 32.6336C38.7647 32.5367 39.4541 32.6635 40.0516 32.9946L44.5149 35.4797C44.9348 35.7173 45.2943 36.0483 45.5656 36.4471C45.837 36.8459 46.0128 37.3018 46.0796 37.7796C46.1464 38.2573 46.1023 38.744 45.9507 39.202C45.7991 39.6599 45.5442 40.0768 45.2055 40.4203Z" fill="#1D3362"/>
</svg>
