<svg width="60" height="60" viewBox="0 0 60 60" fill="none" xmlns="http://www.w3.org/2000/svg">
<path d="M12.4135 28.4278C11.8549 29.3171 11.6614 30.3879 11.8735 31.4165C12.0855 32.4451 12.6868 33.352 13.5517 33.9478L15.1792 35.0925C16.0044 35.5198 16.7339 36.1107 17.3232 36.8293C17.9125 37.5478 18.3492 38.3789 18.6067 39.2719C19.3754 41.7047 20.3317 44.7337 22.9004 46.4287C23.9485 47.2631 25.2413 48.0262 25.2198 49.5103L25.2179 55.3116C25.2191 55.5599 25.3183 55.7978 25.4938 55.9734C25.6693 56.1491 25.9071 56.2485 26.1554 56.25H41.8867C42.1353 56.25 42.3738 56.1512 42.5496 55.9754C42.7254 55.7996 42.8242 55.5611 42.8242 55.3125V50.5556C42.8182 49.952 43.0168 49.3641 43.3876 48.8878C46.3502 45.2012 48.0412 40.6553 48.2082 35.9288V28.5178C48.199 27.8195 48.0034 27.1363 47.6417 26.539C47.28 25.9416 46.7652 25.4518 46.1506 25.1201C45.5361 24.7883 44.844 24.6269 44.1461 24.6523C43.4483 24.6777 42.7698 24.8891 42.181 25.2647C42.0262 24.675 41.736 24.1296 41.3334 23.6717C40.9309 23.2138 40.4271 22.8561 39.8621 22.6271C39.2971 22.398 38.6865 22.3038 38.0787 22.3521C37.4709 22.4003 36.8828 22.5897 36.361 22.905C36.2314 21.9729 35.7691 21.1191 35.0594 20.5011C34.3498 19.8831 33.4405 19.5425 32.4995 19.5422C31.7897 19.5404 31.0933 19.7343 30.4867 20.1028V14.1703C30.485 13.639 30.3748 13.1136 30.1627 12.6264C29.9507 12.1392 29.6414 11.7004 29.2537 11.3371C28.866 10.9737 28.4082 10.6934 27.9083 10.5134C27.4084 10.3333 26.877 10.2573 26.3467 10.29C25.3466 10.3685 24.4139 10.8249 23.7383 11.5664C23.0626 12.3079 22.6946 13.2788 22.7092 14.2819V30.0094C21.1526 28.9714 19.5656 27.9797 17.9504 27.0356C17.0276 26.5018 15.9331 26.3487 14.8993 26.6089C13.8655 26.869 12.9738 27.5209 12.4135 28.4278ZM23.101 32.5603C23.2417 32.6584 23.4063 32.7163 23.5774 32.7279C23.7485 32.7395 23.9194 32.7043 24.072 32.626C24.2246 32.5477 24.3529 32.4294 24.4433 32.2837C24.5337 32.1381 24.5827 31.9705 24.5851 31.7991V14.2819C24.5709 14.0134 24.6106 13.7449 24.7018 13.492C24.793 13.2391 24.9339 13.007 25.1162 12.8095C25.2985 12.6119 25.5185 12.4528 25.7632 12.3415C26.0079 12.2303 26.2725 12.1691 26.5412 12.1617C26.8099 12.1542 27.0774 12.2006 27.3279 12.2982C27.5784 12.3957 27.8069 12.5424 27.9998 12.7296C28.1928 12.9167 28.3463 13.1406 28.4514 13.3881C28.5565 13.6355 28.611 13.9015 28.6117 14.1703V31.7062C28.6117 31.9549 28.7104 32.1933 28.8862 32.3692C29.0621 32.545 29.3005 32.6437 29.5492 32.6437C29.7978 32.6437 30.0363 32.545 30.2121 32.3692C30.3879 32.1933 30.4867 31.9549 30.4867 31.7062V23.43C30.4867 22.8949 30.6992 22.3818 31.0776 22.0034C31.4559 21.6251 31.9691 21.4125 32.5042 21.4125C33.0392 21.4125 33.5524 21.6251 33.9307 22.0034C34.3091 22.3818 34.5217 22.8949 34.5217 23.43V31.7062C34.5217 31.9549 34.6204 32.1933 34.7962 32.3692C34.9721 32.545 35.2105 32.6437 35.4592 32.6437C35.7078 32.6437 35.9463 32.545 36.1221 32.3692C36.2979 32.1933 36.3967 31.9549 36.3967 31.7062V26.2106C36.3967 25.6767 36.6088 25.1646 36.9863 24.787C37.3639 24.4095 37.876 24.1973 38.4099 24.1973C38.9439 24.1973 39.456 24.4095 39.8335 24.787C40.2111 25.1646 40.4232 25.6767 40.4232 26.2106V31.7062C40.4232 31.9549 40.522 32.1933 40.6978 32.3692C40.8736 32.545 41.1121 32.6437 41.3607 32.6437C41.6094 32.6437 41.8478 32.545 42.0236 32.3692C42.1994 32.1933 42.2982 31.9549 42.2982 31.7062V28.5178C42.2982 27.9827 42.5108 27.4696 42.8891 27.0912C43.2675 26.7129 43.7806 26.5003 44.3157 26.5003C44.8508 26.5003 45.364 26.7129 45.7423 27.0912C46.1207 27.4696 46.3332 27.9827 46.3332 28.5178L46.3342 35.8922C46.1745 40.2044 44.6286 44.3501 41.926 47.7141C40.5104 49.2159 41.0382 52.5037 40.9473 54.375H27.0948V49.5112C27.0966 48.933 26.9822 48.3603 26.7585 47.8271C26.5349 47.2939 26.2064 46.8111 25.7926 46.4072C25.2203 45.8598 24.611 45.3523 23.9692 44.8884C21.9188 43.5356 21.1098 40.9697 20.3907 38.6925C20.0681 37.599 19.5329 36.5799 18.8159 35.6936C18.099 34.8072 17.2142 34.0709 16.2123 33.5269L14.6232 32.4094C14.1535 32.0866 13.8269 31.5945 13.7121 31.0363C13.5973 30.478 13.7031 29.897 14.0073 29.415C14.3143 28.9276 14.797 28.577 15.3555 28.4356C15.9139 28.2942 16.5053 28.373 17.0073 28.6556C19.4073 30.0675 21.4576 31.3809 23.101 32.5603ZM27.5354 7.13719V4.6875C27.5354 4.43886 27.4366 4.2004 27.2608 4.02459C27.085 3.84877 26.8465 3.75 26.5979 3.75C26.3493 3.75 26.1108 3.84877 25.935 4.02459C25.7592 4.2004 25.6604 4.43886 25.6604 4.6875V7.13719C25.6604 7.38583 25.7592 7.62428 25.935 7.8001C26.1108 7.97592 26.3493 8.07469 26.5979 8.07469C26.8465 8.07469 27.085 7.97592 27.2608 7.8001C27.4366 7.62428 27.5354 7.38583 27.5354 7.13719ZM32.7592 6.73875L31.0276 8.47125C30.9381 8.55773 30.8666 8.66118 30.8175 8.77556C30.7684 8.88994 30.7425 9.01296 30.7414 9.13744C30.7403 9.26192 30.7641 9.38537 30.8112 9.50058C30.8583 9.6158 30.928 9.72047 31.016 9.8085C31.104 9.89652 31.2087 9.96613 31.3239 10.0133C31.4391 10.0604 31.5626 10.0841 31.687 10.083C31.8115 10.082 31.9345 10.0561 32.0489 10.007C32.1633 9.95784 32.2667 9.88642 32.3532 9.79688L34.0848 8.06438C34.2556 7.88756 34.35 7.65075 34.3479 7.40494C34.3458 7.15913 34.2472 6.92399 34.0734 6.75017C33.8995 6.57635 33.6644 6.47775 33.4186 6.47562C33.1728 6.47348 32.936 6.56798 32.7592 6.73875Z" fill="#1D3362"/>
<path d="M32.9419 14.1468C32.9419 14.3955 33.0407 14.6339 33.2165 14.8097C33.3923 14.9856 33.6308 15.0843 33.8794 15.0843H36.3282C36.5768 15.0843 36.8153 14.9856 36.9911 14.8097C37.1669 14.6339 37.2657 14.3955 37.2657 14.1468C37.2657 13.8982 37.1669 13.6597 36.9911 13.4839C36.8153 13.3081 36.5768 13.2093 36.3282 13.2093H33.8794C33.6308 13.2093 33.3923 13.3081 33.2165 13.4839C33.0407 13.6597 32.9419 13.8982 32.9419 14.1468ZM21.585 10.2637C21.769 10.2606 21.9482 10.2039 22.1003 10.1003C22.2525 9.9968 22.3711 9.85106 22.4415 9.68102C22.5119 9.51099 22.5311 9.32407 22.4967 9.14327C22.4623 8.96247 22.3758 8.79567 22.2478 8.66339L20.5163 6.93089C20.3395 6.76012 20.1027 6.66562 19.8568 6.66776C19.611 6.6699 19.3759 6.76849 19.2021 6.94231C19.0283 7.11613 18.9297 7.35127 18.9275 7.59708C18.9254 7.84289 19.0199 8.0797 19.1907 8.25652L20.9222 9.98902C21.0092 10.0762 21.1125 10.1454 21.2262 10.1925C21.34 10.2396 21.4619 10.2638 21.585 10.2637ZM16.2019 14.4187C16.2019 14.5418 16.2262 14.6637 16.2733 14.7775C16.3204 14.8912 16.3894 14.9946 16.4765 15.0816C16.5635 15.1687 16.6669 15.2377 16.7806 15.2848C16.8944 15.332 17.0163 15.3562 17.1394 15.3562H19.5891C19.8377 15.3562 20.0762 15.2574 20.252 15.0816C20.4278 14.9058 20.5266 14.6673 20.5266 14.4187C20.5266 14.1701 20.4278 13.9316 20.252 13.7558C20.0762 13.58 19.8377 13.4812 19.5891 13.4812H17.1394C16.8908 13.4812 16.6523 13.58 16.4765 13.7558C16.3007 13.9316 16.2019 14.1701 16.2019 14.4187Z" fill="#1D3362"/>
</svg>
