<svg width="60" height="60" viewBox="0 0 60 60" fill="none" xmlns="http://www.w3.org/2000/svg">
<path d="M58.8183 26.1817L50.1819 17.5453C50.0001 17.3635 49.8183 17.2726 49.5455 17.2726H43.0001V11.2726C43.0001 10.7272 42.6365 10.3635 42.091 10.3635H9.36373C8.81827 10.3635 8.45463 10.7272 8.45463 11.2726C8.45463 11.8181 8.81827 12.1817 9.36373 12.1817H41.2728V34.9999H9.36373V27.8181H13.091C13.6365 27.8181 14.0001 27.4544 14.0001 26.909C14.0001 26.3635 13.6365 25.9999 13.091 25.9999H1.81827C1.27282 25.9999 0.90918 26.3635 0.90918 26.909C0.90918 27.4544 1.27282 27.8181 1.81827 27.8181H7.54554V44.0908C7.54554 44.6363 7.90918 44.9999 8.45463 44.9999H13.1819C13.6365 47.7272 15.9092 49.7272 18.7274 49.7272C21.5455 49.7272 23.9092 47.6363 24.3637 44.9999H42.2728C42.7274 47.7272 45.0001 49.7272 47.8183 49.7272C50.6365 49.7272 53.0001 47.6363 53.4546 44.9999H58.1819C58.7274 44.9999 59.091 44.6363 59.091 44.0908V26.909C59.091 26.5453 59.0001 26.2726 58.8183 26.1817ZM18.7274 47.8181C16.6365 47.8181 14.9092 46.0908 14.9092 43.9999C14.9092 41.909 16.6365 40.1817 18.7274 40.1817C20.8183 40.1817 22.5455 41.909 22.5455 43.9999C22.5455 46.0908 20.9092 47.8181 18.7274 47.8181ZM47.8183 47.8181C45.7274 47.8181 44.0001 46.0908 44.0001 43.9999C44.0001 41.909 45.7274 40.1817 47.8183 40.1817C49.9092 40.1817 51.6365 41.909 51.6365 43.9999C51.6365 46.0908 50.0001 47.8181 47.8183 47.8181ZM57.2728 43.0908H53.4546C53.0001 40.3635 50.6365 38.3635 47.8183 38.3635C45.0001 38.3635 42.6365 40.4544 42.2728 43.0908H24.3637C23.9092 40.3635 21.5455 38.3635 18.7274 38.3635C15.9092 38.3635 13.5455 40.4544 13.1819 43.0908H9.36373V36.8181H57.2728V43.0908ZM57.2728 34.909H43.0001V19.0908H49.1819L57.2728 27.1817V34.909Z" fill="#1D3362"/>
<path d="M5.27282 21.4545C5.27282 21.9999 5.63645 22.3635 6.18191 22.3635H17.3637C17.9092 22.3635 18.2728 21.9999 18.2728 21.4545C18.2728 20.909 17.9092 20.5454 17.3637 20.5454H6.18191C5.72736 20.5454 5.27282 20.909 5.27282 21.4545ZM1.81827 16.909H13.0001C13.5455 16.909 13.9092 16.5454 13.9092 15.9999C13.9092 15.4545 13.5455 15.0908 13.0001 15.0908H1.81827C1.27282 15.0908 0.90918 15.4545 0.90918 15.9999C0.90918 16.4545 1.27282 16.909 1.81827 16.909Z" fill="#1D3362"/>
</svg>
