<svg width="60" height="60" viewBox="0 0 60 60" fill="none" xmlns="http://www.w3.org/2000/svg">
<path d="M4.23633 37.6092C4.23633 37.9728 4.53633 38.2728 4.89996 38.2728C5.2636 38.2728 5.5636 37.9728 5.5636 37.6092V13.9637H53.0272V24.4546C53.0272 24.8183 53.3272 25.1183 53.6909 25.1183C54.0545 25.1183 54.3545 24.8183 54.3545 24.4546V3.6728C54.3545 2.21825 53.1727 1.02734 51.7182 1.02734H6.87269C5.41815 1.02734 4.23633 2.20916 4.23633 3.6728V37.6092ZM53.0272 3.6728V12.6364H24.1454V2.36371H51.7272C52.4454 2.36371 53.0272 2.94553 53.0272 3.6728ZM5.57269 3.6728C5.57269 2.95462 6.1636 2.36371 6.88178 2.36371H22.8091V12.6273H5.57269V3.6728ZM39.1909 52.5455H25.0363C24.6727 52.5455 24.3727 52.8455 24.3727 53.2092C24.3727 53.5728 24.6727 53.8728 25.0363 53.8728H39.1909C39.5545 53.8728 39.8545 53.5728 39.8545 53.2092C39.8545 52.8455 39.5545 52.5455 39.1909 52.5455Z" fill="#1D3362"/>
<path d="M45.6636 8.1637H46.4C46.7636 8.1637 47.0636 7.8637 47.0636 7.50006C47.0636 7.13643 46.7636 6.83643 46.4 6.83643H45.6636C45.3 6.83643 45 7.13643 45 7.50006C45 7.8637 45.3 8.1637 45.6636 8.1637ZM40.7364 8.1637H41.4727C41.8364 8.1637 42.1364 7.8637 42.1364 7.50006C42.1364 7.13643 41.8364 6.83643 41.4727 6.83643H40.7364C40.3727 6.83643 40.0727 7.13643 40.0727 7.50006C40.0636 7.8637 40.3636 8.1637 40.7364 8.1637ZM35.8 8.1637H36.5364C36.9 8.1637 37.2 7.8637 37.2 7.50006C37.2 7.13643 36.9 6.83643 36.5364 6.83643H35.8C35.4364 6.83643 35.1364 7.13643 35.1364 7.50006C35.1364 7.8637 35.4364 8.1637 35.8 8.1637ZM30.8727 8.1637H31.6091C31.9727 8.1637 32.2727 7.8637 32.2727 7.50006C32.2727 7.13643 31.9727 6.83643 31.6091 6.83643H30.8727C30.5091 6.83643 30.2091 7.13643 30.2091 7.50006C30.2091 7.8637 30.5 8.1637 30.8727 8.1637ZM17.5 39.8364C17.6273 40.0182 17.8364 40.1182 18.0455 40.1182C18.1818 40.1182 18.3091 40.0819 18.4273 39.991C18.7273 39.7819 18.8 39.3637 18.5818 39.0637C18.2545 38.6092 17.9636 38.1273 17.7 37.6364C17.5273 37.3092 17.1273 37.191 16.8 37.3637C16.4727 37.5364 16.3545 37.9364 16.5273 38.2637C16.8182 38.8092 17.1455 39.3364 17.5 39.8364ZM29.2909 44.6092C28.1364 44.6092 27 44.4637 25.8909 44.1637C25.7197 44.1181 25.5375 44.1423 25.3841 44.2309C25.2307 44.3196 25.1188 44.4654 25.0727 44.6364C24.9818 44.991 25.1909 45.3546 25.5455 45.4546C26.7636 45.7819 28.0182 45.9455 29.2818 45.9455C37.2545 45.9455 43.7455 39.4637 43.7455 31.491C43.7455 23.5182 37.2545 17.0273 29.2818 17.0273C23.8364 17.0273 18.9 20.0455 16.4091 24.9001C16.2455 25.2273 16.3727 25.6273 16.7 25.8001C17.0273 25.9637 17.4273 25.8364 17.6 25.5092C19.8636 21.1001 24.3364 18.3637 29.2818 18.3637C36.5273 18.3637 42.4182 24.2546 42.4182 31.5001C42.4273 38.7182 36.5364 44.6092 29.2909 44.6092Z" fill="#1D3362"/>
<path d="M38.1182 31.4819C38.1182 26.6182 34.1637 22.6637 29.3 22.6637C24.4455 22.6637 20.491 26.6182 20.491 31.4819C20.491 36.3364 24.4455 40.291 29.3 40.291C34.1637 40.291 38.1182 36.3364 38.1182 31.4819ZM29.3 24.0001C33.4 24.0001 36.7273 27.3092 36.7819 31.391C35.0182 32.1182 31.2364 33.1728 29.8273 31.4092C27.9182 29.0273 23.791 29.9455 21.891 30.5273C22.3546 26.8455 25.5 24.0001 29.3 24.0001ZM21.8455 31.9364C23.6364 31.3182 27.3728 30.4819 28.7819 32.2455C29.6637 33.3455 31.0091 33.7001 32.391 33.7001C33.991 33.7001 35.6182 33.2273 36.6455 32.8546C36 36.3182 32.9455 38.9546 29.291 38.9546C25.3273 38.9637 22.0819 35.8455 21.8455 31.9364ZM10.5546 4.95461C9.15459 4.95461 8.00914 6.09097 8.00914 7.50006C8.00914 8.90915 9.1455 10.0546 10.5546 10.0546C11.9637 10.0546 13.1 8.90915 13.1 7.50006C13.1012 7.16545 13.0362 6.83391 12.9087 6.52454C12.7812 6.21517 12.5938 5.93408 12.3572 5.69747C12.1206 5.46087 11.8395 5.27342 11.5301 5.14592C11.2207 5.01842 10.8892 4.9534 10.5546 4.95461ZM10.5546 8.70915C10.3147 8.70843 10.0804 8.63668 9.8812 8.50295C9.68203 8.36922 9.52692 8.1795 9.43545 7.95772C9.34397 7.73594 9.32023 7.49203 9.36721 7.25677C9.41418 7.02151 9.52978 6.80544 9.69942 6.6358C9.86906 6.46616 10.0851 6.35056 10.3204 6.30358C10.5557 6.2566 10.7996 6.28035 11.0213 6.37182C11.2431 6.4633 11.4328 6.6184 11.5666 6.81758C11.7003 7.01675 11.7721 7.25107 11.7728 7.49097C11.7728 8.1637 11.2273 8.70915 10.5546 8.70915ZM17.8091 4.95461C16.4091 4.95461 15.2637 6.09097 15.2637 7.50006C15.2637 8.90915 16.4 10.0546 17.8091 10.0546C19.2182 10.0546 20.3546 8.90915 20.3546 7.50006C20.3558 7.16545 20.2908 6.83391 20.1633 6.52454C20.0358 6.21517 19.8483 5.93408 19.6117 5.69747C19.3751 5.46087 19.094 5.27342 18.7847 5.14592C18.4753 5.01842 18.1437 4.9534 17.8091 4.95461ZM17.8091 8.70915C17.5692 8.70843 17.3349 8.63668 17.1357 8.50295C16.9366 8.36922 16.7815 8.1795 16.69 7.95772C16.5985 7.73594 16.5748 7.49203 16.6218 7.25677C16.6687 7.02151 16.7843 6.80544 16.954 6.6358C17.1236 6.46616 17.3397 6.35056 17.5749 6.30358C17.8102 6.2566 18.0541 6.28035 18.2759 6.37182C18.4977 6.4633 18.6874 6.6184 18.8211 6.81758C18.9548 7.01675 19.0266 7.25107 19.0273 7.49097C19.0273 8.1637 18.4819 8.70915 17.8091 8.70915ZM18.3091 34.3819V28.5728C18.3091 27.8637 17.7273 27.2819 17.0182 27.2819H14C13.291 27.2819 12.7091 27.8637 12.7091 28.5728V34.3819C12.7091 35.091 13.291 35.6728 14 35.6728H17.0182C17.7273 35.6728 18.3091 35.091 18.3091 34.3819ZM14 28.6182H16.9819L17.0273 34.3364L14.0455 34.3819L14 28.6182ZM21.7 47.5273C22.191 47.2364 22.5455 46.7637 22.6637 46.191C22.7819 45.5819 22.6273 44.9546 22.2364 44.4819C22.2091 44.4546 22.191 44.4273 22.1637 44.4001C22.5364 43.991 22.7273 43.4637 22.7 42.9001C22.6455 41.8092 21.7091 40.9455 20.5637 40.9455H4.7455C2.8455 40.9455 1.30005 42.491 1.30005 44.391C1.30005 45.3364 1.68187 46.2001 2.30914 46.8182C1.73641 47.1637 1.3455 47.7637 1.30914 48.4546C1.28187 49.0092 1.47278 49.5455 1.8455 49.9546C1.81823 49.9819 1.79096 50.0092 1.77278 50.0364C1.38187 50.5092 1.22732 51.1364 1.3455 51.7455C1.45459 52.3182 1.81823 52.791 2.30914 53.0819C1.82983 53.5648 1.50421 54.1787 1.37333 54.8464C1.24246 55.5141 1.31219 56.2055 1.57373 56.8336C1.83528 57.4617 2.27692 57.9983 2.843 58.3758C3.40907 58.7532 4.07422 58.9546 4.75459 58.9546H20.6C21.6182 58.9546 22.491 58.2637 22.6728 57.3092C22.791 56.7001 22.6364 56.0728 22.2455 55.6001C22.2182 55.5728 22.2 55.5455 22.1728 55.5182C22.5455 55.1092 22.7364 54.5819 22.7091 54.0182C22.6728 53.3182 22.2819 52.7273 21.7091 52.3819C22.3273 51.7546 22.7182 50.9001 22.7182 49.9546C22.7034 49.0447 22.3388 48.1755 21.7 47.5273ZM3.40914 52.0728C3.03641 52.0728 2.70914 51.8273 2.6455 51.5001C2.60005 51.2728 2.65459 51.0637 2.79096 50.891C2.92732 50.7182 3.13641 50.6273 3.35459 50.6273H17.291C17.6546 50.6273 17.9546 50.3273 17.9546 49.9637C17.9546 49.6001 17.6546 49.3001 17.291 49.3001H3.35459C3.25614 49.2995 3.1588 49.2792 3.0684 49.2401C2.978 49.2011 2.89641 49.1443 2.82851 49.073C2.76061 49.0017 2.70779 48.9174 2.67322 48.8252C2.63865 48.733 2.62304 48.6348 2.62732 48.5364C2.6455 48.1546 3.00914 47.8455 3.42732 47.8455H19.2455C20.4091 47.8455 21.3637 48.791 21.3637 49.9637C21.3637 51.1364 20.4182 52.0819 19.2455 52.0819H3.40914V52.0728ZM4.7455 42.2728H20.5728C21 42.2728 21.3546 42.5819 21.3728 42.9637C21.3771 43.0621 21.3614 43.1603 21.3269 43.2525C21.2923 43.3447 21.2395 43.4289 21.1716 43.5002C21.1037 43.5715 21.0221 43.6284 20.9317 43.6674C20.8413 43.7064 20.744 43.7268 20.6455 43.7273H6.70914C6.3455 43.7273 6.0455 44.0273 6.0455 44.391C6.0455 44.7546 6.3455 45.0546 6.70914 45.0546H20.6455C20.8637 45.0546 21.0728 45.1546 21.2091 45.3182C21.3455 45.491 21.4 45.7001 21.3546 45.9273C21.291 46.2546 20.9637 46.5001 20.591 46.5001H4.7455C3.58187 46.5001 2.62732 45.5546 2.62732 44.3819C2.62732 43.2092 3.57278 42.2728 4.7455 42.2728ZM21.1728 54.6364C21.0364 54.7819 20.8455 54.8637 20.6455 54.8637H6.70914C6.3455 54.8637 6.0455 55.1637 6.0455 55.5273C6.0455 55.891 6.3455 56.191 6.70914 56.191H20.6455C20.8637 56.191 21.0728 56.291 21.2091 56.4546C21.3455 56.6273 21.4 56.8364 21.3546 57.0637C21.291 57.391 20.9637 57.6364 20.591 57.6364H4.7455C3.58187 57.6364 2.62732 56.691 2.62732 55.5182C2.62732 54.3546 3.57278 53.4001 4.7455 53.4001H20.5637C20.991 53.4001 21.3455 53.7092 21.3637 54.091C21.3819 54.291 21.3091 54.491 21.1728 54.6364ZM58.4091 41.6364L54.2819 33.0819V31.2819C54.2819 30.6182 53.7364 30.0728 53.0728 30.0728V28.6546C53.0728 28.0364 52.5728 27.5364 51.9546 27.5364H48.191C47.5728 27.5364 47.0728 28.0364 47.0728 28.6546V30.0728C46.4091 30.0728 45.8637 30.6182 45.8637 31.2819V33.0728L41.7455 41.6364C41.5455 42.0455 41.4455 42.491 41.4455 42.9546V56.091C41.4455 57.6819 42.7364 58.9819 44.3364 58.9819H55.8182C57.4091 58.9819 58.7091 57.691 58.7091 56.091V42.9455C58.7091 42.5001 58.6091 42.0546 58.4091 41.6364ZM47.2 32.5637V31.4001H52.9546V32.5637H47.2ZM48.4091 28.8637H51.7455V30.0637H48.4091V28.8637ZM57.3728 56.0819C57.3728 56.9364 56.6728 57.6364 55.8182 57.6364H44.3364C43.4819 57.6364 42.7819 56.9364 42.7819 56.0819V42.9455C42.7819 42.6819 42.8364 42.4364 42.9455 42.2092L46.9455 33.891H53.2L57.2 42.2001C57.3091 42.4364 57.3728 42.691 57.3728 42.9455V56.0819Z" fill="#1D3362"/>
<path d="M50.4637 43.0002H53.6455C54.1637 43.0002 54.6455 42.7365 54.9273 42.2911C55.2092 41.8456 55.2364 41.3093 55.0092 40.8365L52.6546 35.9184C52.4819 35.5547 52.1092 35.3184 51.7001 35.3184H50.4637C49.8819 35.3184 49.4092 35.7911 49.4092 36.3729V41.9456C49.4092 42.5275 49.8819 43.0002 50.4637 43.0002ZM50.7455 36.6547H51.5364L53.8182 41.4184C53.8546 41.4911 53.8364 41.5547 53.8092 41.5911C53.7819 41.6275 53.7364 41.6729 53.6546 41.6729H50.7455V36.6547ZM53.7001 45.5729H46.4455C45.4728 45.5729 44.6819 46.3638 44.6819 47.3365V53.8184C44.6819 54.7911 45.4728 55.582 46.4455 55.582H53.7001C54.6728 55.582 55.4637 54.7911 55.4637 53.8184V47.3365C55.4637 46.3638 54.6728 45.5729 53.7001 45.5729ZM54.1364 53.8184C54.1364 54.0547 53.9455 54.2456 53.7092 54.2456H46.4546C46.3413 54.2456 46.2326 54.2006 46.1525 54.1205C46.0724 54.0404 46.0273 53.9317 46.0273 53.8184V47.3365C46.0273 47.1002 46.2182 46.9093 46.4546 46.9093H53.7092C53.9455 46.9093 54.1364 47.1002 54.1364 47.3365V53.8184Z" fill="#1D3362"/>
</svg>
