<svg width="300" height="136" viewBox="0 0 300 136" fill="none" xmlns="http://www.w3.org/2000/svg">
<g clip-path="url(#clip0_194_5311)">
<path d="M213.724 35.3982C213.724 38.4601 213.699 41.522 213.724 44.5839C213.724 45.6677 213.331 46.1707 212.213 46.0776C211.783 46.0434 211.349 46.0776 210.919 46.0776C209.159 46.0776 209.156 46.0776 208.889 44.3852C208.839 44.0746 208.845 43.7237 208.484 43.615C208.123 43.5063 207.909 43.8013 207.724 44.0436C206.552 45.5683 204.897 46.2173 203.065 46.4565C201.396 46.7117 199.694 46.6718 198.039 46.3384C193.556 45.3478 190.631 41.1897 190.289 36.777C189.937 32.2711 191.505 28.6813 195.262 26.0417C198.717 23.6133 204.554 23.9673 207.686 26.8242C207.941 27.054 208.173 27.4267 208.569 27.259C208.905 27.1162 208.798 26.7156 208.83 26.4237C209.018 24.7995 209.012 24.7995 210.648 24.7902C213.768 24.7902 213.765 24.7902 213.762 27.8304C213.762 30.3499 213.762 32.8694 213.762 35.3889L213.724 35.3982ZM195.372 35.4417C195.284 39.1215 198.12 42.1617 201.736 42.2735C202.617 42.3092 203.497 42.171 204.324 41.867C205.15 41.563 205.907 41.0993 206.551 40.5029C207.194 39.9066 207.711 39.1895 208.071 38.3935C208.431 37.5976 208.627 36.7387 208.647 35.8671C208.732 31.591 206.304 28.8676 202.336 28.79C198.045 28.6968 195.469 31.1562 195.372 35.4417Z" fill="white"/>
<path d="M196.11 76.4606C196.11 79.4076 196.041 82.3608 196.141 85.3016C196.185 86.5437 195.761 86.9785 194.57 86.8853C194.181 86.8543 193.785 86.8853 193.396 86.8853C191.426 86.7704 191.426 86.7673 191.197 84.811C191.171 84.5843 191.215 84.311 190.964 84.1899C190.581 84.0129 190.402 84.3514 190.188 84.5532C186.494 88.0374 182.335 88.1368 177.905 86.1897C176.137 85.4134 174.952 83.9725 174.088 82.3639C172.436 79.2865 171.848 76.0507 172.964 72.6006C173.398 71.1904 174.121 69.8832 175.086 68.7599C176.052 67.6366 177.241 66.721 178.578 66.0696C179.916 65.4183 181.375 65.0451 182.864 64.973C184.354 64.901 185.843 65.1317 187.238 65.6508C188.344 66.0452 189.155 66.8463 190.066 67.4985C190.763 67.9953 191.162 68.0046 191.121 67.0637C191.065 65.7626 191.705 65.4334 192.912 65.4831C196.386 65.629 196.053 65.1725 196.094 68.6568C196.122 71.2529 196.094 73.8521 196.094 76.4482L196.11 76.4606ZM184.285 82.749C188.244 82.749 190.939 79.9541 190.813 75.855C190.71 72.4391 188.589 69.1226 183.959 69.2313C180.425 69.312 177.525 72.3584 177.569 76.0631C177.613 79.9759 180.399 82.749 184.285 82.7366V82.749Z" fill="white"/>
<path d="M178.584 37.2583C176.152 37.2583 173.721 37.2583 171.289 37.2583C170.146 37.2583 169.954 37.5471 170.416 38.5998C170.944 39.8202 171.917 40.7992 173.143 41.3419C175.851 42.6026 178.483 42.1772 181.1 41.1214C181.7 40.8792 182.278 40.2829 182.957 40.696C183.901 41.2581 184.688 42.0462 185.243 42.9877C185.558 43.5405 184.954 43.8914 184.574 44.1957C183.22 45.2671 181.593 45.7142 179.944 46.0807C176.928 46.7545 173.928 46.7483 171.069 45.4596C166.514 43.4194 164.472 38.9383 164.896 33.6188C165.336 28.1844 171.77 23.6443 177.283 24.3275C179.796 24.6381 182.14 25.3709 184.072 26.9857C186.098 28.6781 186.899 31.0444 187.103 33.5846C187.458 38.0409 187.618 37.1123 183.88 37.2086C182.115 37.2552 180.349 37.2086 178.584 37.2086V37.2583ZM176.18 33.2741V33.2151C177.823 33.2151 179.47 33.243 181.113 33.2151C182.306 33.1872 182.448 32.9263 181.97 31.8922C180.896 29.5694 179.005 28.6378 176.501 28.6378C173.831 28.6378 171.808 29.706 170.532 32.0195C170.03 32.9232 170.287 33.2617 171.377 33.2617C172.973 33.2958 174.575 33.2741 176.18 33.2741Z" fill="white"/>
<path d="M227.257 76.1935C227.257 69.7281 231.718 65.4986 238.444 65.3465C246.216 65.1663 249.511 70.8119 249.697 76.2774C249.901 82.3515 244.871 87.2021 238.702 87.2269C231.533 87.2611 227.383 82.4819 227.257 76.1935ZM244.617 75.942C244.592 74.2775 244.136 73.1037 242.968 71.7032C240.36 68.5729 235.689 68.7624 233.521 72.0913C232.934 72.9695 232.546 73.9628 232.383 75.0032C232.221 76.0436 232.287 77.1064 232.579 78.1189C233.261 80.6622 235.039 82.3919 237.344 82.6279C241.943 83.0968 244.727 79.802 244.617 75.942Z" fill="white"/>
<path d="M218.392 35.2087C218.392 32.2214 218.417 29.2371 218.392 26.2497C218.392 25.2001 218.766 24.7281 219.834 24.812C220.186 24.8399 220.541 24.812 220.893 24.812C222.778 24.812 222.821 24.812 223.004 26.6969C223.089 27.5944 223.491 27.5323 224.053 27.1472C224.534 26.818 224.961 26.4112 225.441 26.0852C230.838 22.4084 237.633 25.3399 238.723 31.886C239.408 35.9944 239.239 40.1618 239.141 44.3075C239.107 45.7764 238.755 45.9999 237.256 46.0465C234.385 46.1397 234.382 46.1397 234.385 43.3076C234.388 40.4755 234.42 37.6465 234.41 34.8144C234.41 31.8053 232.962 29.8706 230.38 29.3303C227.427 28.7092 224.92 29.9731 223.698 32.7027C223.321 33.5381 223.362 34.4448 223.362 35.333C223.362 38.044 223.39 40.7581 223.387 43.4722C223.387 44.2796 223.481 45.2888 222.664 45.677C221.527 46.2204 220.224 46.1428 218.973 45.9658C218.659 45.9192 218.609 45.5838 218.577 45.3137C218.527 44.851 218.461 44.382 218.458 43.9255C218.458 41.0158 218.458 38.1061 218.458 35.1994L218.392 35.2087Z" fill="white"/>
<path d="M143.375 87.584C140.302 87.5157 137.617 86.7767 135.235 85.1246C133.602 83.9911 133.548 83.516 134.695 81.9354C134.864 81.7217 135.019 81.4977 135.16 81.2646C135.625 80.4106 136.121 80.3765 136.932 80.9541C138.894 82.3286 141.228 83.092 143.632 83.1465C144.662 83.2142 145.677 82.8797 146.46 82.2149C147.135 81.6279 147.653 80.9354 147.437 79.9883C147.22 79.0412 146.444 78.7461 145.637 78.5039C143.789 77.9605 141.867 77.827 139.982 77.4698C137.529 77.004 135.584 75.8271 134.642 73.4049C134.351 72.7029 134.208 71.9494 134.223 71.1909C134.238 70.4324 134.41 69.685 134.729 68.9948C135.047 68.3045 135.505 67.6862 136.075 67.1778C136.645 66.6694 137.314 66.2818 138.041 66.0389C141.641 64.7626 145.285 64.8216 148.894 65.9955C151.451 66.8308 151.605 67.4426 149.943 69.4673C148.85 70.7964 148.907 70.6908 147.396 69.8989C146.347 69.3194 145.181 68.9752 143.983 68.891C142.784 68.8067 141.581 68.9844 140.46 69.4114C138.889 70.0045 138.697 71.6348 139.947 72.7497C140.599 73.3193 141.431 73.6485 142.3 73.6813C144.606 73.8521 146.903 74.0384 149.08 74.9607C152.702 76.4916 153.829 81.482 151.087 84.3141C148.976 86.5065 146.271 87.4971 143.375 87.584Z" fill="white"/>
<path d="M69.0174 38.4725C83.9486 38.0036 99.175 50.717 98.908 68.9052C98.6787 84.5129 85.1046 97.2325 70.1923 97.6611C51.5008 98.1983 38.7466 83.7769 38.8 67.7314C38.8534 52.0337 52.3144 37.9881 69.0174 38.4725ZM52.0945 68.4984C51.6767 76.7929 59.4517 84.8917 68.9734 84.6806C77.9233 84.4818 85.4282 77.4792 85.5036 68.337C85.5821 58.4681 78.0615 51.6921 68.9985 51.512C60.2119 51.3381 51.6704 57.9867 52.0945 68.4984Z" fill="white"/>
<path d="M68.5305 135.984C55.9648 135.745 44.1593 132.808 33.3182 126.389C29.0742 123.873 25.028 121.091 21.4656 117.666C20.0143 116.268 20.0017 116.048 21.3211 114.52C23.4384 112.064 26.0332 110.07 28.3045 107.784C31.9423 104.145 35.6366 100.564 39.3278 96.9778C40.4116 95.9251 40.7854 95.9282 41.9069 96.9126C47.9667 102.22 55.0098 105.359 63.0016 106.682C71.2824 108.052 78.9537 106.328 86.3895 102.875C88.8167 101.698 91.0979 100.248 93.1875 98.5522C94.3939 97.6206 94.796 97.6206 95.9332 98.633C98.6599 101.04 100.831 103.946 103.287 106.598C106.645 110.225 109.919 113.936 113.261 117.582C114.43 118.855 114.458 119.014 113.101 120.116C101.899 129.224 89.022 134.314 74.628 135.739C73.6165 135.842 72.6175 136.05 71.5902 135.994C70.563 135.938 69.5515 135.984 68.5305 135.984Z" fill="white"/>
<path d="M68.6497 0C74.166 0 79.9023 0.779451 85.582 1.99055C87.1527 2.32593 87.4323 2.79484 87.0585 4.39101C85.8993 9.34098 84.1338 14.1202 82.783 19.0142C81.9254 22.1196 81.2123 25.2591 80.0154 28.262C79.2772 30.1253 79.1923 30.2122 77.1441 29.9607C74.5776 29.6501 72.0456 29.1378 69.4476 29.0073C66.3533 28.8521 63.3533 29.3707 60.3375 29.8675C59.3951 30.0228 58.4526 30.0507 57.551 30.2774C56.1531 30.6252 55.3332 30.0166 54.6546 28.9048C53.7467 27.4205 53.3415 25.756 52.7698 24.1474C50.686 18.1437 48.4608 12.1855 46.0942 6.27287C45.2837 4.25126 45.4848 3.78856 47.5927 3.16749C52.6623 1.64514 57.8832 0.667499 63.1648 0.251535C64.8988 0.121109 66.6078 0.0279484 68.6497 0Z" fill="white"/>
<path d="M31.2132 84.3421C31.4896 84.3365 31.7636 84.3932 32.0145 84.5078C32.2654 84.6224 32.4866 84.7919 32.6614 85.0035C33.918 86.2643 34.7442 87.7984 35.6584 89.2951C36.0448 89.9162 35.7243 90.3944 35.2217 90.7981C29.985 94.9966 24.277 98.5398 18.7732 102.369C16.9166 103.661 15.0632 104.962 13.2569 106.322C12.4558 106.924 11.95 106.75 11.4223 106.011C9.22326 102.968 7.38866 99.7478 6.19492 96.1798C5.88077 95.2699 6.07243 94.7513 6.93633 94.3165C10.172 92.6303 13.6527 91.5217 16.9889 90.0994C20.8717 88.4432 24.7576 86.7922 28.6467 85.1463C29.4855 84.783 30.2991 84.4011 31.2132 84.3421Z" fill="white"/>
<path d="M36.73 44.0994C35.9855 46.0776 35.2347 48.065 33.4378 49.419C32.9823 49.7605 32.4388 49.568 31.9676 49.3848C29.9602 48.6116 27.9748 47.8321 26.2753 46.4316C24.9057 45.3105 23.1716 44.795 21.5632 44.0839C17.3746 42.2207 13.2761 40.197 9.26764 38.0129C7.67494 37.1465 7.56816 36.7707 8.35352 35.1497C9.86768 32.0226 12.0981 29.3489 13.961 26.4392C14.4919 25.61 15.1578 25.5821 15.9243 26.2187C17.3805 27.3943 18.7282 28.6954 19.9516 30.1066C20.5486 30.8281 21.287 31.4228 22.1224 31.8549C24.1373 32.8206 25.9229 34.1963 27.3623 35.8919C28.3235 37.0533 29.7749 37.5937 30.9718 38.4601C32.709 39.7022 34.487 40.9226 35.9384 42.5188C36.3918 42.9301 36.6741 43.4936 36.73 44.0994Z" fill="white"/>
<path d="M42.5385 38.0936C42.3889 38.0892 42.2422 38.0515 42.1095 37.9832C41.9768 37.9149 41.8614 37.8178 41.7719 37.6992C41.3106 37.2269 40.8755 36.7304 40.4683 36.2118C39.1394 34.3858 37.7258 32.653 35.9289 31.2432C33.3278 29.1874 31.71 26.2746 29.4764 23.8865C27.7204 22.0233 25.9674 20.1352 24.136 18.3279C23.1936 17.3963 23.2218 16.8777 24.158 15.9927C26.0617 14.1884 28.3015 12.819 30.4408 11.3346C31.1037 10.875 31.578 11.0613 32.0115 11.67C34.6723 15.3064 36.9624 19.185 39.4065 22.9611C41.3636 25.992 43.151 29.1315 45.0233 32.2183C45.5096 32.9695 46.0785 33.6652 46.7197 34.2926C47.0904 34.6777 47.3699 35.1808 46.7637 35.5783C45.5071 36.4136 44.1877 37.1993 42.8903 37.9943C42.7787 38.0446 42.6601 38.0781 42.5385 38.0936Z" fill="white"/>
<path d="M27.9903 71.1379C28.9328 70.8553 29.2877 71.5727 29.4071 72.6906C29.4882 73.6564 29.6543 74.6134 29.9035 75.5507C30.2176 76.6189 29.7244 77.0413 28.8071 77.3239C26.2217 78.1188 23.5641 78.6033 20.9221 79.1467C17.1524 79.92 13.4047 80.6994 9.73235 81.8236C7.36371 82.544 4.89769 82.8079 2.50707 83.4042C1.8348 83.5719 1.48299 83.2458 1.31649 82.6247C0.674389 80.1081 0.241525 77.5439 0.0222255 74.9575C-0.109714 73.6067 0.358361 73.2745 1.83169 73.1316C9.39939 72.3956 17.0173 72.3553 24.5756 71.5168L27.9903 71.1379Z" fill="white"/>
<path d="M30.4815 57.8283C30.3601 58.9762 30.1104 60.1073 29.737 61.2008C29.4857 62.0206 28.8668 62.151 28.0563 62.0392C23.5986 61.4182 19.1441 60.7194 14.6676 60.2505C10.4172 59.8034 6.22025 59.0612 2.01074 58.3873C0.559404 58.1513 0.49342 57.9867 0.77929 56.5241C1.21909 54.282 1.61179 52.0337 2.09557 49.804C2.42856 48.2514 2.91863 48.0433 4.42652 48.6054C8.19623 50.0121 12.2424 50.5835 15.9807 52.0803C20.0991 53.7292 24.4342 54.6267 28.6595 55.9123C29.6553 56.2167 30.6763 56.5582 30.4815 57.8283Z" fill="white"/>
<path d="M253.667 76.5072C253.667 73.7123 253.633 70.9175 253.667 68.1227C253.702 65.9489 255.398 64.8993 257.465 65.7222C257.933 65.9085 258.04 66.3029 258.112 66.7408C258.382 68.3183 258.499 68.4114 259.765 67.3929C262.077 65.5296 264.725 65.1477 267.524 65.57C270.98 66.0948 273.304 68.4704 274.083 72.0075C274.68 74.7247 274.621 77.4791 274.614 80.2305C274.614 81.895 274.551 83.5626 274.526 85.2271C274.526 86.2021 273.983 86.5624 273.05 86.64C269.729 86.9288 269.619 86.845 269.613 83.5346C269.613 80.5876 269.67 77.6344 269.582 74.6967C269.494 71.8243 267.43 69.8213 264.511 69.5884C261.788 69.3741 259.397 71.2032 258.797 73.9111C258.357 75.9109 258.602 77.9294 258.558 79.9386C258.518 81.7615 258.527 83.5843 258.558 85.4072C258.558 86.3388 258.119 86.7114 257.217 86.7922C253.959 87.1027 253.629 86.8139 253.614 83.6061C253.614 81.2398 253.614 78.8735 253.614 76.5103L253.667 76.5072Z" fill="white"/>
<path d="M163.59 75.501C163.59 76.7432 163.568 77.9853 163.59 79.2275C163.643 81.5969 165.098 82.8297 167.447 82.2086C168.808 81.8515 169.175 82.2087 169.59 83.4166C170.564 86.2115 170.441 86.5593 167.359 86.8729C164.733 87.14 162.179 87.1058 160.25 84.8513C158.793 83.1465 158.366 81.1249 158.366 79.0039C158.35 76.4078 158.34 73.8117 158.384 71.2156C158.403 70.1908 158.039 69.8648 156.99 69.9455C154.294 70.1443 154.291 70.1008 154.282 67.5047C154.282 65.5266 154.282 65.5266 156.248 65.5514C158.526 65.5825 158.526 65.5825 158.428 63.2721C158.293 60.0363 158.428 59.8779 161.664 59.5798C163.414 59.4152 163.621 59.5984 163.637 61.384C163.637 62.3932 163.618 63.3994 163.618 64.4086C163.618 65.1974 163.932 65.6197 164.824 65.5731C165.686 65.5348 166.549 65.5587 167.407 65.6446C168.977 65.7843 169.452 66.2656 169.606 67.8183C169.646 68.2003 169.606 68.5916 169.65 68.9797C169.719 69.7809 169.389 70.0853 168.553 70.0387C167.297 69.9673 166.04 70.0387 164.784 69.9766C163.841 69.93 163.527 70.2871 163.527 71.1939C163.568 72.6286 163.527 74.0632 163.527 75.4979L163.59 75.501Z" fill="white"/>
<path d="M201.947 75.7588C201.947 74.1688 201.922 72.582 201.947 70.992C201.947 70.1288 201.604 69.8306 200.74 69.8803C197.875 70.0511 197.875 70.0356 198.007 67.219C198.086 65.5421 198.086 65.5421 199.811 65.5607C202.01 65.5825 202.01 65.5825 202.01 63.359C202.01 62.856 202.01 62.3498 202.01 61.8467C202.035 60.1015 202.236 59.8872 204.017 59.7009C206.47 59.4432 207.026 59.9307 207.086 62.387C207.086 62.6572 207.102 62.9274 207.102 63.2006C207.124 65.7688 206.86 65.4986 209.555 65.5545C209.675 65.5545 209.791 65.5545 209.91 65.5545C213.224 65.5017 213.642 66.0203 213.074 69.34C212.961 70.0076 212.54 70.0138 212.059 70.0107C210.765 70.0107 209.47 70.0107 208.179 69.9548C207.551 69.9331 207.092 70.0791 207.077 70.8119C207.011 73.6378 206.763 76.4668 207.077 79.2927C207.344 81.7553 208.927 82.8546 211.349 82.1497C212.386 81.8391 212.873 81.9913 213.033 83.0813C213.16 83.6115 213.33 84.1307 213.542 84.634C213.963 85.9631 213.856 86.314 212.599 86.6152C208.61 87.5685 205.559 87.0655 203.087 83.929C202.245 82.8639 202.094 81.5814 202.047 80.302C201.991 78.7896 202.047 77.2773 202.047 75.765L201.947 75.7588Z" fill="white"/>
<path d="M144.638 24.3462C146.886 24.26 149.106 24.8713 150.986 26.0945C152.186 26.8833 152.287 27.4578 151.344 28.5074C151.109 28.7682 150.861 29.0167 150.641 29.2899C149.896 30.2215 149.098 30.3427 147.977 29.7992C144.974 28.3397 141.904 28.7651 140.054 30.7557C138.336 32.6034 137.899 36.5006 139.127 38.9911C140.208 41.1649 142.401 42.3263 145.175 42.1462C146.236 42.0703 147.266 41.7639 148.194 41.2487C149.321 40.6277 150.148 40.8699 151.021 41.7083C152.975 43.5716 152.972 44.3634 150.393 45.3603C145.872 47.121 141.314 47.3291 137.268 44.1554C133.674 41.3357 132.801 37.4043 133.627 33.1561C134.751 27.4609 138.716 24.4052 144.638 24.3462Z" fill="white"/>
<path d="M160.822 31.3115C160.822 35.5762 160.822 39.8399 160.822 44.1026C160.822 45.9658 160.706 46.0838 158.843 46.0931C155.802 46.0931 155.752 46.0931 155.736 43.0902C155.698 35.1063 155.655 27.1193 155.72 19.1353C155.755 15.3592 155.944 15.8995 159.409 15.8871C160.093 15.8871 160.47 16.2411 160.637 16.9057C160.755 17.4347 160.807 17.9758 160.794 18.5174V31.3115H160.822Z" fill="white"/>
<path d="M217.547 76.1066C217.547 72.9702 217.572 69.8337 217.547 66.6973C217.547 65.7346 217.905 65.4272 218.851 65.4365C223.117 65.4893 222.491 64.9862 222.545 68.9642C222.611 73.5695 222.645 78.1779 222.686 82.7831C222.686 83.5191 222.686 84.2582 222.636 84.9911C222.542 86.5997 222.356 86.7674 220.751 86.8108C217.55 86.8978 217.55 86.8978 217.553 83.7738V76.1066H217.547Z" fill="white"/>
<path d="M280.988 16.3622C281.005 17.323 280.828 18.2775 280.467 19.1696C280.106 20.0618 279.568 20.8738 278.886 21.5579C278.203 22.2419 277.389 22.7843 276.492 23.1533C275.594 23.5223 274.631 23.7103 273.659 23.7064C269.478 23.7437 266.226 20.5079 266.179 16.3622C266.175 15.375 266.374 14.3974 266.765 13.4889C267.156 12.5804 267.73 11.7601 268.452 11.078C269.173 10.396 270.029 9.86658 270.964 9.522C271.9 9.17743 272.897 9.02496 273.895 9.07391C275.81 9.11954 277.63 9.91081 278.958 11.2756C280.286 12.6405 281.016 14.4685 280.988 16.3622ZM273.653 10.2881C270.225 10.2881 267.411 12.937 267.37 16.2163C267.354 17.0216 267.498 17.8223 267.796 18.5722C268.093 19.3222 268.537 20.0067 269.103 20.5866C269.669 21.1665 270.344 21.6303 271.092 21.9514C271.839 22.2726 272.643 22.4448 273.458 22.4581C276.976 22.4581 279.741 19.8371 279.741 16.4678C279.758 15.6651 279.614 14.867 279.316 14.12C279.019 13.373 278.573 12.692 278.007 12.1168C277.44 11.5416 276.763 11.0837 276.016 10.7697C275.268 10.4558 274.465 10.292 273.653 10.2881Z" fill="white"/>
<path d="M181.399 108.561C181.399 109.527 181.417 110.496 181.399 111.461C181.399 111.815 181.427 112.272 180.805 112.241C180.268 112.216 180.211 111.884 180.151 111.464C180.092 111.045 180.406 110.405 179.875 110.222C179.63 110.142 179.174 110.62 178.841 110.881C177.922 111.577 176.813 111.987 175.657 112.059C174.501 112.131 173.349 111.861 172.348 111.284C170.482 110.21 169.436 107.868 169.8 105.58C170.212 103.015 172.087 101.139 174.55 100.832C177.714 100.434 179.925 101.564 181.05 104.195C181.634 105.601 181.43 107.098 181.399 108.561ZM180.142 106.524C180.142 103.909 178.141 101.773 175.675 101.785C173.209 101.797 171.164 103.89 171.167 106.493C171.17 109.095 173.052 110.989 175.665 110.989C176.852 110.965 177.982 110.485 178.816 109.652C179.65 108.818 180.124 107.696 180.136 106.524H180.142Z" fill="white"/>
<path d="M134.83 103.689C134.579 98.1703 140.799 94.6643 144.6 95.7077C145.688 96.0285 146.726 96.4967 147.685 97.0989C148.093 97.3412 148.508 97.6362 148.1 98.2045C147.653 98.8255 147.355 98.2262 147.069 98.0399C145.866 97.2192 144.432 96.795 142.971 96.8279C141.51 96.8608 140.097 97.3491 138.933 98.2231C136.558 100.012 135.477 103.626 136.489 106.403C137.598 109.443 140.24 111.415 143.174 111.371C144.628 111.346 145.882 110.694 147.145 110.061C147.459 109.909 147.836 109.393 148.144 109.859C148.451 110.325 148.03 110.7 147.591 110.949C144.609 112.641 141.578 112.585 138.628 110.974C135.895 109.468 134.849 106.968 134.83 103.689Z" fill="white"/>
<path d="M163.075 106.893C161.859 106.893 160.646 106.893 159.431 106.893C158.353 106.893 158.205 107.126 158.598 108.135C159.541 110.586 162.211 111.66 164.809 110.62C165.28 110.433 165.732 110.197 166.21 110.02C166.442 109.933 166.763 109.744 166.926 110.079C167.058 110.35 166.87 110.607 166.646 110.784C166.045 111.22 165.373 111.551 164.658 111.763C163.32 112.253 161.843 112.224 160.526 111.681C159.209 111.137 158.149 110.12 157.561 108.834C156.321 106.136 157.411 102.574 159.987 101.241C161.743 100.332 163.609 100.484 165.296 101.394C167.089 102.359 167.872 104.008 167.862 106.036C167.862 106.685 167.627 106.915 166.954 106.89C165.663 106.853 164.369 106.893 163.075 106.893ZM162.446 105.76C163.618 105.76 164.79 105.76 165.962 105.76C166.59 105.76 166.785 105.496 166.615 104.884C166.116 103.08 164.614 101.856 162.845 101.838C161.904 101.836 160.985 102.124 160.216 102.661C159.447 103.198 158.865 103.957 158.551 104.834C158.315 105.573 158.551 105.803 159.299 105.766C160.348 105.723 161.403 105.754 162.456 105.754L162.446 105.76Z" fill="white"/>
<path d="M291.386 104.294V97.8877C291.363 97.6952 291.37 97.5003 291.408 97.3101C291.575 96.8474 291.298 96.0089 292.087 96.0369C292.932 96.0648 292.567 96.894 292.58 97.338C292.655 99.8565 292.636 102.378 292.684 104.897C292.684 105.294 292.501 105.875 292.966 106.052C293.362 106.201 293.595 105.664 293.865 105.415C295.476 103.999 297.066 102.561 298.693 101.167C298.985 100.919 299.321 100.31 299.837 100.912C300.254 101.415 299.752 101.676 299.457 101.95C298.395 102.925 297.327 103.897 296.246 104.85C295.649 105.375 295.382 105.76 296.089 106.524C297.345 107.89 298.448 109.412 299.588 110.871C299.833 111.182 300.242 111.654 299.815 111.992C299.325 112.377 298.954 111.853 298.668 111.514C297.562 110.207 296.469 108.878 295.395 107.555C295.059 107.145 294.795 106.486 294.122 106.841C293.45 107.195 292.457 107.462 292.511 108.573C292.552 109.458 292.545 110.35 292.558 111.241C292.558 111.697 292.508 112.144 291.908 112.129C291.308 112.113 291.408 111.589 291.405 111.25C291.383 108.924 291.405 106.592 291.405 104.269L291.386 104.294Z" fill="white"/>
<path d="M186.569 102.31C187.512 101.863 188.033 101.139 188.888 100.872C192.057 99.8906 195.029 101.701 195.459 104.977C195.723 106.983 195.551 109.014 195.459 111.017C195.444 111.381 195.529 111.912 194.979 111.927C194.35 111.946 194.272 111.402 194.263 110.924C194.228 109.179 194.222 107.434 194.184 105.688C194.131 103.244 192.77 101.878 190.333 101.785C189.344 101.743 188.379 102.087 187.645 102.742C186.911 103.398 186.467 104.312 186.409 105.288C186.334 106.875 186.359 108.465 186.327 110.055C186.327 110.52 186.255 110.986 186.217 111.446C186.18 111.905 185.884 112.045 185.504 112.067C185.052 112.107 185.036 111.731 184.986 111.446C184.936 111.138 184.912 110.826 184.914 110.514C184.914 107.798 184.914 105.082 184.914 102.366C184.918 102.054 184.94 101.743 184.98 101.434C185.024 101.068 185.134 100.72 185.58 100.692C186.026 100.664 186.208 100.922 186.293 101.313C186.378 101.614 186.466 101.925 186.569 102.31Z" fill="white"/>
<path d="M222.655 106.188C222.655 107.623 222.655 109.058 222.655 110.492C222.671 110.879 222.625 111.266 222.52 111.638C222.472 111.763 222.395 111.875 222.296 111.966C222.197 112.056 222.078 112.123 221.948 112.16C221.709 112.188 221.508 111.905 221.493 111.604C221.417 110.107 220.66 110.769 220.029 111.169C217.663 112.66 214.271 112.101 212.804 109.986C212.234 109.095 211.947 108.056 211.98 107.002C211.958 105.257 211.98 103.512 211.98 101.766C211.98 101.276 212.002 100.779 212.653 100.76C213.303 100.742 213.328 101.232 213.35 101.729C213.438 103.741 213.165 105.766 213.488 107.769C213.831 109.912 215.445 111.232 217.616 111.005C219.979 110.759 221.285 109.859 221.339 107.278C221.376 105.456 221.361 103.633 221.392 101.81C221.392 101.391 221.197 100.791 221.955 100.76C222.712 100.729 222.52 101.347 222.526 101.76C222.545 103.235 222.526 104.707 222.526 106.179L222.655 106.188Z" fill="white"/>
<path d="M230.37 112.054C228.979 112.114 227.613 111.673 226.525 110.812C226.158 110.53 225.696 110.191 226.145 109.676C226.594 109.16 226.874 109.601 227.216 109.878C228.831 111.185 231.501 111.396 232.927 110.371C233.512 109.952 233.87 109.44 233.776 108.704C233.681 107.968 233.176 107.601 232.519 107.337C231.206 106.819 229.748 106.887 228.454 106.26C227.072 105.586 226.431 104.803 226.506 103.53C226.553 102.907 226.803 102.315 227.219 101.843C227.635 101.372 228.194 101.047 228.812 100.915C230.766 100.45 232.638 100.496 234.168 102.04C234.454 102.325 235.001 102.661 234.668 103.058C234.335 103.456 233.725 103.288 233.307 102.915C232.343 102.03 231.196 101.797 229.927 101.906C228.724 102.009 227.845 102.623 227.766 103.505C227.665 104.657 228.435 105.201 229.387 105.483C230.436 105.794 231.523 105.968 232.591 106.216C234.002 106.542 234.897 107.418 235.02 108.57C235.167 109.968 234.555 110.936 233.135 111.573C232.263 111.941 231.317 112.106 230.37 112.054Z" fill="white"/>
<path d="M279.056 106.384C279.056 109.722 282.141 111.849 285.311 110.669C285.603 110.558 285.876 110.402 286.168 110.291C286.586 110.132 287.13 109.62 287.425 110.076C287.789 110.632 287.089 110.924 286.69 111.182C286.037 111.614 285.302 111.912 284.53 112.055C283.758 112.199 282.964 112.186 282.197 112.017C281.431 111.848 280.706 111.527 280.068 111.074C279.431 110.62 278.893 110.043 278.487 109.378C276.832 106.642 277.941 102.695 280.778 101.198C282.662 100.198 285.49 100.605 287.004 102.13C287.318 102.44 287.817 102.872 287.397 103.31C286.976 103.748 286.617 103.173 286.297 102.949C283.561 101.043 280.825 101.651 279.433 104.48C279.162 105.078 279.033 105.729 279.056 106.384Z" fill="white"/>
<path d="M254.003 106.114C254.047 110.051 257.267 112.067 260.795 110.44C260.902 110.39 261.012 110.353 261.109 110.309C261.558 110.129 262.177 109.595 262.45 110.058C262.764 110.604 262.033 110.964 261.593 111.232C257.886 113.486 252.913 111.253 252.9 107.142C252.9 103.415 255.291 99.6888 259.812 100.866C260.892 101.148 261.659 101.841 262.372 102.627C262.56 102.835 262.702 103.105 262.463 103.35C262.224 103.595 261.951 103.487 261.712 103.335C261.453 103.161 261.202 102.974 260.961 102.776C259.585 101.661 258.062 101.437 256.472 102.201C254.82 102.993 253.906 104.3 254.003 106.114Z" fill="white"/>
<path d="M238.946 105.8C238.946 105.024 238.915 104.248 238.946 103.474C238.993 102.605 238.692 102.145 237.74 102.232C237.332 102.266 236.763 102.347 236.754 101.726C236.744 101.105 237.322 101.089 237.718 101.145C238.761 101.301 238.88 100.689 238.915 99.9031C238.94 99.282 238.997 98.6609 239.059 98.0399C239.056 97.9012 239.108 97.7668 239.205 97.6662C239.301 97.5655 239.434 97.5067 239.575 97.5026C239.835 97.5026 239.964 97.7511 240.043 97.9684C240.247 98.6391 240.322 99.3418 240.263 100.04C240.237 100.825 240.548 101.198 241.375 101.102C241.688 101.073 242.004 101.078 242.317 101.117C242.631 101.148 243.109 101.015 243.187 101.49C243.275 102.015 242.754 102.043 242.427 102.21C242.353 102.233 242.275 102.244 242.198 102.241C240.263 102.49 240.256 102.49 240.259 104.443C240.259 105.763 240.234 107.083 240.313 108.396C240.407 109.949 241.293 110.753 242.86 110.85C243.244 110.874 243.844 110.62 243.803 111.328C243.781 111.924 243.263 112.002 242.766 112.023C240.822 112.113 239.248 110.853 239.05 108.918C238.99 107.874 238.984 106.827 239.031 105.782L238.946 105.8Z" fill="white"/>
<path d="M217.277 59.4307C217.299 57.6979 218.533 56.4092 220.154 56.4092C221.725 56.4092 223.154 57.9401 223.104 59.5643C223.06 61.0051 221.628 62.3001 220.116 62.2597C218.605 62.2193 217.255 60.8747 217.277 59.4307Z" fill="white"/>
<path d="M207.472 107.269C207.472 109.089 207.472 110.909 207.472 112.728C207.447 115.604 204.931 116.896 202.902 117.185C202.342 117.262 201.978 117.035 201.928 116.455C201.877 115.874 202.327 115.796 202.776 115.747C205.223 115.477 206.2 114.505 206.231 111.986C206.291 108.775 206.231 105.561 206.231 102.359C206.231 102.049 206.231 101.738 206.231 101.428C206.231 101.033 206.231 100.655 206.825 100.651C207.419 100.648 207.513 100.99 207.51 101.471C207.51 103.406 207.51 105.344 207.51 107.278L207.472 107.269Z" fill="white"/>
<path d="M152.824 102.819C152.824 104.831 152.78 106.856 152.824 108.859C152.871 110.483 153.208 110.797 154.841 111.089C155.064 111.129 155.366 111.089 155.385 111.399C155.403 111.71 155.19 111.943 154.844 112.051C153.902 112.362 152.391 111.651 151.891 110.629C151.642 110.148 151.505 109.617 151.489 109.076C151.489 105.126 151.5 101.175 151.521 97.2231C151.521 97.071 151.558 96.9126 151.565 96.7604C151.565 96.3381 151.675 95.9717 152.193 95.9624C152.799 95.9624 152.724 96.4188 152.727 96.7915C152.727 98.8069 152.727 100.828 152.727 102.838L152.824 102.819Z" fill="white"/>
<path d="M265.862 103.676C265.862 102.049 265.862 100.422 265.862 98.7945C265.857 98.4832 265.873 98.172 265.909 97.8628C265.972 97.4188 266.192 96.9312 266.648 96.9468C267.103 96.9623 267.075 97.5368 267.078 97.897C267.1 101.151 267.097 104.418 267.116 107.66C267.116 108.238 267.191 108.816 267.235 109.393C267.307 110.381 267.794 110.992 268.834 111.045C269.233 111.067 269.575 111.132 269.538 111.604C269.494 112.129 269.054 112.154 268.655 112.148C267.109 112.12 265.96 110.971 265.897 109.25C265.831 107.387 265.897 105.524 265.897 103.661L265.862 103.676Z" fill="white"/>
<path d="M273.92 106.309V111.312C273.92 111.728 273.879 112.101 273.314 112.098C272.748 112.095 272.686 111.738 272.686 111.315C272.686 108.017 272.686 104.723 272.686 101.425C272.686 100.947 272.874 100.704 273.358 100.67C273.933 100.63 273.986 101.009 273.986 101.425C273.986 103.052 273.986 104.682 273.986 106.309H273.92Z" fill="white"/>
<path d="M273.238 98.1579C272.846 97.984 272.415 97.8132 272.475 97.2977C272.525 96.8847 272.808 96.5617 273.27 96.6766C273.678 96.7698 274.108 96.9872 274.071 97.5026C274.039 97.9436 273.628 98.0585 273.238 98.1579Z" fill="white"/>
<path d="M207.158 96.9002C207.56 96.9312 207.636 97.2449 207.639 97.5523C207.639 98.1237 207.152 98.0523 206.797 98.102C206.442 98.1517 206.304 97.9001 206.341 97.5989C206.401 97.1486 206.734 96.9778 207.158 96.9002Z" fill="white"/>
<path d="M276.555 19.744C275.406 20.0918 274.67 19.7999 274.184 18.8714C273.926 18.4408 273.643 18.026 273.335 17.6292C273.266 17.5122 273.162 17.4195 273.037 17.3638C272.912 17.3082 272.772 17.2924 272.638 17.3187C272.239 17.3901 272.324 17.71 272.324 17.9615C272.303 18.3484 272.303 18.736 272.324 19.1229C272.352 19.626 272.239 19.9086 271.626 19.921C271.014 19.9334 270.835 19.6539 270.841 19.0825C270.866 17.2969 270.841 15.5145 270.841 13.7289C270.841 13.3407 270.797 12.8935 271.381 12.8935C272.475 12.8935 273.58 12.7507 274.655 13.0736C275.042 13.161 275.393 13.3624 275.662 13.6513C275.93 13.9402 276.104 14.3029 276.16 14.6915C276.285 15.5145 276.031 16.2908 275.274 16.6883C274.517 17.0858 274.796 17.3497 275.148 17.7938C275.625 18.3652 276.04 19.0111 276.555 19.744ZM272.33 15.0052C272.258 15.5766 272.311 16.0765 273.059 15.9896C273.722 15.9088 274.576 15.9896 274.595 14.9959C274.614 14.0798 273.857 14.1791 273.251 14.1201C272.581 14.0425 272.186 14.2754 272.33 15.0052Z" fill="white"/>
</g>
<defs>
<clipPath id="clip0_194_5311">
<rect width="300" height="136" fill="white"/>
</clipPath>
</defs>
</svg>
