<svg width="252" height="115" viewBox="0 0 252 115" fill="none" xmlns="http://www.w3.org/2000/svg">
<g clip-path="url(#clip0_68_4688)">
<path d="M179.528 29.9744C179.528 32.541 179.507 35.1075 179.528 37.6741C179.528 38.5826 179.198 39.0043 178.259 38.9262C177.897 38.8976 177.533 38.9262 177.172 38.9262C175.694 38.9262 175.691 38.9262 175.467 37.5075C175.425 37.2472 175.43 36.9531 175.127 36.862C174.823 36.7709 174.644 37.0182 174.488 37.2212C173.504 38.4993 172.113 39.0433 170.575 39.2438C169.173 39.4577 167.743 39.4242 166.353 39.1449C162.587 38.3145 160.13 34.829 159.843 31.1301C159.547 27.3531 160.864 24.344 164.02 22.1314C166.923 20.0958 171.825 20.3926 174.456 22.7874C174.67 22.98 174.865 23.2924 175.198 23.1518C175.48 23.0321 175.39 22.6963 175.417 22.4516C175.575 21.0902 175.57 21.0902 176.945 21.0824C179.565 21.0824 179.562 21.0824 179.56 23.6308C179.56 25.7427 179.56 27.8546 179.56 29.9665L179.528 29.9744ZM164.112 30.0108C164.038 33.0954 166.421 35.6438 169.458 35.7375C170.199 35.7674 170.938 35.6516 171.632 35.3968C172.326 35.1419 172.962 34.7532 173.503 34.2533C174.043 33.7534 174.477 33.1523 174.78 32.4851C175.082 31.818 175.247 31.098 175.264 30.3674C175.335 26.783 173.295 24.5002 169.962 24.4351C166.358 24.357 164.194 26.4186 164.112 30.0108Z" fill="#4876B2"/>
<path d="M164.732 64.3943C164.732 66.8646 164.674 69.3401 164.759 71.8051C164.796 72.8464 164.439 73.2108 163.439 73.1327C163.112 73.1067 162.78 73.1327 162.452 73.1327C160.798 73.0364 160.798 73.0338 160.605 71.3939C160.584 71.2039 160.621 70.9748 160.41 70.8733C160.088 70.7249 159.938 71.0086 159.758 71.1778C156.655 74.0984 153.161 74.1817 149.44 72.5496C147.955 71.8989 146.96 70.6911 146.234 69.3427C144.846 66.7631 144.353 64.0507 145.29 61.1587C145.655 59.9766 146.261 58.8809 147.073 57.9393C147.884 56.9977 148.882 56.2302 150.006 55.6843C151.13 55.1383 152.355 54.8254 153.606 54.765C154.857 54.7047 156.108 54.898 157.28 55.3331C158.209 55.6637 158.89 56.3353 159.655 56.8819C160.241 57.2984 160.576 57.3062 160.542 56.5175C160.494 55.4268 161.033 55.1509 162.046 55.1926C164.964 55.3149 164.685 54.9323 164.719 57.8529C164.743 60.029 164.719 62.2078 164.719 64.3839L164.732 64.3943ZM154.8 69.6655C158.125 69.6655 160.389 67.3227 160.283 63.8867C160.196 61.0234 158.415 58.2433 154.525 58.3344C151.557 58.4021 149.121 60.9557 149.158 64.0611C149.195 67.3409 151.536 69.6655 154.8 69.6551V69.6655Z" fill="#4876B2"/>
<path d="M150.01 31.5336C147.968 31.5336 145.926 31.5336 143.883 31.5336C142.923 31.5336 142.762 31.7757 143.15 32.6581C143.593 33.681 144.411 34.5017 145.44 34.9566C147.715 36.0134 149.926 35.6568 152.124 34.7717C152.628 34.5687 153.114 34.0689 153.684 34.4151C154.477 34.8864 155.138 35.547 155.605 36.3362C155.869 36.7995 155.362 37.0936 155.043 37.3487C153.905 38.2468 152.538 38.6216 151.153 38.9288C148.62 39.4936 146.1 39.4884 143.698 38.4082C139.872 36.698 138.157 32.9418 138.513 28.4828C138.883 23.9275 144.287 20.1219 148.918 20.6945C151.029 20.9548 152.998 21.5691 154.62 22.9227C156.322 24.3414 156.995 26.3249 157.167 28.4542C157.465 32.1895 157.6 31.4112 154.459 31.4919C152.976 31.531 151.493 31.4919 150.01 31.4919V31.5336ZM147.992 28.1939V28.1444C149.372 28.1444 150.755 28.1678 152.135 28.1444C153.137 28.121 153.256 27.9023 152.855 27.0355C151.953 25.0884 150.364 24.3075 148.261 24.3075C146.018 24.3075 144.319 25.203 143.247 27.1422C142.825 27.8997 143.041 28.1835 143.957 28.1835C145.298 28.2121 146.643 28.1939 147.992 28.1939Z" fill="#4876B2"/>
<path d="M190.896 64.1704C190.896 58.7509 194.643 55.2056 200.293 55.078C206.821 54.9271 209.589 59.6594 209.745 64.2407C209.916 69.3323 205.692 73.3982 200.509 73.419C194.487 73.4477 191.002 69.4416 190.896 64.1704ZM205.478 63.9596C205.457 62.5644 205.074 61.5804 204.093 60.4065C201.902 57.7826 197.979 57.9414 196.158 60.7318C195.664 61.468 195.338 62.3006 195.202 63.1727C195.065 64.0447 195.121 64.9356 195.366 65.7843C195.939 67.9162 197.432 69.3661 199.369 69.5639C203.232 69.957 205.57 67.1952 205.478 63.9596Z" fill="#4876B2"/>
<path d="M183.449 29.8156C183.449 27.3114 183.47 24.8099 183.449 22.3058C183.449 21.426 183.763 21.0303 184.66 21.1006C184.956 21.124 185.254 21.1006 185.55 21.1006C187.133 21.1006 187.17 21.1006 187.323 22.6806C187.394 23.4329 187.732 23.3809 188.204 23.0581C188.608 22.7822 188.967 22.4412 189.371 22.1679C193.904 19.0859 199.612 21.5431 200.528 27.0303C201.103 30.4741 200.96 33.9674 200.878 37.4425C200.849 38.6737 200.554 38.8611 199.295 38.9002C196.883 38.9783 196.881 38.9783 196.883 36.6043C196.886 34.2303 196.912 31.859 196.904 29.485C196.904 26.9626 195.688 25.3409 193.519 24.888C191.038 24.3674 188.933 25.4269 187.906 27.7149C187.589 28.4151 187.624 29.1752 187.624 29.9197C187.624 32.1921 187.648 34.4672 187.645 36.7423C187.645 37.419 187.724 38.265 187.038 38.5904C186.083 39.0459 184.988 38.9809 183.937 38.8325C183.674 38.7934 183.631 38.5123 183.605 38.2859C183.563 37.898 183.507 37.5049 183.505 37.1223C183.505 34.6832 183.505 32.2442 183.505 29.8078L183.449 29.8156Z" fill="#4876B2"/>
<path d="M120.435 73.7184C117.854 73.6611 115.598 73.0416 113.598 71.6568C112.225 70.7067 112.181 70.3084 113.144 68.9835C113.286 68.8044 113.416 68.6166 113.534 68.4212C113.925 67.7054 114.342 67.6767 115.023 68.1609C116.671 69.313 118.631 69.953 120.651 69.9987C121.516 70.0555 122.369 69.775 123.026 69.2177C123.593 68.7258 124.029 68.1453 123.847 67.3513C123.665 66.5574 123.013 66.3101 122.335 66.1071C120.783 65.6516 119.168 65.5396 117.585 65.2403C115.524 64.8498 113.89 63.8633 113.099 61.8329C112.854 61.2445 112.735 60.6129 112.747 59.9771C112.76 59.3413 112.904 58.7148 113.172 58.1362C113.439 57.5576 113.824 57.0393 114.303 56.6131C114.781 56.187 115.343 55.8621 115.954 55.6585C118.978 54.5887 122.039 54.6381 125.071 55.6221C127.219 56.3223 127.348 56.8351 125.952 58.5323C125.034 59.6464 125.082 59.5579 123.812 58.8941C122.931 58.4083 121.952 58.1198 120.945 58.0492C119.938 57.9785 118.928 58.1275 117.986 58.4854C116.667 58.9826 116.506 60.3492 117.556 61.2837C118.103 61.7612 118.802 62.0371 119.532 62.0646C121.469 62.2078 123.398 62.3639 125.227 63.137C128.269 64.4203 129.217 68.6034 126.913 70.9774C125.14 72.8151 122.868 73.6455 120.435 73.7184Z" fill="#4876B2"/>
<path d="M57.9746 32.5514C70.5168 32.1583 83.307 42.8152 83.0827 58.0611C82.8901 71.144 71.4878 81.8061 58.9615 82.1653C43.2606 82.6156 32.5471 70.5271 32.5919 57.0772C32.6368 43.9189 43.9441 32.1453 57.9746 32.5514ZM43.7593 57.7201C43.4084 64.6729 49.9394 71.4616 57.9376 71.2846C65.4555 71.118 71.7596 65.2481 71.823 57.5848C71.8889 49.3124 65.5716 43.6325 57.9587 43.4815C50.578 43.3358 43.4031 48.9089 43.7593 57.7201Z" fill="#4876B2"/>
<path d="M57.5653 114.289C47.0101 114.089 37.0935 111.626 27.9871 106.246C24.422 104.137 21.0233 101.805 18.0309 98.934C16.8117 97.7626 16.8012 97.5778 17.9095 96.2971C19.688 94.2381 21.8677 92.5669 23.7755 90.6511C26.8312 87.6003 29.9345 84.5991 33.0351 81.5925C33.9455 80.7101 34.2595 80.7127 35.2015 81.5379C40.2918 85.9865 46.208 88.6181 52.9211 89.727C59.8769 90.875 66.3209 89.4303 72.5669 86.5357C74.6057 85.5493 76.5219 84.3334 78.2773 82.9123C79.2906 82.1314 79.6283 82.1314 80.5836 82.98C82.874 84.9973 84.6975 87.4338 86.761 89.6567C89.5819 92.6971 92.3315 95.8077 95.1392 98.8637C96.1208 99.9309 96.1446 100.064 95.0046 100.988C85.5947 108.622 74.7782 112.889 62.6873 114.084C61.8376 114.17 60.9984 114.344 60.1355 114.297C59.2726 114.25 58.4229 114.289 57.5653 114.289Z" fill="#213861"/>
<path d="M57.6656 0.302338C62.2993 0.302338 67.1178 0.955701 71.8887 1.97088C73.2081 2.25201 73.443 2.64507 73.1289 3.98304C72.1552 8.13228 70.6722 12.1383 69.5375 16.2407C68.8171 18.8438 68.2182 21.4754 67.2128 23.9926C66.5927 25.5544 66.5214 25.6273 64.8009 25.4164C62.645 25.1561 60.5181 24.7266 58.3359 24.6173C55.7366 24.4872 53.2166 24.9219 50.6833 25.3383C49.8917 25.4685 49.1001 25.4919 48.3427 25.682C47.1685 25.9735 46.4797 25.4633 45.9097 24.5314C45.1471 23.2871 44.8067 21.8919 44.3264 20.5435C42.576 15.511 40.7069 10.5167 38.719 5.56047C38.0382 3.8659 38.2071 3.47805 39.9777 2.95744C44.2362 1.68135 48.6217 0.861859 53.0583 0.513183C54.5149 0.403855 55.9504 0.325765 57.6656 0.302338Z" fill="#4876B2"/>
<path d="M26.2191 71.0008C26.4513 70.9962 26.6814 71.0437 26.8922 71.1397C27.1029 71.2358 27.2888 71.3779 27.4356 71.5553C28.4911 72.6121 29.1852 73.898 29.953 75.1527C30.2776 75.6733 30.0085 76.0741 29.5862 76.4125C25.1874 79.9318 20.3927 82.9019 15.7695 86.1115C14.21 87.1943 12.6531 88.285 11.1358 89.4251C10.4629 89.9301 10.038 89.7843 9.5947 89.1648C7.74754 86.6138 6.20648 83.9145 5.20374 80.9236C4.93986 80.1609 5.10085 79.7262 5.82652 79.3618C8.54449 77.9483 11.4683 77.019 14.2707 75.8269C17.5322 74.4386 20.7964 73.0546 24.0633 71.675C24.7678 71.3705 25.4512 71.0503 26.2191 71.0008Z" fill="#213861"/>
<path d="M30.8528 37.268C30.2274 38.9262 29.5967 40.5921 28.0873 41.727C27.7047 42.0134 27.2482 41.852 26.8524 41.6984C25.1662 41.0503 23.4984 40.3969 22.0709 39.2229C20.9203 38.2832 19.4637 37.8511 18.1127 37.255C14.5943 35.6932 11.1515 33.9969 7.78439 32.1661C6.44652 31.4398 6.35682 31.1249 7.01652 29.7661C8.28842 27.1448 10.162 24.9036 11.7268 22.4646C12.1727 21.7696 12.7322 21.7461 13.376 22.2798C14.5992 23.2652 15.7313 24.3558 16.7589 25.5388C17.2604 26.1435 17.8806 26.642 18.5824 27.0043C20.2749 27.8137 21.7748 28.9669 22.9839 30.3882C23.7913 31.3617 25.0105 31.8147 26.0159 32.5409C27.4751 33.5821 28.9687 34.6051 30.1878 35.9431C30.5687 36.2879 30.8058 36.7602 30.8528 37.268Z" fill="#4876B2"/>
<path d="M35.7321 32.2338C35.6065 32.2301 35.4833 32.1985 35.3718 32.1412C35.2603 32.084 35.1633 32.0026 35.0882 31.9032C34.7007 31.5073 34.3352 31.091 33.9931 30.6563C32.8769 29.1257 31.6895 27.6732 30.1801 26.4915C27.9951 24.7683 26.6362 22.3266 24.76 20.3249C23.2849 18.763 21.8125 17.1804 20.274 15.6654C19.4824 14.8845 19.5061 14.4498 20.2925 13.708C21.8916 12.1956 23.7731 11.0476 25.5701 9.80339C26.1269 9.41814 26.5253 9.57432 26.8895 10.0845C29.1246 13.1327 31.0482 16.3839 33.1012 19.5492C34.7452 22.0897 36.2467 24.7214 37.8194 27.3088C38.2279 27.9385 38.7057 28.5217 39.2443 29.0476C39.5557 29.3704 39.7906 29.7921 39.2813 30.1253C38.2258 30.8255 37.1175 31.4841 36.0276 32.1505C35.9339 32.1926 35.8343 32.2207 35.7321 32.2338Z" fill="#4876B2"/>
<path d="M23.5118 59.9327C24.3034 59.6958 24.6016 60.2971 24.7019 61.2342C24.77 62.0438 24.9096 62.8459 25.1188 63.6316C25.3827 64.527 24.9684 64.8811 24.1979 65.1179C22.0262 65.7843 19.7937 66.1904 17.5745 66.6459C14.4079 67.2941 11.2598 67.9474 8.17509 68.8897C6.18543 69.4936 4.11397 69.7149 2.10585 70.2147C1.54115 70.3552 1.24562 70.0819 1.10577 69.5613C0.566399 67.4518 0.202793 65.3024 0.0185816 63.1344C-0.092248 62.0021 0.300936 61.7236 1.53853 61.6038C7.8954 60.9869 14.2945 60.9531 20.6434 60.2503L23.5118 59.9327Z" fill="#4876B2"/>
<path d="M25.6043 48.7761C25.5024 49.7383 25.2926 50.6864 24.9789 51.603C24.7678 52.2902 24.248 52.3995 23.5672 52.3058C19.8227 51.7852 16.0809 51.1995 12.3206 50.8065C8.75031 50.4316 5.22487 49.8095 1.68888 49.2446C0.469752 49.0468 0.414326 48.9088 0.654457 47.6828C1.02389 45.8034 1.35376 43.9188 1.76013 42.0498C2.03984 40.7483 2.45151 40.5739 3.71813 41.0451C6.88469 42.2243 10.2834 42.7032 13.4236 43.9579C16.8831 45.3401 20.5246 46.0924 24.0738 47.17C24.9103 47.4251 25.7679 47.7115 25.6043 48.7761Z" fill="#4876B2"/>
<path d="M213.08 64.4334C213.08 62.0906 213.051 59.7479 213.08 57.4052C213.109 55.583 214.534 54.7032 216.271 55.393C216.664 55.5492 216.753 55.8798 216.814 56.2468C217.041 57.5691 217.139 57.6472 218.202 56.7934C220.144 55.2316 222.369 54.9114 224.72 55.2655C227.623 55.7054 229.575 57.6967 230.23 60.6615C230.731 62.9392 230.681 65.2481 230.676 67.5544C230.676 68.9496 230.623 70.3474 230.602 71.7427C230.602 72.56 230.145 72.862 229.362 72.9271C226.572 73.1691 226.48 73.0989 226.475 70.324C226.475 67.8537 226.522 65.3783 226.448 62.9158C226.375 60.508 224.641 58.829 222.189 58.6338C219.902 58.4542 217.893 59.9874 217.389 62.2572C217.02 63.9336 217.226 65.6255 217.189 67.3097C217.155 68.8377 217.162 70.3657 217.189 71.8937C217.189 72.6746 216.819 72.9869 216.062 73.0546C213.326 73.3149 213.049 73.0728 213.035 70.3839C213.035 68.4004 213.035 66.4169 213.035 64.4359L213.08 64.4334Z" fill="#4876B2"/>
<path d="M137.415 63.59C137.415 64.6312 137.397 65.6724 137.415 66.7136C137.46 68.6997 138.682 69.7331 140.656 69.2125C141.798 68.9132 142.107 69.2125 142.456 70.2251C143.274 72.5678 143.171 72.8594 140.582 73.1223C138.376 73.3462 136.231 73.3175 134.61 71.4277C133.386 69.9986 133.027 68.3041 133.027 66.5262C133.014 64.3501 133.006 62.1739 133.043 59.9978C133.059 59.1388 132.753 58.8655 131.871 58.9331C129.607 59.0997 129.605 59.0633 129.597 56.8871C129.597 55.229 129.597 55.229 131.249 55.2498C133.162 55.2759 133.162 55.2759 133.08 53.3392C132.966 50.6269 133.08 50.4941 135.798 50.2442C137.268 50.1062 137.442 50.2598 137.455 51.7566C137.455 52.6026 137.439 53.4459 137.439 54.2919C137.439 54.9531 137.703 55.3071 138.452 55.2681C139.176 55.2359 139.901 55.2559 140.622 55.3279C141.941 55.4451 142.339 55.8485 142.469 57.15C142.503 57.4702 142.469 57.7982 142.506 58.1236C142.564 58.7952 142.287 59.0503 141.585 59.0112C140.529 58.9514 139.474 59.0112 138.418 58.9592C137.627 58.9201 137.363 59.2195 137.363 59.9795C137.397 61.1821 137.363 62.3848 137.363 63.5874L137.415 63.59Z" fill="#4876B2"/>
<path d="M169.635 63.806C169.635 62.4733 169.614 61.1431 169.635 59.8104C169.635 59.0867 169.348 58.8368 168.622 58.8785C166.215 59.0216 166.215 59.0086 166.326 56.6477C166.392 55.242 166.392 55.242 167.841 55.2577C169.688 55.2759 169.688 55.2759 169.688 53.4121C169.688 52.9904 169.688 52.5661 169.688 52.1444C169.709 50.6815 169.878 50.5019 171.374 50.3457C173.435 50.1297 173.902 50.5384 173.952 52.5974C173.952 52.8238 173.966 53.0503 173.966 53.2793C173.984 55.4321 173.762 55.2056 176.026 55.2525C176.127 55.2525 176.224 55.2525 176.325 55.2525C179.109 55.2082 179.46 55.6429 178.982 58.4256C178.887 58.9852 178.533 58.9904 178.13 58.9878C177.042 58.9878 175.955 58.9878 174.871 58.941C174.343 58.9227 173.958 59.0451 173.944 59.6594C173.889 62.0282 173.681 64.3995 173.944 66.7683C174.169 68.8325 175.499 69.754 177.533 69.1631C178.404 68.9028 178.813 69.0303 178.948 69.944C179.055 70.3884 179.197 70.8237 179.375 71.2455C179.729 72.3596 179.639 72.6538 178.583 72.9063C175.232 73.7054 172.67 73.2837 170.593 70.6546C169.886 69.7618 169.759 68.6867 169.72 67.6143C169.672 66.3466 169.72 65.0789 169.72 63.8112L169.635 63.806Z" fill="#4876B2"/>
<path d="M121.496 20.7102C123.385 20.6379 125.249 21.1503 126.829 22.1757C127.837 22.8368 127.921 23.3184 127.129 24.1982C126.931 24.4169 126.723 24.6251 126.538 24.8542C125.913 25.6351 125.243 25.7366 124.301 25.2811C121.778 24.0577 119.2 24.4143 117.646 26.0828C116.202 27.6316 115.835 30.8985 116.867 32.9861C117.775 34.8082 119.617 35.7817 121.947 35.6308C122.838 35.5672 123.704 35.3103 124.483 34.8785C125.43 34.3579 126.124 34.5609 126.858 35.2637C128.499 36.8256 128.496 37.4893 126.33 38.3249C122.533 39.8008 118.704 39.9752 115.305 37.3149C112.286 34.9514 111.553 31.6559 112.247 28.095C113.191 23.321 116.521 20.7596 121.496 20.7102Z" fill="#4876B2"/>
<path d="M135.091 26.5488C135.091 30.1236 135.091 33.6976 135.091 37.2707C135.091 38.8325 134.993 38.9314 133.428 38.9392C130.874 38.9392 130.832 38.9392 130.818 36.4221C130.787 29.7297 130.75 23.0347 130.805 16.3423C130.834 13.177 130.992 13.6299 133.903 13.6195C134.478 13.6195 134.795 13.9162 134.935 14.4733C135.034 14.9167 135.078 15.3703 135.067 15.8242V26.5488H135.091Z" fill="#4876B2"/>
<path d="M182.74 64.0976C182.74 61.4685 182.761 58.8394 182.74 56.2104C182.74 55.4034 183.04 55.1457 183.835 55.1535C187.418 55.1978 186.893 54.7761 186.938 58.1106C186.993 61.9709 187.022 65.8338 187.057 69.6941C187.057 70.311 187.057 70.9305 187.014 71.5448C186.935 72.8932 186.78 73.0338 185.431 73.0702C182.742 73.1431 182.742 73.1431 182.745 70.5245V64.0976H182.74Z" fill="#4876B2"/>
<path d="M236.03 14.0177C236.044 14.8231 235.896 15.6232 235.592 16.371C235.289 17.1189 234.838 17.7995 234.264 18.3729C233.691 18.9463 233.007 19.401 232.253 19.7103C231.499 20.0195 230.69 20.1772 229.874 20.1739C226.361 20.2052 223.63 17.4928 223.591 14.0177C223.587 13.1903 223.755 12.3707 224.083 11.6092C224.411 10.8477 224.893 10.1601 225.499 9.58836C226.106 9.01666 226.824 8.57286 227.61 8.28403C228.396 7.99519 229.234 7.86739 230.072 7.90842C231.68 7.94667 233.209 8.60993 234.325 9.75398C235.441 10.898 236.053 12.4304 236.03 14.0177ZM229.868 8.9262C226.989 8.9262 224.625 11.1466 224.591 13.8954C224.577 14.5705 224.699 15.2416 224.949 15.8702C225.198 16.4989 225.572 17.0727 226.047 17.5587C226.522 18.0448 227.089 18.4336 227.717 18.7028C228.345 18.972 229.02 19.1163 229.705 19.1275C232.66 19.1275 234.982 16.9305 234.982 14.1062C234.997 13.4334 234.876 12.7644 234.626 12.1382C234.376 11.512 234.002 10.9412 233.526 10.4591C233.05 9.97695 232.481 9.5931 231.853 9.32992C231.225 9.06674 230.551 8.9295 229.868 8.9262Z" fill="#4876B2"/>
<path d="M152.375 91.3019C152.375 92.1114 152.39 92.9236 152.375 93.7331C152.375 94.0299 152.398 94.4125 151.876 94.3865C151.425 94.3657 151.377 94.0871 151.327 93.7357C151.277 93.3843 151.541 92.8481 151.095 92.6945C150.889 92.6268 150.506 93.0277 150.227 93.2464C149.454 93.8301 148.523 94.174 147.552 94.2342C146.58 94.2945 145.613 94.0684 144.772 93.5848C143.205 92.6841 142.326 90.7214 142.632 88.803C142.978 86.6529 144.553 85.0806 146.622 84.8229C149.279 84.4897 151.137 85.4373 152.082 87.642C152.573 88.8212 152.401 90.0759 152.375 91.3019ZM151.319 89.5943C151.319 87.4026 149.638 85.6117 147.567 85.6221C145.495 85.6325 143.777 87.3869 143.78 89.5683C143.783 91.7496 145.363 93.3375 147.559 93.3375C148.555 93.3172 149.504 92.9152 150.205 92.2164C150.906 91.5177 151.304 90.5773 151.314 89.5943H151.319Z" fill="#213861"/>
<path d="M113.257 87.2177C113.046 82.5921 118.271 79.6533 121.464 80.5279C122.378 80.7968 123.25 81.1892 124.055 81.6941C124.398 81.8971 124.747 82.1444 124.403 82.6208C124.029 83.1414 123.778 82.639 123.538 82.4828C122.528 81.7949 121.323 81.4393 120.095 81.4669C118.868 81.4945 117.681 81.9038 116.703 82.6364C114.709 84.1357 113.801 87.1657 114.65 89.4928C115.582 92.0412 117.801 93.6941 120.266 93.6576C121.488 93.6368 122.54 93.0902 123.601 92.5592C123.865 92.4316 124.182 91.9995 124.44 92.39C124.699 92.7804 124.345 93.0954 123.976 93.3036C121.472 94.7223 118.925 94.6754 116.447 93.3245C114.152 92.062 113.273 89.9665 113.257 87.2177Z" fill="#213861"/>
<path d="M136.983 89.9041C135.961 89.9041 134.943 89.9041 133.922 89.9041C133.016 89.9041 132.892 90.0993 133.222 90.9453C134.014 92.9991 136.257 93.8997 138.439 93.0277C138.835 92.8715 139.215 92.6737 139.616 92.5253C139.811 92.4524 140.081 92.2937 140.218 92.5748C140.329 92.8012 140.17 93.0173 139.983 93.1657C139.478 93.5313 138.913 93.8086 138.313 93.9856C137.189 94.3972 135.948 94.3726 134.842 93.917C133.735 93.4614 132.845 92.6087 132.352 91.531C131.309 89.2689 132.225 86.2832 134.389 85.1665C135.864 84.4038 137.431 84.5314 138.848 85.2941C140.355 86.1036 141.012 87.4858 141.004 89.1856C141.004 89.7297 140.806 89.9223 140.242 89.9015C139.157 89.8702 138.07 89.9041 136.983 89.9041ZM136.455 88.954C137.439 88.954 138.423 88.954 139.408 88.954C139.935 88.954 140.099 88.7327 139.957 88.2199C139.537 86.7075 138.276 85.6819 136.79 85.6663C135.999 85.6653 135.227 85.9064 134.581 86.3563C133.935 86.8062 133.447 87.4428 133.183 88.1783C132.985 88.7978 133.183 88.9904 133.811 88.9592C134.692 88.9227 135.579 88.9488 136.463 88.9488L136.455 88.954Z" fill="#213861"/>
<path d="M244.764 87.7253V82.3553C244.745 82.1939 244.751 82.0306 244.783 81.8711C244.923 81.4832 244.691 80.7804 245.353 80.8038C246.063 80.8273 245.757 81.5223 245.767 81.8945C245.831 84.0056 245.815 86.1193 245.854 88.2303C245.854 88.5635 245.701 89.0503 246.092 89.1986C246.424 89.3236 246.62 88.8733 246.846 88.665C248.2 87.478 249.535 86.2728 250.902 85.1041C251.148 84.8958 251.43 84.3856 251.863 84.8906C252.214 85.3123 251.792 85.531 251.544 85.76C250.652 86.5774 249.754 87.3921 248.847 88.1913C248.345 88.6312 248.121 88.954 248.715 89.5943C249.77 90.7396 250.696 92.0151 251.654 93.2386C251.86 93.4989 252.203 93.8945 251.844 94.1783C251.433 94.501 251.121 94.0611 250.881 93.7774C249.952 92.6815 249.034 91.5674 248.132 90.4585C247.849 90.1149 247.628 89.5631 247.063 89.8598C246.498 90.1566 245.664 90.3804 245.709 91.3123C245.743 92.0542 245.738 92.8012 245.749 93.5483C245.749 93.931 245.707 94.3058 245.202 94.2928C244.698 94.2798 244.783 93.8399 244.78 93.5561C244.762 91.6065 244.78 89.6516 244.78 87.7045L244.764 87.7253Z" fill="#213861"/>
<path d="M156.718 86.062C157.51 85.6871 157.948 85.0806 158.666 84.8568C161.328 84.0342 163.825 85.5518 164.186 88.298C164.408 89.9795 164.263 91.6819 164.186 93.3609C164.173 93.6655 164.244 94.1106 163.782 94.1236C163.255 94.1392 163.189 93.6837 163.181 93.2828C163.152 91.8199 163.146 90.357 163.115 88.8941C163.07 86.8455 161.927 85.7001 159.88 85.6221C159.05 85.5872 158.239 85.8754 157.622 86.4247C157.006 86.9739 156.633 87.7402 156.584 88.5583C156.52 89.8884 156.542 91.2212 156.515 92.5539C156.515 92.9444 156.454 93.3349 156.423 93.7201C156.391 94.1054 156.143 94.2225 155.824 94.2407C155.444 94.2745 155.431 93.9596 155.388 93.7201C155.347 93.4618 155.327 93.2007 155.328 92.9392C155.328 90.6624 155.328 88.3856 155.328 86.1088C155.332 85.8477 155.35 85.587 155.383 85.3279C155.42 85.0208 155.512 84.7292 155.887 84.7058C156.262 84.6824 156.415 84.8984 156.486 85.2264C156.557 85.4789 156.631 85.7392 156.718 86.062Z" fill="#213861"/>
<path d="M187.03 89.3132C187.03 90.5158 187.03 91.7184 187.03 92.921C187.043 93.2451 187.005 93.5692 186.917 93.8815C186.876 93.9861 186.812 94.08 186.729 94.1558C186.645 94.2317 186.545 94.2875 186.436 94.3188C186.236 94.3423 186.067 94.1054 186.054 93.8529C185.99 92.5982 185.354 93.1527 184.824 93.4885C182.837 94.7379 179.987 94.2694 178.755 92.4967C178.276 91.7497 178.035 90.8784 178.063 89.9952C178.045 88.5323 178.063 87.0694 178.063 85.6065C178.063 85.1952 178.082 84.7787 178.628 84.7631C179.174 84.7475 179.195 85.1587 179.214 85.5752C179.288 87.262 179.058 88.9592 179.33 90.6381C179.618 92.4342 180.974 93.5405 182.797 93.3505C184.782 93.1448 185.88 92.39 185.924 90.2268C185.956 88.6989 185.943 87.1709 185.969 85.6429C185.969 85.2915 185.806 84.7891 186.442 84.7631C187.078 84.737 186.917 85.255 186.922 85.6012C186.938 86.8377 186.922 88.0715 186.922 89.3054L187.03 89.3132Z" fill="#213861"/>
<path d="M193.511 94.2303C192.342 94.2802 191.194 93.9103 190.281 93.1891C189.972 92.9522 189.584 92.6685 189.962 92.2364C190.339 91.8043 190.574 92.1739 190.862 92.4056C192.218 93.5015 194.461 93.6785 195.659 92.8195C196.15 92.4681 196.451 92.0386 196.371 91.4216C196.292 90.8047 195.867 90.4976 195.316 90.2763C194.213 89.8416 192.988 89.8989 191.901 89.373C190.74 88.8082 190.202 88.1522 190.265 87.085C190.305 86.5623 190.515 86.0663 190.864 85.6712C191.213 85.2761 191.683 85.0031 192.202 84.8932C193.843 84.5028 195.416 84.5418 196.701 85.8355C196.941 86.075 197.401 86.3561 197.121 86.6893C196.841 87.0225 196.329 86.8819 195.978 86.5696C195.168 85.8277 194.205 85.6325 193.139 85.7236C192.128 85.8095 191.389 86.3249 191.323 87.0642C191.239 88.0299 191.885 88.4854 192.685 88.7223C193.566 88.9826 194.479 89.1284 195.377 89.3366C196.561 89.6099 197.313 90.344 197.416 91.3097C197.54 92.4811 197.026 93.2932 195.833 93.8268C195.101 94.1354 194.306 94.2734 193.511 94.2303Z" fill="#213861"/>
<path d="M234.407 89.4772C234.407 92.2754 236.998 94.0585 239.661 93.0694C239.906 92.9756 240.136 92.8455 240.381 92.7518C240.732 92.619 241.189 92.1895 241.437 92.5722C241.743 93.0381 241.155 93.2828 240.819 93.4989C240.271 93.8615 239.654 94.1106 239.006 94.2309C238.357 94.3513 237.69 94.3404 237.046 94.199C236.402 94.0576 235.793 93.7886 235.258 93.4082C234.722 93.0279 234.27 92.5442 233.93 91.9865C232.539 89.6932 233.47 86.3848 235.853 85.1301C237.436 84.2919 239.811 84.6329 241.083 85.911C241.347 86.1713 241.767 86.5331 241.413 86.9002C241.06 87.2672 240.759 86.7856 240.49 86.5982C238.191 84.9999 235.893 85.5101 234.724 87.8815C234.496 88.3825 234.388 88.9284 234.407 89.4772Z" fill="#213861"/>
<path d="M213.363 89.2507C213.4 92.5514 216.104 94.2407 219.068 92.8767C219.158 92.8351 219.25 92.8039 219.332 92.7674C219.709 92.6164 220.229 92.1687 220.458 92.5566C220.722 93.0147 220.108 93.3166 219.738 93.5405C216.624 95.4303 212.447 93.5587 212.437 90.1123C212.437 86.9887 214.445 83.865 218.242 84.8516C219.15 85.0885 219.793 85.6689 220.392 86.3275C220.551 86.5019 220.67 86.7284 220.469 86.934C220.268 87.1397 220.039 87.0485 219.838 86.921C219.62 86.7753 219.41 86.6189 219.208 86.4524C218.052 85.518 216.772 85.3305 215.437 85.9709C214.049 86.6347 213.281 87.7305 213.363 89.2507Z" fill="#213861"/>
<path d="M200.715 88.9878C200.715 88.337 200.689 87.6863 200.715 87.0381C200.755 86.3093 200.501 85.924 199.702 85.9969C199.359 86.0255 198.881 86.0932 198.873 85.5726C198.865 85.052 199.351 85.039 199.683 85.0859C200.559 85.216 200.66 84.7032 200.689 84.0446C200.71 83.524 200.757 83.0034 200.81 82.4828C200.807 82.3666 200.851 82.254 200.932 82.1696C201.013 82.0852 201.125 82.0359 201.243 82.0325C201.462 82.0325 201.57 82.2407 201.636 82.4229C201.808 82.9851 201.87 83.5741 201.821 84.1592C201.8 84.8177 202.061 85.1301 202.755 85.0494C203.018 85.0249 203.284 85.0293 203.546 85.0624C203.81 85.0885 204.211 84.9765 204.277 85.3748C204.351 85.8147 203.913 85.8381 203.639 85.9787C203.577 85.998 203.511 86.0068 203.446 86.0047C201.821 86.213 201.815 86.213 201.818 87.8503C201.818 88.9566 201.797 90.0629 201.863 91.164C201.942 92.4655 202.686 93.1396 204.003 93.2203C204.325 93.2412 204.829 93.0277 204.795 93.6212C204.776 94.121 204.341 94.1861 203.924 94.2043C202.29 94.2798 200.968 93.223 200.802 91.6013C200.752 90.7257 200.747 89.8482 200.786 88.9722L200.715 88.9878Z" fill="#213861"/>
<path d="M182.512 50.1193C182.531 48.6668 183.568 47.5865 184.93 47.5865C186.249 47.5865 187.45 48.8698 187.407 50.2312C187.37 51.439 186.167 52.5245 184.898 52.4906C183.629 52.4568 182.494 51.3297 182.512 50.1193Z" fill="#4876B2"/>
<path d="M174.277 90.219C174.277 91.7444 174.277 93.2698 174.277 94.7952C174.256 97.2056 172.142 98.2885 170.437 98.5305C169.968 98.5956 169.662 98.4056 169.619 97.9188C169.577 97.4321 169.955 97.367 170.332 97.3253C172.388 97.0989 173.208 96.2841 173.235 94.1731C173.285 91.4815 173.235 88.7874 173.235 86.1036C173.235 85.8433 173.235 85.583 173.235 85.3227C173.235 84.9922 173.235 84.6746 173.733 84.672C174.232 84.6694 174.311 84.9557 174.309 85.3592C174.309 86.9809 174.309 88.6052 174.309 90.2268L174.277 90.219Z" fill="#213861"/>
<path d="M128.372 86.4889C128.372 88.1757 128.335 89.8728 128.372 91.5518C128.412 92.9132 128.694 93.1761 130.066 93.4208C130.254 93.4546 130.507 93.4208 130.523 93.6811C130.539 93.9414 130.359 94.1366 130.069 94.2277C129.277 94.488 128.008 93.8919 127.588 93.0355C127.379 92.6319 127.264 92.1872 127.251 91.734C127.251 88.423 127.26 85.111 127.277 81.7982C127.277 81.6707 127.309 81.5379 127.314 81.4104C127.314 81.0563 127.406 80.7492 127.842 80.7414C128.351 80.7414 128.288 81.124 128.29 81.4364C128.29 83.1258 128.29 84.8203 128.29 86.5045L128.372 86.4889Z" fill="#213861"/>
<path d="M223.324 87.2073C223.324 85.8433 223.324 84.4793 223.324 83.1153C223.32 82.8545 223.333 82.5936 223.364 82.3344C223.417 81.9622 223.601 81.5535 223.984 81.5665C224.367 81.5795 224.343 82.0611 224.345 82.3631C224.364 85.0911 224.361 87.8294 224.377 90.547C224.377 91.0312 224.44 91.5153 224.477 91.9995C224.538 92.8273 224.947 93.3401 225.82 93.3843C226.156 93.4025 226.443 93.4572 226.412 93.8529C226.375 94.2928 226.005 94.3136 225.67 94.3084C224.372 94.285 223.406 93.3219 223.353 91.8798C223.298 90.318 223.353 88.7561 223.353 87.1943L223.324 87.2073Z" fill="#213861"/>
<path d="M230.093 89.4147V93.6082C230.093 93.957 230.058 94.2694 229.583 94.2668C229.108 94.2642 229.056 93.9648 229.056 93.6108C229.056 90.8464 229.056 88.0846 229.056 85.3201C229.056 84.9193 229.214 84.7162 229.62 84.6876C230.103 84.6538 230.148 84.9713 230.148 85.3201C230.148 86.6841 230.148 88.0507 230.148 89.4147H230.093Z" fill="#213861"/>
<path d="M229.52 82.5817C229.19 82.436 228.829 82.2928 228.879 81.8607C228.921 81.5145 229.159 81.2438 229.547 81.3401C229.89 81.4182 230.251 81.6004 230.219 82.0325C230.193 82.4021 229.847 82.4984 229.52 82.5817Z" fill="#213861"/>
<path d="M174.013 81.5275C174.351 81.5535 174.414 81.8164 174.417 82.0741C174.417 82.5531 174.008 82.4932 173.709 82.5349C173.411 82.5765 173.295 82.3657 173.327 82.1132C173.377 81.7357 173.657 81.5926 174.013 81.5275Z" fill="#213861"/>
<path d="M232.307 16.8524C231.341 17.144 230.723 16.8993 230.314 16.121C230.098 15.7601 229.86 15.4124 229.602 15.0798C229.544 14.9817 229.456 14.904 229.351 14.8573C229.246 14.8107 229.129 14.7974 229.016 14.8195C228.681 14.8793 228.752 15.1475 228.752 15.3583C228.735 15.6826 228.735 16.0075 228.752 16.3318C228.776 16.7535 228.681 16.9904 228.166 17.0008C227.652 17.0112 227.501 16.777 227.507 16.298C227.528 14.8012 227.507 13.3071 227.507 11.8104C227.507 11.485 227.47 11.1101 227.961 11.1101C228.879 11.1101 229.808 10.9904 230.71 11.2611C231.035 11.3343 231.33 11.5032 231.556 11.7453C231.782 11.9875 231.928 12.2916 231.974 12.6173C232.08 13.3071 231.866 13.9579 231.23 14.2911C230.594 14.6243 230.829 14.8455 231.125 15.2177C231.526 15.6967 231.874 16.2381 232.307 16.8524ZM228.758 12.8802C228.697 13.3592 228.742 13.7783 229.37 13.7054C229.927 13.6377 230.644 13.7054 230.66 12.8724C230.676 12.1045 230.04 12.1878 229.531 12.1383C228.969 12.0733 228.636 12.2685 228.758 12.8802Z" fill="#4876B2"/>
</g>
<defs>
<clipPath id="clip0_68_4688">
<rect width="252" height="114" fill="white" transform="translate(0 0.302338)"/>
</clipPath>
</defs>
</svg>
